<svg width="350" height="189" viewBox="0 0 350 189" fill="none" xmlns="http://www.w3.org/2000/svg">
<path d="M0 188.227H351.858V138.396H0V188.227Z" fill="#D9E7F7"/>
<path d="M352.001 138.001H0.142578V132.098H352.001V138.001Z" fill="#782219"/>
<path d="M325.024 74.4243H299.998C296.045 74.4243 292.84 71.6859 292.84 68.3085V12.0058C292.84 8.62803 296.045 5.88999 299.998 5.88999H325.024C328.977 5.88999 332.182 8.62803 332.182 12.0058V68.3085C332.182 71.6859 328.977 74.4243 325.024 74.4243Z" fill="#782219"/>
<path d="M324.118 71.4268H300.905C298.244 71.4268 296.086 69.5834 296.086 67.3095V13.0049C296.086 10.731 298.244 8.88798 300.905 8.88798H324.118C326.779 8.88798 328.937 10.731 328.937 13.0049V67.3095C328.937 69.5834 326.779 71.4268 324.118 71.4268Z" fill="#FBED81"/>
<path d="M319.867 8.88791H300.905C298.244 8.88791 296.086 10.7309 296.086 13.0048V21.4858L319.867 8.88791Z" fill="#FEFCD1"/>
<path d="M328.937 61.2634L309.752 71.4268H324.118C326.78 71.4268 328.937 69.5834 328.937 67.3095V61.2634Z" fill="#FEFCD1"/>
<path d="M296.086 26.0669L326.982 9.69959C326.33 9.28634 325.554 9.01016 324.708 8.92158L296.086 24.0848V26.0669Z" fill="#FEFCD1"/>
<path d="M296.086 59.7217L328.937 42.3186V40.3097L296.086 57.7127V59.7217Z" fill="#FEFCD1"/>
<path d="M306.434 71.4268L328.937 59.5062V57.4973L302.643 71.4268H306.434Z" fill="#FEFCD1"/>
<path d="M220.38 138.001H218.584V132.098H220.38V138.001Z" fill="#FFFCF2"/>
<path d="M140.259 138.001H138.463V132.098H140.259V138.001Z" fill="#FFFCF2"/>
<path d="M218.584 138H140.229V13.6258C140.229 6.46707 147.021 0.663925 155.4 0.663925H203.412C211.791 0.663925 218.584 6.46707 218.584 13.6258V138Z" fill="#F0CD9A"/>
<path d="M140.23 129.225H199.855V138.001H140.23V129.225Z" fill="#D29869"/>
<path d="M140.23 138.001H199.855V136.448H140.23V138.001Z" fill="#28171C"/>
<path d="M140.23 120.448H190.892V129.225H140.23V120.448Z" fill="#D29869"/>
<path d="M140.23 127.511H190.892V129.225H140.23V127.511Z" fill="#28171C"/>
<path d="M140.23 111.966H181.156V120.743H140.23V111.966Z" fill="#D29869"/>
<path d="M140.23 118.963H181.156V120.448H140.23V118.963Z" fill="#28171C"/>
<path d="M140.23 103.19H172.957V111.966H140.23V103.19Z" fill="#D29869"/>
<path d="M140.23 110.455H172.957V111.966H140.23V110.455Z" fill="#28171C"/>
<path d="M140.23 94.4135H164.764V103.19H140.23V94.4135Z" fill="#D29869"/>
<path d="M140.23 101.871H164.764V103.19H140.23V101.871Z" fill="#28171C"/>
<path d="M140.23 85.6375H155.899V94.4136H140.23V85.6375Z" fill="#D29869"/>
<path d="M140.23 92.9237H155.899V94.4136H140.23V92.9237Z" fill="#28171C"/>
<path d="M140.23 76.8607H146.542V85.6372H140.23V76.8607Z" fill="#D29869"/>
<path d="M140.23 84.3009H146.542V85.6372H140.23V84.3009Z" fill="#28171C"/>
<path d="M140.229 53.2393L202.647 105.199C203.623 106.012 205.184 105.994 206.134 105.161C207.085 104.327 207.065 102.993 206.089 102.181L140.229 47.3559V53.2393Z" fill="#782219"/>
<path d="M206.247 51.263C206.247 59.4387 200.352 66.0659 193.08 66.0659C185.807 66.0659 179.912 59.4387 179.912 51.263C179.912 43.0878 185.807 36.4602 193.08 36.4602C200.352 36.4602 206.247 43.0878 206.247 51.263Z" fill="#D29869"/>
<path d="M204.842 50.6998C204.842 58.7435 199.052 65.2642 191.908 65.2642C184.765 65.2642 178.975 58.7435 178.975 50.6998C178.975 42.6556 184.765 36.135 191.908 36.135C199.052 36.135 204.842 42.6556 204.842 50.6998Z" fill="#E46D19"/>
<path d="M202.804 50.6997C202.804 57.476 197.926 62.9697 191.908 62.9697C185.89 62.9697 181.012 57.476 181.012 50.6997C181.012 43.9229 185.89 38.4292 191.908 38.4292C197.926 38.4292 202.804 43.9229 202.804 50.6997Z" fill="#FBED81"/>
<path d="M191.908 38.4293C185.89 38.4293 181.012 43.923 181.012 50.6998C181.012 51.4818 181.079 52.2458 181.204 52.9873L198.6 41.0199C196.753 39.3981 194.432 38.4293 191.908 38.4293Z" fill="#FEFCD1"/>
<path d="M189.488 62.6623C190.267 62.8611 191.077 62.9697 191.909 62.9697C196.997 62.9697 201.27 59.042 202.469 53.7327L189.488 62.6623Z" fill="#FEFCD1"/>
<path d="M181.982 55.7593L200.435 43.0647C200.151 42.6619 199.844 42.2795 199.517 41.9204L181.494 54.3187C181.63 54.8133 181.794 55.2931 181.982 55.7593Z" fill="#FEFCD1"/>
<path d="M173.284 47.896H151.578V14.0892H173.284V47.896Z" fill="#D29869"/>
<path d="M172.106 46.8892H150.4V13.0823H172.106V46.8892Z" fill="#E46D19"/>
<path d="M169.95 44.9126H152.553V15.0587H169.95V44.9126Z" fill="#FEFCD1"/>
<path d="M168.471 42.373H154.033V17.5984H168.471V42.373Z" fill="#FBED81"/>
<path d="M314.431 140.542H295.346V113.819H314.431V140.542Z" fill="#D29869"/>
<path d="M303.046 119.4H299.506V113.819H303.046V119.4Z" fill="#D9E7F7"/>
<path d="M338.969 140.542H308.26V113.819H338.969V140.542Z" fill="#E5B47E"/>
<path d="M311.705 113.819H292.619V87.0962H311.705V113.819Z" fill="#E5B47E"/>
<path d="M299.842 93.0015H296.969V87.0965H299.842V93.0015Z" fill="#D9E7F7"/>
<path d="M336.244 113.819H305.535V87.0962H336.244V113.819Z" fill="#F0CD9A"/>
<path d="M120.651 139.543H102.99V15.7869H112.56C117.028 15.7869 120.651 18.8817 120.651 22.6996V139.543Z" fill="#F7904D"/>
<path d="M119.333 139.543H100.451V15.7869H111.231C115.706 15.7869 119.333 18.8861 119.333 22.7092V139.543Z" fill="#EF4A32"/>
<path d="M113.328 29.5869H22.0566V26.7391H113.328V29.5869Z" fill="#F7904D"/>
<path d="M111.857 29.5869H22.0566V27.3651H111.857V29.5869Z" fill="#EF4A32"/>
<path d="M113.329 29.5872L100.451 36.7744V29.5872H113.329Z" fill="#28171C"/>
<path d="M113.328 66.062H22.0566V63.2142H113.328V66.062Z" fill="#F7904D"/>
<path d="M111.857 66.062H22.0566V63.8402H111.857V66.062Z" fill="#EF4A32"/>
<path d="M113.329 66.0623L100.451 73.2495V66.0623H113.329Z" fill="#28171C"/>
<path d="M113.328 102.538H22.0566V99.6897H113.328V102.538Z" fill="#F7904D"/>
<path d="M111.857 102.538H22.0566V100.316H111.857V102.538Z" fill="#EF4A32"/>
<path d="M113.329 102.537L100.451 109.725V102.537H113.329Z" fill="#28171C"/>
<path d="M113.328 135.004H22.0566V132.157H113.328V135.004Z" fill="#F7904D"/>
<path d="M111.857 135.004H22.0566V132.783H111.857V135.004Z" fill="#EF4A32"/>
<path d="M113.328 135.004L106.921 139.543H100.998V135.004H113.328Z" fill="#28171C"/>
<path d="M40.3948 138.978H22.0938V15.2215H32.3039C36.7723 15.2215 40.3948 18.3163 40.3948 22.1341V138.978Z" fill="#F7904D"/>
<path d="M38.6888 138.978H19.4609V15.2215H30.5866C35.0612 15.2215 38.6888 18.3207 38.6888 22.1438V138.978Z" fill="#EF4A32"/>
<path d="M47.9433 48.0131L42.1348 63.2144H46.7527L50.4865 50.8216L47.9433 48.0131Z" fill="#28171C"/>
<path d="M74.0825 63.2144H49.5322L45.9863 38.4293H70.5362L74.0825 63.2144Z" fill="#28171C"/>
<path d="M72.1226 61.4863H50.9951L47.9434 40.1568H69.0713L72.1226 61.4863Z" fill="#FBED81"/>
<path d="M48.7418 45.7373L56.752 40.157H47.9434L48.7418 45.7373Z" fill="#FEFCD1"/>
<path d="M49.3162 49.7466L62.8684 40.1568H60.2168L49.0723 48.0427L49.3162 49.7466Z" fill="#FEFCD1"/>
<path d="M61.1052 61.4863L71.1097 54.4069L70.8662 52.703L58.4531 61.4863H61.1052Z" fill="#FEFCD1"/>
<path d="M72.1233 61.4863L71.6011 57.8364L66.4434 61.4863H72.1233Z" fill="#FEFCD1"/>
<path d="M86.5109 51.1191C86.0671 51.2389 79.8594 63.2144 79.8594 63.2144C79.8594 63.2144 84.5921 63.2144 84.6658 63.2144C84.7399 63.2144 89.2469 51.1191 89.2469 51.1191H86.5109Z" fill="#28171C"/>
<path d="M99.3026 54.6219C99.6906 59.3672 95.5025 63.2144 89.9479 63.2144C84.3937 63.2144 79.577 59.3672 79.189 54.6219C78.801 49.8765 82.9891 46.0294 88.5437 46.0294C94.0979 46.0294 98.9151 49.8765 99.3026 54.6219Z" fill="#28171C"/>
<path d="M97.7525 54.622C98.0809 58.6347 94.5389 61.8882 89.8418 61.8882C85.1452 61.8882 81.0716 58.6347 80.7437 54.622C80.4158 50.609 83.9573 47.3559 88.6544 47.3559C93.351 47.3559 97.4246 50.609 97.7525 54.622Z" fill="#FBED81"/>
<path d="M88.6544 47.3558C83.9573 47.3558 80.4158 50.6089 80.7437 54.622C80.8305 55.6861 81.187 56.6938 81.7425 57.6045L93.5359 48.612C92.1087 47.8199 90.4264 47.3558 88.6544 47.3558Z" fill="#FEFCD1"/>
<path d="M95.4303 49.9997L83.1758 59.3441C83.4474 59.5943 83.7388 59.8275 84.0446 60.0464L96.1617 50.8066C95.9356 50.526 95.6958 50.2534 95.4303 49.9997Z" fill="#FEFCD1"/>
<path d="M89.8399 61.8882C94.0378 61.8882 97.3035 59.2872 97.7187 55.8706L89.8281 61.8874L89.8399 61.8882Z" fill="#FEFCD1"/>
<path d="M72.5422 95.1704C72.5422 100.399 68.1083 99.6893 62.639 99.6893C57.1702 99.6893 52.7363 100.205 52.7363 95.1704C52.7363 91.6123 55.0154 91.2263 62.639 91.2263C70.6102 91.2263 72.5422 91.6123 72.5422 95.1704Z" fill="#F9A81A"/>
<path d="M63.0514 98.4076C56.0579 98.5142 53.829 95.3765 52.9714 93.5604C52.81 94.0077 52.7363 94.5384 52.7363 95.1705C52.7363 100.205 57.1697 99.6894 62.639 99.6894C67.2648 99.6894 71.1493 100.196 72.2377 97.1895C70.2424 97.7947 67.2887 98.3431 63.0514 98.4076Z" fill="#E46D19"/>
<path d="M70.2375 92.3081C70.2375 92.6243 66.8358 92.8809 62.6393 92.8809C58.4433 92.8809 55.041 92.6243 55.041 92.3081C55.041 91.9914 58.4433 91.7349 62.6393 91.7349C66.8358 91.7349 70.2375 91.9914 70.2375 92.3081Z" fill="#26171E"/>
<path d="M61.3436 92.8809C61.4393 91.4555 62.387 90.0362 61.8888 88.6734C61.6378 87.9868 60.9936 87.4509 60.691 86.7795C60.1346 85.547 60.8219 84.1236 60.4049 82.8514C60.1834 82.176 59.6434 81.5808 58.9336 81.2293C58.5804 81.0541 58.176 80.9291 57.9156 80.6605C57.6791 80.416 57.5952 80.0841 57.3592 79.8392C57.0951 79.5658 56.678 79.438 56.2717 79.3662C54.8601 79.1177 53.3274 79.4268 52.1953 80.1887C52.9276 79.6829 54.1976 79.9651 54.549 80.7118C54.7916 81.2273 54.6353 81.8473 54.9558 82.3307C55.3569 82.9356 56.3135 83.0691 56.9074 83.5444C57.3184 83.8735 57.5342 84.3721 57.4718 84.8507C57.3972 85.4211 56.9571 85.9382 56.9801 86.5117C57.0162 87.4108 58.1103 87.9703 58.6592 88.7379C59.0678 89.3099 59.1659 90.037 58.9196 90.6731C58.6446 91.3838 57.9616 92.0319 58.1023 92.7702C59.3652 92.8275 60.5451 92.8756 61.3436 92.8809Z" fill="#194231"/>
<path d="M60.7519 88.7482C60.3419 87.3557 58.9696 86.7224 59.0888 85.1243C59.1258 84.6269 59.2183 84.1054 59.0067 83.6248C58.7651 83.0761 58.2617 82.933 57.8071 82.5346C56.8904 81.7301 56.6506 80.5605 55.247 80.2359L55.2324 80.2811C56.6291 80.6796 56.8665 82.1113 57.8549 82.9082C58.4461 83.3851 58.7777 83.4545 58.8495 84.2726C58.8688 84.4942 58.8294 84.7195 58.8129 84.9399C58.774 85.4758 58.7257 85.9648 58.948 86.4755C59.3492 87.3958 60.3841 88.0776 60.4976 89.0897C60.6257 90.2328 59.6879 91.2253 59.7751 92.3829C59.7878 92.5508 60.096 92.552 60.0829 92.3829C59.9858 91.1255 61.1235 90.0108 60.7519 88.7482Z" fill="#236637"/>
<path d="M63.4696 92.8809C62.9128 91.9169 62.3029 90.724 62.703 89.7051C62.9864 88.9824 63.7155 88.4409 64.0302 87.7278C64.2906 87.139 64.2451 86.4897 64.2681 85.8604C64.2916 85.2311 64.4103 84.5581 64.9132 84.098C65.3884 83.6635 66.1217 83.4991 66.6293 83.0919C67.4663 82.4197 67.4733 81.3062 67.8927 80.3923C68.3412 79.4155 69.3302 78.6319 70.5035 78.3229C71.6773 78.0143 73.0111 78.187 74.0249 78.779C72.9886 78.9233 72.0287 79.4332 71.4188 80.1631C70.8084 80.893 70.5556 81.8337 70.7315 82.7179C70.7826 82.9733 70.8676 83.2314 70.8216 83.4875C70.6893 84.2234 69.6482 84.4992 68.9802 84.9774C68.3323 85.4415 67.9973 86.2047 68.1282 86.9186C68.2497 87.5799 68.7362 88.2465 68.459 88.873C68.253 89.3372 67.6952 89.6009 67.2786 89.9464C66.4018 90.6731 66.125 91.8471 66.6584 92.7859C65.7576 92.8404 64.6584 92.8668 63.4696 92.8809Z" fill="#194231"/>
<path d="M71.7673 78.9734C70.4476 79.3165 69.4558 80.1795 69.1387 81.3391C69.0589 81.6313 69.0842 81.9102 69.0331 82.2028C68.9092 82.9143 68.4725 83.2967 67.8199 83.6638C67.2846 83.9649 66.8286 84.3372 66.5086 84.815C66.1774 85.3108 66.093 85.7878 66.0864 86.349C66.0789 87.0288 66.1971 87.5747 65.6548 88.1407C65.4484 88.3563 65.2077 88.5495 65.0341 88.7876C64.2267 89.8979 64.5265 91.3521 65.1317 92.4708C65.2293 92.6515 65.5422 92.494 65.4446 92.3141C65.0149 91.5196 64.7658 90.6021 64.9881 89.7279C65.1674 89.0253 65.6783 88.673 66.1385 88.1262C66.4472 87.7595 66.5602 87.4761 66.5654 87.028C66.5757 86.1097 66.3552 85.4547 67.0908 84.6451C67.7233 83.9484 69.0631 83.7123 69.308 82.7816C69.483 82.1179 69.2184 81.5443 69.5238 80.8609C69.9235 79.9682 70.7398 79.3461 71.7846 79.0279L71.7673 78.9734Z" fill="#236637"/>
<path d="M60.8272 92.8644C60.1259 92.0367 59.9837 90.9389 60.3079 89.9552C60.5063 89.3528 61.0351 88.8714 61.3212 88.2954C62.009 86.9126 61.1983 85.3626 60.8619 83.8879C60.763 83.4542 60.7099 82.9893 60.915 82.5837C61.2842 81.853 62.359 81.5463 62.7868 80.8389C63.0528 80.3992 63.0242 79.8777 63.1232 79.3899C63.3404 78.3157 64.2023 77.3894 65.2719 76.7949C66.3415 76.2009 67.6049 75.9075 68.8674 75.7508C69.1283 76.168 68.5385 76.5773 68.0938 76.8591C66.9078 77.6106 66.2731 78.9498 66.5128 80.1947C66.5888 80.5871 66.7441 80.9743 66.7206 81.372C66.6357 82.8021 64.4044 83.5468 64.1483 84.9626C63.9067 86.2969 65.5243 87.3607 65.788 88.6918C65.9081 89.2979 65.7242 89.9432 65.2916 90.4342C64.9698 90.7998 64.525 91.0755 64.2037 91.4407C63.8818 91.8063 63.8865 92.4832 64.1736 92.8688C63.0805 92.9518 61.9067 92.9482 60.8272 92.8644Z" fill="#1F6430"/>
<path d="M67.1331 76.6599C65.8125 77.3381 64.7124 78.4187 64.3563 79.7214C64.1048 80.6409 64.4595 81.5968 63.8703 82.447C63.4508 83.0518 62.7814 83.5064 62.4314 84.1517C61.5902 85.7013 63.4508 87.1166 62.7753 88.6862C62.1841 90.0591 61.5836 91.1028 62.6378 92.4704C62.7781 92.6524 63.1206 92.4852 62.9826 92.2981C62.2817 91.3433 62.2977 90.423 62.8405 89.4133C63.0605 89.0041 63.3209 88.6197 63.387 88.1627C63.6038 86.6568 61.9449 85.4608 63.0295 83.9805C63.7187 83.0402 64.6401 82.4738 64.6181 81.2782C64.6007 80.311 64.4445 79.5682 65.0093 78.6724C65.5254 77.8539 66.3225 77.2795 67.1904 76.7436C67.2486 76.708 67.197 76.627 67.1331 76.6599Z" fill="#1A4827"/>
<mask id="mask0_201_426" style="mask-type:luminance" maskUnits="userSpaceOnUse" x="225" y="154" width="88" height="8">
<path d="M269.226 161.427C245.321 161.427 225.941 159.973 225.941 158.179C225.941 156.386 245.321 154.931 269.226 154.931C293.132 154.931 312.511 156.386 312.511 158.179C312.511 159.973 293.132 161.427 269.226 161.427Z" fill="white"/>
</mask>
<g mask="url(#mask0_201_426)">
<path d="M225.941 161.427H312.511V154.931H225.941V161.427Z" fill="#B6CCED"/>
</g>
<path d="M287.647 147.505C287.647 147.505 284.784 157.082 286.822 157.804C288.86 158.527 294.199 149.568 295.284 148.186C296.368 146.805 299.831 142.891 298.603 142.299C297.375 141.706 293.445 140.178 293.445 140.178L287.647 147.505Z" fill="#F9A81A"/>
<path d="M287.647 147.504C287.647 147.504 287.367 148.44 287.045 149.749C288.162 149.59 289.886 149.302 290.102 149.011C290.413 148.591 290.926 143.641 290.959 143.318L287.647 147.504Z" fill="#C2523D"/>
<path d="M298.603 142.299C298.383 142.192 298.075 142.056 297.72 141.903C296.104 144.813 291.582 152.52 286.416 157.45C286.522 157.619 286.654 157.744 286.822 157.804C288.86 158.527 294.199 149.568 295.284 148.186C296.368 146.805 299.831 142.891 298.603 142.299Z" fill="#E46D19"/>
<path d="M233.708 90.9677C233.708 90.9677 231.759 93.5767 234.14 93.9887C236.06 94.3214 235.752 93.7398 235.752 93.7398C235.752 93.7398 237.314 94.612 238.05 93.9386C238.05 93.9386 239.822 94.3519 240.064 93.7615C240.064 93.7615 241.083 93.9924 241.561 93.5635C242.093 93.0877 240.296 91.5125 240.296 91.5125L233.708 90.9677Z" fill="#C2523D"/>
<path d="M234.671 92.6971C234.593 92.6727 234.539 92.7817 234.614 92.8118C235.088 93.0042 235.422 93.2763 235.676 93.6699L235.747 93.6443C235.583 93.2182 235.162 92.855 234.671 92.6971Z" fill="#26171E"/>
<path d="M237.688 93.0884C237.403 92.896 237.099 92.6255 236.708 92.674C236.594 92.688 236.641 92.8415 236.757 92.8235C237.041 92.7798 237.321 93.0127 237.534 93.1462C237.831 93.3325 238.027 93.5005 238.053 93.8308C238.056 93.8668 238.109 93.8704 238.124 93.8388C238.273 93.5313 237.943 93.2616 237.688 93.0884Z" fill="#26171E"/>
<path d="M238.734 92.4464C238.635 92.4048 238.549 92.5262 238.647 92.5743C238.944 92.721 239.241 92.8589 239.497 93.0577C239.738 93.2449 239.885 93.4605 240.049 93.695C240.082 93.7423 240.166 93.7111 240.152 93.6581C239.999 93.101 239.297 92.6825 238.734 92.4464Z" fill="#26171E"/>
<path d="M262.455 55.0181C262.455 55.0181 259.976 55.8174 257.776 58.1927C255.576 60.5676 251.418 73.703 249.616 75.1833C247.814 76.6639 237.602 88.4081 237.602 88.4081L242.731 91.1714C242.731 91.1714 256.372 80.7102 257.868 78.4404C259.365 76.1701 268.203 58.0452 262.455 55.0181Z" fill="#C2523D"/>
<path d="M262.455 55.0177C262.455 55.0177 259.975 55.8174 257.775 58.1927C255.881 60.2373 252.536 70.2591 250.492 73.9503L250.989 75.3047L260.296 73.6493C263.109 67.3816 266.63 57.217 262.455 55.0177Z" fill="#E46D19"/>
<path d="M254.532 87.3175C251.778 94.6422 251.011 127.627 249.617 152.531L259.969 152.563L264.886 103.074C264.886 103.074 264.648 125.684 269.702 130.63C274.757 135.576 287.614 147.639 287.614 147.639C289.892 146.01 291.833 143.282 293.687 140.27C293.687 140.27 281.685 129.605 279.371 122.734C277.164 116.184 280.521 92.5511 279.049 86.2365L254.532 87.3175Z" fill="#28171C"/>
<path d="M292.448 139.72L292.569 139.755L292.457 139.701L292.448 139.72L292.569 139.755L292.457 139.701C292.454 139.708 292.415 139.756 292.36 139.819C291.933 140.305 290.418 141.861 289.017 143.286C288.316 144 287.642 144.682 287.143 145.186C286.645 145.69 286.322 146.015 286.321 146.016C286.237 146.1 286.25 146.226 286.349 146.298C286.447 146.37 286.595 146.36 286.679 146.275C286.679 146.275 288.198 144.745 289.73 143.185C290.495 142.404 291.264 141.616 291.848 141.007C292.14 140.703 292.386 140.443 292.563 140.251C292.652 140.154 292.723 140.075 292.775 140.013L292.841 139.933C292.86 139.907 292.873 139.895 292.893 139.847C292.934 139.742 292.868 139.628 292.745 139.594C292.622 139.559 292.489 139.615 292.448 139.72Z" fill="#5B3D50"/>
<path d="M249.949 151.326H259.632C259.762 151.326 259.867 151.236 259.867 151.125C259.867 151.015 259.762 150.925 259.632 150.925H249.949C249.819 150.925 249.715 151.015 249.715 151.125C249.715 151.236 249.819 151.326 249.949 151.326Z" fill="#5B3D50"/>
<path d="M277.175 86.9C277.175 87.1802 276.613 120.405 276.5 123.179L276.5 123.218C276.505 123.646 276.753 124.196 277.163 124.884C278.604 127.278 282.154 131.261 285.352 134.662C288.549 138.061 291.391 140.868 291.392 140.869C291.476 140.953 291.624 140.962 291.722 140.89C291.82 140.817 291.831 140.691 291.746 140.607C291.746 140.606 291.515 140.378 291.11 139.972C289.692 138.552 286.144 134.959 282.954 131.411C281.359 129.637 279.854 127.875 278.751 126.405C278.2 125.67 277.749 125.008 277.439 124.459C277.128 123.912 276.965 123.469 276.969 123.218L276.97 123.194C277.082 120.4 277.644 87.1962 277.644 86.9C277.644 86.7894 277.539 86.6996 277.409 86.6996C277.28 86.6996 277.175 86.7894 277.175 86.9Z" fill="#5B3D50"/>
<path d="M265.687 88.1283C265.687 88.1319 264.911 95.4129 264.91 98.3249C264.91 98.6171 264.918 98.8664 264.936 99.064C264.946 99.1742 265.058 99.2572 265.187 99.2484C265.317 99.24 265.414 99.1438 265.404 99.0331C265.387 98.8524 265.379 98.6111 265.379 98.3249C265.379 96.8927 265.573 94.3475 265.766 92.1666C265.863 91.0759 265.96 90.0751 266.033 89.3472C266.106 88.6193 266.154 88.1656 266.154 88.1644C266.166 88.0541 266.07 87.9567 265.941 87.9467C265.812 87.9367 265.698 88.018 265.687 88.1283Z" fill="#5B3D50"/>
<path d="M262.852 88.7722C262.852 88.7774 262.389 91.2192 262.389 93.0249C262.389 93.4775 262.417 93.8903 262.494 94.2254C262.532 94.3934 262.583 94.5421 262.655 94.6703C262.726 94.7978 262.822 94.9104 262.966 94.983C264.054 95.5189 265.108 95.583 265.128 95.5854C265.257 95.5934 265.37 95.5105 265.379 95.3998C265.388 95.2896 265.291 95.1934 265.162 95.1854L265.124 95.1822C264.933 95.1653 264.064 95.0627 263.201 94.6358C263.173 94.623 263.124 94.5813 263.077 94.4972C263.007 94.3721 262.946 94.1653 262.91 93.9112C262.874 93.6562 262.857 93.3528 262.858 93.0249C262.857 92.1495 262.972 91.099 263.086 90.2709C263.144 89.8564 263.201 89.4973 263.244 89.2419C263.287 88.9862 263.315 88.8363 263.315 88.8359C263.336 88.7265 263.249 88.6239 263.121 88.6062C262.993 88.5886 262.873 88.6627 262.852 88.7722Z" fill="#5B3D50"/>
<path d="M276.16 53.451C276.748 52.7416 287.326 53.451 288.436 57.4128C289.402 60.8663 282.69 72.1227 280.561 81.8692C279.991 84.4789 280.094 88.3661 280.094 88.3661C269.972 89.9021 259.033 89.5349 253.986 87.825C253.986 87.825 257.966 56.5198 262.455 55.0183C266.945 53.5168 269.972 53.6182 271.618 53.451C273.263 53.2843 276.16 53.451 276.16 53.451Z" fill="#F9A81A"/>
<path d="M288.372 59.5732L279.858 61.5156C279.13 62.8396 269.289 80.5063 254.978 80.9537C254.349 84.9739 253.986 87.825 253.986 87.825C259.033 89.5349 269.972 89.9021 280.094 88.3661C280.094 88.3661 279.99 84.4789 280.561 81.8692C282.357 73.6486 287.412 64.3543 288.372 59.5732Z" fill="#E46D19"/>
<path d="M276.705 46.7255C276.991 47.7801 277.705 53.5796 277.705 53.5796L269.748 57.4131V51.7334L276.705 46.7255Z" fill="#C2523D"/>
<path d="M269.748 53.4512C273.476 53.1502 275.182 49.0778 275.316 48.8192L274.576 48.2581L269.748 51.7332V53.4512Z" fill="#26171E"/>
<path d="M265.208 46.7206C265.237 48.0257 264.319 49.0161 263.157 48.9331C261.996 48.8498 261.032 47.7246 261.003 46.42C260.974 45.1149 261.892 44.1244 263.053 44.2074C264.214 44.2908 265.179 45.4159 265.208 46.7206Z" fill="#AE3831"/>
<path d="M277.685 44.5281C277.375 48.9175 273.504 52.2893 269.039 52.0592C264.573 51.8291 263.059 48.2153 262.565 43.8379C261.739 36.5144 265.696 35.9332 270.161 36.1633C274.627 36.3937 277.996 40.1387 277.685 44.5281Z" fill="#C2523D"/>
<path d="M276.85 45.4806C276.85 45.4806 275.714 43.1778 274.503 42.4752C272.866 41.5252 272.669 39.1992 272.669 39.1992L262.543 40.3111C262.543 40.3111 260.701 39.9079 261.266 38.8838C261.831 37.8597 262.543 38.2204 262.543 38.2204C262.543 38.2204 261.73 36.6043 262.705 36.0455C263.68 35.4868 264.755 35.9914 264.755 35.9914C264.755 35.9914 264.666 34.14 266.129 33.948C267.592 33.7552 268.07 34.5998 268.07 34.5998C268.07 34.5998 268.608 33.4241 269.866 33.6073C271.125 33.7909 271.337 34.6703 271.337 34.6703C271.337 34.6703 272.231 33.4358 273.796 34.033C275.36 34.6298 274.992 35.6086 274.992 35.6086C274.992 35.6086 276.12 35.1461 277.048 35.6872C277.976 36.2283 277.523 37.4164 277.523 37.4164C277.523 37.4164 278.896 37.0263 279.542 38.1162C280.187 39.206 278.501 40.7685 278.501 40.7685C278.501 40.7685 279.855 41.0025 279.858 42.0723C279.86 43.1425 278.668 43.7061 278.668 43.7061C278.668 43.7061 279.769 45.58 276.85 45.4806Z" fill="#26171E"/>
<path d="M280.204 45.6658C279.943 46.926 278.787 47.8066 277.623 47.6323C276.459 47.4583 275.727 46.2951 275.988 45.0349C276.249 43.7743 277.405 42.8941 278.569 43.0681C279.734 43.2424 280.465 44.4052 280.204 45.6658Z" fill="#C2523D"/>
<path d="M270.047 44.0175C270.12 44.355 269.953 44.6644 269.674 44.7085C269.394 44.753 269.108 44.5153 269.035 44.1778C268.962 43.8403 269.129 43.5309 269.409 43.4864C269.688 43.4423 269.974 43.68 270.047 44.0175Z" fill="#26171E"/>
<path d="M264.838 44.7569C264.897 45.0964 264.716 45.4003 264.435 45.4355C264.154 45.4712 263.878 45.2247 263.82 44.8852C263.761 44.5453 263.942 44.2415 264.223 44.2062C264.504 44.1705 264.78 44.4174 264.838 44.7569Z" fill="#26171E"/>
<path d="M268.396 42.2415C268.814 41.9842 269.382 41.8828 269.911 41.884C270.215 41.8836 270.503 41.9169 270.724 41.9614C270.834 41.9834 270.927 42.0083 270.993 42.0303L271.069 42.0592L271.086 42.0672L271.087 42.0684L271.127 42.0199L271.084 42.0664L271.087 42.0684L271.127 42.0199L271.084 42.0664C271.288 42.2031 271.583 42.1722 271.743 41.9978C271.903 41.8235 271.867 41.5718 271.663 41.4351C271.557 41.3657 271.454 41.3249 271.336 41.2844C270.986 41.1685 270.487 41.084 269.911 41.0824C269.254 41.0832 268.497 41.1978 267.851 41.5886C267.64 41.7173 267.591 41.9674 267.742 42.1478C267.892 42.3281 268.185 42.3698 268.396 42.2415Z" fill="#26171E"/>
<path d="M265.047 42.0382C264.805 41.9488 264.537 41.9124 264.252 41.9116C263.929 41.912 263.585 41.9613 263.254 42.0775C262.925 42.1933 262.605 42.3801 262.375 42.6615C262.227 42.8431 262.279 43.0932 262.492 43.2199C262.704 43.3465 262.997 43.302 263.145 43.1205C263.249 42.9922 263.411 42.8896 263.613 42.8186C263.812 42.7477 264.046 42.7128 264.252 42.7132C264.433 42.712 264.592 42.7421 264.669 42.7721C264.906 42.8611 265.183 42.7693 265.287 42.5665C265.392 42.3637 265.284 42.1272 265.047 42.0382Z" fill="#26171E"/>
<path d="M265.722 43.4502L265.896 43.4129L265.717 43.4282L265.722 43.4502L265.896 43.4129L265.717 43.4282V43.429C265.718 43.4434 265.719 43.4971 265.719 43.5689C265.719 43.6274 265.719 43.7007 265.719 43.7845C265.719 44.1785 265.724 44.8114 265.789 45.3882C265.822 45.6772 265.869 45.9518 265.942 46.1826C265.979 46.2981 266.022 46.4031 266.078 46.4961C266.135 46.5887 266.203 46.6729 266.309 46.7354C266.552 46.8789 266.817 46.9262 267.049 46.9258C267.512 46.9234 267.858 46.7522 267.877 46.745C267.99 46.6905 268.03 46.5682 267.966 46.472C267.903 46.3754 267.76 46.3414 267.647 46.3955V46.3959C267.629 46.4055 267.348 46.527 267.049 46.525C266.888 46.5246 266.727 46.4945 266.574 46.4051C266.563 46.3995 266.529 46.3698 266.495 46.3125C266.434 46.2131 266.375 46.0404 266.332 45.8343C266.199 45.2131 266.187 44.2952 266.188 43.7845C266.188 43.7011 266.188 43.6286 266.188 43.5689C266.188 43.5208 266.188 43.4811 266.187 43.4502L266.186 43.4085L266.177 43.3528C266.146 43.2454 266.018 43.1801 265.892 43.2069C265.767 43.2338 265.69 43.3428 265.722 43.4502Z" fill="#26171E"/>
<path d="M267.172 47.6527C268.762 47.518 270.075 46.6134 271.13 45.8322C271.13 45.8322 272.676 48.6804 270.264 49.4023C268.571 49.9094 267.172 47.6527 267.172 47.6527Z" fill="#FFFCF2"/>
<path d="M267.171 93.0015H242.854V62.5528H267.171V93.0015Z" fill="#D29869"/>
<path d="M257.923 68.8911H253.35V62.5525H257.923V68.8911Z" fill="#D9E7F7"/>
<path d="M225.941 93.0015H242.855V62.5528H225.941V93.0015Z" fill="#E5B47E"/>
<path d="M281.196 56.1969C282.401 55.004 287.157 53.4091 288.434 57.413C289.712 61.4164 287.429 75.0188 283.126 79.5863C278.823 84.1537 263.494 90.0005 263.494 90.0005L259.709 86.7097C259.709 86.7097 274.796 76.5227 275.317 75.186C275.839 73.8492 278.06 59.3009 281.196 56.1969Z" fill="#C2523D"/>
<path d="M276.742 71.2727C276.742 71.2727 280.74 74.0212 286.084 74.4136C286.749 72.7033 287.304 70.8102 287.735 68.9078L281.462 68.3531L276.742 71.2727Z" fill="#26171E"/>
<path d="M260.012 86.4441C259.961 86.3511 256.621 85.9258 255.229 87.3925C253.836 88.8595 251.291 89.8792 251.917 90.4251C252.543 90.971 254.248 90.4315 254.248 90.4315C254.248 90.4315 250.966 93.0794 251.836 93.8462C252.706 94.6129 253.86 93.8441 253.86 93.8441C253.86 93.8441 253.962 95.0626 255.1 94.9003C256.239 94.7376 256.905 94.3119 256.905 94.3119C256.905 94.3119 256.83 95.0779 257.652 95.0182C258.475 94.9584 259.374 94.1376 259.374 94.1376C259.374 94.1376 259.488 94.5917 260.886 94.1865C262.283 93.7812 264.048 89.5445 264.048 89.5445L260.012 86.4441Z" fill="#C2523D"/>
<path d="M281.198 56.1967C278.834 58.5368 276.99 67.3798 276.002 72.1644C278.539 72.5468 284.295 73.136 288.167 72.9484C289.35 67.0186 289.299 60.1156 288.437 57.4128C287.159 53.409 282.403 55.0039 281.198 56.1967Z" fill="#F9A81A"/>
<path d="M249.616 152.531C249.616 152.531 238.713 155.834 239.145 157.683C239.578 159.531 251.261 158.33 253.207 158.33C255.154 158.33 260.888 158.607 260.779 157.406C260.672 156.204 259.968 152.564 259.968 152.564L249.616 152.531Z" fill="#F9A81A"/>
<path d="M249.616 152.532C249.616 152.532 247.844 153.069 245.756 153.831C246.675 154.326 248.183 155.074 248.65 154.908C249.105 154.746 251.54 153.349 252.933 152.542L249.616 152.532Z" fill="#C2523D"/>
<path d="M253.207 158.33C255.154 158.33 260.887 158.607 260.779 157.406C260.761 157.207 260.726 156.942 260.682 156.638C250.997 158.175 242.863 157.656 239.219 157.272C239.145 157.415 239.114 157.553 239.144 157.683C239.577 159.531 251.26 158.33 253.207 158.33Z" fill="#E46D19"/>
<path d="M112.848 174.854C77.1077 174.854 48.1348 173.281 48.1348 171.341C48.1348 169.401 77.1077 167.829 112.848 167.829C148.588 167.829 177.561 169.401 177.561 171.341C177.561 173.281 148.588 174.854 112.848 174.854Z" fill="#B6CCED"/>
<path d="M137.428 124.714C137.428 124.714 138.005 123.335 138.919 123.015C139.833 122.695 143.56 121.513 145.227 121.705C146.895 121.896 147.876 123.066 147.851 123.199C147.826 123.332 146.355 123.926 146.355 123.926C146.355 123.926 148.636 124.595 148.636 125.494C148.636 126.394 147.164 125.954 147.164 125.954C147.164 125.954 147.581 126.375 147.336 126.758C147.091 127.141 146.11 127.083 146.11 127.083C146.11 127.083 146.429 127.504 145.914 127.772C145.399 128.04 143.241 126.911 142.922 126.93C142.922 126.93 141.304 127.43 139.955 127.18C138.607 126.93 137.428 124.714 137.428 124.714Z" fill="#C2523D"/>
<path d="M121.736 122.55C121.736 122.55 123.153 126.702 123.755 126.731C124.356 126.76 138.423 123.405 138.423 123.405L140.266 126.913C140.266 126.913 121.115 135.18 119.012 134.057C116.91 132.935 112.848 124.867 112.848 124.867L121.736 122.55Z" fill="#C2523D"/>
<path d="M119.892 124.439L113.074 125.308C113.321 125.784 113.754 126.604 114.292 127.563L119.892 124.439Z" fill="#26171E"/>
<path d="M115.719 112.211C115.719 112.211 117.499 113.874 118.344 115.285C119.19 116.696 122.677 123.455 122.677 123.455L113.409 126.731C113.409 126.731 111.147 114.39 115.719 112.211Z" fill="#E46D19"/>
<path d="M143.216 109.385L143.73 110.104C143.764 110.152 143.836 110.166 143.891 110.138C143.946 110.109 143.964 110.047 143.93 110L143.417 109.281C143.383 109.233 143.311 109.219 143.255 109.247C143.2 109.276 143.183 109.338 143.216 109.385Z" fill="#8BD03D"/>
<path d="M149.893 110.825L149.131 111.31C149.079 111.344 149.069 111.406 149.107 111.451C149.146 111.495 149.219 111.504 149.271 111.471L150.033 110.986C150.085 110.953 150.096 110.89 150.057 110.846C150.018 110.801 149.945 110.792 149.893 110.825Z" fill="#8BD03D"/>
<path d="M150.422 115.207L149.503 115.215C149.438 115.215 149.386 115.261 149.387 115.316C149.387 115.371 149.44 115.415 149.505 115.415L150.424 115.407C150.489 115.406 150.541 115.361 150.54 115.306C150.54 115.25 150.487 115.206 150.422 115.207" fill="#8BD03D"/>
<path d="M149.666 117.673L148.757 117.547C148.693 117.538 148.633 117.576 148.623 117.63C148.612 117.685 148.656 117.736 148.72 117.745L149.629 117.871C149.693 117.88 149.753 117.842 149.764 117.788C149.774 117.733 149.731 117.682 149.666 117.673Z" fill="#8BD03D"/>
<path d="M141.494 111.725L142.348 112.046C142.407 112.068 142.476 112.045 142.502 111.994C142.528 111.944 142.502 111.885 142.442 111.862L141.588 111.541C141.529 111.519 141.46 111.542 141.434 111.592C141.408 111.643 141.434 111.702 141.494 111.725Z" fill="#8BD03D"/>
<path d="M141.24 115.771L142.159 115.744C142.224 115.742 142.274 115.696 142.272 115.64C142.27 115.585 142.216 115.542 142.151 115.543L141.232 115.571C141.168 115.573 141.117 115.619 141.119 115.674C141.121 115.73 141.176 115.773 141.24 115.771Z" fill="#8BD03D"/>
<path d="M143.238 119.257C143.238 119.257 140.909 114.986 141.814 111.958C142.536 109.541 144.578 109.122 146.755 109.414C148.933 109.706 149.905 111.134 150.129 113.029C150.406 115.37 147.965 119.507 147.965 119.507L143.238 119.257Z" fill="#1F6430"/>
<path d="M147.077 110.6L147.078 110.601C147.104 110.638 147.83 111.65 147.831 113.752C147.831 115.062 147.548 116.797 146.633 118.984C146.589 119.088 146.653 119.203 146.775 119.24C146.897 119.277 147.031 119.223 147.074 119.119C148.006 116.893 148.3 115.112 148.3 113.752C148.3 111.499 147.492 110.41 147.472 110.383C147.401 110.29 147.256 110.263 147.148 110.323C147.038 110.383 147.007 110.507 147.077 110.6Z" fill="#194231"/>
<path d="M144.564 110.193C144.537 110.222 143.517 111.378 143.518 113.977C143.518 115.276 143.771 116.934 144.526 118.994C144.564 119.099 144.696 119.158 144.819 119.125C144.943 119.092 145.012 118.979 144.973 118.874C144.232 116.849 143.987 115.231 143.987 113.977C143.987 112.722 144.232 111.831 144.472 111.256C144.592 110.969 144.711 110.761 144.799 110.626C144.842 110.559 144.879 110.51 144.902 110.479L144.929 110.445L144.935 110.438L144.935 110.438C145.015 110.35 144.995 110.224 144.893 110.157C144.79 110.089 144.643 110.106 144.564 110.193Z" fill="#194231"/>
<path d="M147.62 110.812L148.387 110.333C148.439 110.3 148.45 110.237 148.412 110.193C148.374 110.148 148.3 110.138 148.248 110.171L147.482 110.65C147.429 110.683 147.418 110.745 147.456 110.79C147.494 110.835 147.568 110.844 147.62 110.812Z" fill="#8BD03D"/>
<path d="M143.379 110.534L144.096 111.078C144.144 111.115 144.218 111.111 144.261 111.069C144.304 111.028 144.3 110.965 144.252 110.928L143.535 110.384C143.486 110.348 143.412 110.351 143.37 110.393C143.326 110.434 143.331 110.498 143.379 110.534Z" fill="#8BD03D"/>
<path d="M142.842 114.217L143.746 114.374C143.81 114.384 143.872 114.349 143.884 114.295C143.897 114.241 143.856 114.188 143.792 114.177L142.888 114.021C142.825 114.01 142.763 114.045 142.75 114.099C142.737 114.153 142.779 114.206 142.842 114.217Z" fill="#8BD03D"/>
<path d="M143.153 117.514L144.071 117.486C144.136 117.484 144.187 117.437 144.184 117.382C144.182 117.327 144.128 117.283 144.063 117.285L143.144 117.314C143.08 117.316 143.029 117.362 143.031 117.417C143.034 117.473 143.088 117.516 143.153 117.514Z" fill="#8BD03D"/>
<path d="M148.227 114.002L149.075 113.668C149.134 113.644 149.16 113.585 149.133 113.535C149.105 113.484 149.035 113.462 148.977 113.486L148.129 113.82C148.07 113.843 148.044 113.903 148.071 113.953C148.099 114.003 148.169 114.025 148.227 114.002Z" fill="#8BD03D"/>
<path d="M147.76 116.885L148.655 116.691C148.718 116.677 148.756 116.623 148.74 116.569C148.725 116.515 148.661 116.483 148.598 116.497L147.702 116.69C147.639 116.704 147.601 116.758 147.617 116.812C147.633 116.866 147.697 116.898 147.76 116.885Z" fill="#8BD03D"/>
<path d="M146.078 119.849H142.24C141.586 119.849 141.104 120.356 141.254 120.884L142.595 125.6C142.703 125.98 143.111 126.249 143.58 126.249H145.675H146.078H148.173C148.643 126.249 149.05 125.98 149.159 125.6L150.499 120.884C150.649 120.356 150.167 119.849 149.514 119.849H146.078Z" fill="#ED4B34"/>
<path d="M141.236 120.755C141.241 120.798 141.242 120.841 141.255 120.884L141.572 122H150.182L150.5 120.884C150.512 120.841 150.514 120.798 150.518 120.755C150.476 120.261 150.057 119.849 149.514 119.849H146.079H145.675H142.24C141.697 119.849 141.279 120.261 141.236 120.755Z" fill="#DF3830"/>
<path d="M150.05 121.234H141.705C141.201 121.234 140.791 120.884 140.791 120.452V119.246C140.791 118.815 141.201 118.465 141.705 118.465H150.05C150.555 118.465 150.964 118.815 150.964 119.246V120.452C150.964 120.884 150.555 121.234 150.05 121.234Z" fill="#ED4B34"/>
<path d="M144.717 120.662C144.717 120.662 144.832 121.261 143.489 121.999C142.146 122.736 141.954 122.917 141.954 122.917L141.898 124.04C141.898 124.04 141.564 123.83 141.431 123.437C141.298 123.043 140.991 122.453 141.528 122.092C142.066 121.732 143.812 120.445 144.717 120.662Z" fill="#DF3830"/>
<path d="M138.145 123.607C138.145 123.607 138.181 122.014 140.28 121.199C142.379 120.383 144.716 119.782 144.716 120.662C144.716 121.203 141.634 122.665 141.634 122.665C141.634 122.665 142.056 124.644 141.28 125.266" fill="#C2523D"/>
<path d="M108.131 146.374C108.454 146.483 120.483 166.497 114.455 168.963C110.379 170.63 78.8438 167.545 78.8438 167.545L79.9908 162.788C89.9048 161.39 96.3344 160.298 102.073 162.052L92.9983 152.568L108.131 146.374Z" fill="#B13D37"/>
<path d="M98.2208 158.024C99.7394 154.657 105.941 150.509 106.346 150.416L97.9046 152.726L96.0801 155.787L98.2208 158.024Z" fill="#26171E"/>
<path d="M103.273 163.6L102.073 162.053C101.159 161.773 100.224 161.573 99.2637 161.428L103.273 163.6Z" fill="#26171E"/>
<path d="M81.7938 163.686C81.7938 163.686 81.79 163.558 81.775 163.344C81.6962 162.233 81.296 158.809 79.365 159.096C77.063 159.439 73.8559 162.727 72.8941 162.932C71.9319 163.138 69.9188 161.891 66.1507 164.768C62.382 167.645 63.4095 168.358 65.5094 168.056C69.0486 167.546 78.5764 167.47 79.4589 167.542" fill="#C2523D"/>
<path d="M79.365 159.096C77.063 159.439 74.1773 161.594 73.0729 162.13C72.2101 162.548 69.9188 161.891 66.1507 164.768C62.382 167.645 63.4095 168.358 65.5094 168.056C66.5387 167.908 68.0756 167.796 69.7579 167.714C71.7279 166.663 75.702 165.315 78.1448 164.717C81.3392 163.935 81.6929 162.547 81.6929 162.547V162.546C81.5001 161.112 80.9456 158.861 79.365 159.096Z" fill="#E46D19"/>
<path d="M90.2433 129.704C90.2433 129.704 81.9165 133.605 84.2247 140.507C86.5324 147.408 94.5172 155.06 94.5172 155.06L110.025 148.972L103.522 139.766L90.2433 129.704Z" fill="#211419"/>
<path d="M90.8477 131.302C90.835 131.307 89.5439 131.739 88.2407 132.626C87.589 133.071 86.9332 133.63 86.4368 134.311C85.9404 134.992 85.605 135.8 85.6055 136.723C85.6055 137.14 85.6735 137.579 85.8227 138.04C86.5517 140.279 88.859 143.764 90.988 146.714C93.1165 149.659 95.0658 152.054 95.0672 152.056C95.1413 152.147 95.2872 152.169 95.3937 152.106C95.5002 152.043 95.5265 151.918 95.4523 151.827C95.4519 151.827 95.3313 151.679 95.116 151.409C94.3625 150.465 92.4573 148.043 90.5868 145.38C88.7168 142.721 86.8811 139.809 86.2749 137.933C86.1361 137.505 86.0746 137.103 86.0746 136.723C86.0751 135.883 86.3763 135.154 86.8351 134.523C87.5224 133.577 88.57 132.86 89.4478 132.384C89.8859 132.146 90.2814 131.968 90.5657 131.85C90.7079 131.791 90.8228 131.747 90.9012 131.718L90.9903 131.686L91.0189 131.675C91.1395 131.635 91.1991 131.519 91.1517 131.416C91.1043 131.313 90.9683 131.262 90.8477 131.302Z" fill="#5B3D50"/>
<path d="M86.1812 134.864C86.1901 134.879 86.3548 135.188 86.7531 135.501C87.1495 135.814 87.7913 136.127 88.7066 136.126C89.2315 136.126 89.8424 136.025 90.5475 135.774C93.6476 134.67 94.7238 133.351 94.7445 133.323C94.8181 133.232 94.7909 133.108 94.6844 133.045C94.5774 132.982 94.4315 133.005 94.3579 133.097L94.3569 133.098C94.3142 133.148 93.2849 134.364 90.3669 135.404C89.7087 135.638 89.1607 135.725 88.7066 135.725C87.9175 135.724 87.4038 135.465 87.0702 135.206C86.9046 135.076 86.7868 134.945 86.7118 134.849C86.6742 134.8 86.647 134.761 86.6301 134.734L86.6123 134.705L86.6086 134.698C86.5551 134.597 86.4157 134.553 86.298 134.598C86.1798 134.644 86.1277 134.763 86.1812 134.864Z" fill="#5B3D50"/>
<path d="M93.6167 153.972C93.4506 154.101 94.1623 156.309 96.547 157.159C100.34 153.488 104.408 150.13 110.884 150.868C110.967 150.256 110.488 148.297 109.375 147.585C107.357 146.292 98.5502 148.367 93.6167 153.972Z" fill="#42293A"/>
<path d="M101.074 148.258C101.398 148.367 113.425 168.381 107.398 170.847C103.322 172.514 71.7871 169.429 71.7871 169.429L72.9342 164.673C82.8481 163.274 89.2777 162.182 95.0163 163.937L85.9416 154.452L101.074 148.258Z" fill="#C2523D"/>
<path d="M91.1641 159.908C92.6828 156.541 98.8839 152.393 99.2892 152.3L90.8479 154.61L89.0234 157.67L91.1641 159.908Z" fill="#26171E"/>
<path d="M96.2168 165.484L95.0167 163.937C94.1024 163.657 93.1674 163.457 92.207 163.312L96.2168 165.484Z" fill="#26171E"/>
<path d="M74.7369 165.57C74.7369 165.57 74.7336 165.442 74.7186 165.228C74.6398 164.117 74.2396 160.693 72.3086 160.98C70.0065 161.323 66.7995 164.611 65.8373 164.816C64.8755 165.022 62.8624 163.775 59.0943 166.652C55.3256 169.529 56.3526 170.243 58.4525 169.94C61.9922 169.43 71.52 169.355 72.4025 169.427" fill="#C2523D"/>
<path d="M72.3086 160.98C70.0065 161.323 67.1208 163.478 66.0165 164.014C65.1537 164.432 62.8624 163.775 59.0943 166.652C55.3256 169.529 56.3526 170.243 58.4525 169.94C59.4822 169.792 61.0192 169.68 62.7015 169.599C64.6714 168.547 68.6456 167.199 71.0884 166.601C74.2828 165.819 74.6365 164.431 74.6365 164.431V164.43C74.4437 162.996 73.8892 160.745 72.3086 160.98Z" fill="#F9A81A"/>
<path d="M83.1867 131.588C83.1867 131.588 74.8598 135.489 77.168 142.391C79.4757 149.292 87.4601 156.943 87.4601 156.943L102.969 150.856L97.3816 142.646C97.3816 142.646 101.385 140.619 101.523 135.661C101.579 133.649 83.1867 131.588 83.1867 131.588Z" fill="#28171C"/>
<path d="M83.7891 133.186C83.7764 133.191 82.4853 133.623 81.1821 134.51C80.5304 134.954 79.8746 135.513 79.3782 136.195C78.8818 136.876 78.5464 137.683 78.5469 138.607C78.5469 139.023 78.6149 139.463 78.7641 139.924C79.4931 142.163 81.8004 145.648 83.9294 148.597C86.0579 151.543 88.0072 153.938 88.0086 153.94C88.0827 154.031 88.2286 154.053 88.3351 153.99C88.4416 153.927 88.4679 153.802 88.3937 153.711C88.3933 153.711 88.2727 153.563 88.0574 153.293C87.3039 152.349 85.3987 149.926 83.5282 147.264C81.6582 144.605 79.8225 141.693 79.2163 139.817C79.0775 139.389 79.016 138.987 79.016 138.607C79.0165 137.767 79.3177 137.038 79.7765 136.407C80.4638 135.461 81.5114 134.743 82.3892 134.268C82.8273 134.03 83.2228 133.852 83.5071 133.734C83.6493 133.674 83.7642 133.631 83.8426 133.601L83.9317 133.569L83.9603 133.559C84.0809 133.519 84.1405 133.402 84.0931 133.299C84.0457 133.196 83.9097 133.146 83.7891 133.186Z" fill="#5B3D50"/>
<path d="M79.1245 136.747C79.1334 136.763 79.2981 137.071 79.6964 137.384C80.0928 137.697 80.7346 138.011 81.6504 138.01C82.1749 138.01 82.7857 137.908 83.4909 137.657C86.591 136.554 87.6672 135.234 87.6878 135.207C87.7615 135.116 87.7343 134.991 87.6273 134.929C87.5208 134.866 87.3749 134.889 87.3012 134.98L87.3003 134.982C87.2576 135.032 86.2283 136.247 83.3102 137.287C82.652 137.522 82.1041 137.609 81.6504 137.609C80.8608 137.608 80.3471 137.349 80.0136 137.089C79.848 136.959 79.7302 136.829 79.6551 136.732C79.6176 136.684 79.5904 136.645 79.5735 136.618L79.5557 136.588L79.5519 136.582V136.582C79.4984 136.481 79.3591 136.436 79.2414 136.482C79.1231 136.528 79.071 136.647 79.1245 136.747Z" fill="#5B3D50"/>
<path d="M86.56 155.856C86.394 155.985 87.1057 158.193 89.4903 159.043C93.2833 155.372 97.3513 152.014 103.827 152.753C103.91 152.14 103.431 150.182 102.318 149.469C100.3 148.176 91.4936 150.251 86.56 155.856Z" fill="#5B3D50"/>
<path d="M109.469 108.806C107.952 109.134 100.92 111.33 95.6942 115.818C91.8035 119.16 86.3877 125.443 83.9566 129.105C82.8288 130.804 80.6914 132.262 80.6914 132.262C86.4389 138.176 96.0803 143.685 104.232 139.633C104.232 139.633 103.548 138.693 104.307 137.81C106.44 135.324 111.288 130.825 113.858 128.775C117.342 125.998 117.074 117.857 117.255 116.052C117.436 114.246 113.921 107.842 109.469 108.806Z" fill="#F9A81A"/>
<path d="M114.857 93.634C114.857 93.634 117.746 90.7384 121.736 91.3004C125.726 91.8627 131.102 96.2181 130.436 99.1678C129.823 101.89 128.199 102.096 127.95 103.07C127.7 104.044 129.806 104.895 129.608 106.634C129.411 108.373 128.265 108.789 127.95 109.762C127.635 110.734 128.791 112.341 127.95 113.252C127.95 113.252 126.278 112.251 125.081 112.532C123.884 112.813 122.297 113.095 120.558 112.982C118.818 112.87 115.857 110.436 115.857 110.436L114.857 93.634Z" fill="#26171E"/>
<path d="M112.833 104.7C111.798 105.485 106.875 110.268 106.875 110.268L111.132 117.977L117.255 110.537L112.833 104.7Z" fill="#C2523D"/>
<path d="M111.824 107.62H111.346C111.445 107.876 112.175 111.805 115.021 113.252L116.371 111.613L111.824 107.62Z" fill="#26171E"/>
<path d="M123.315 106.744C123.124 108.16 124.002 109.319 125.274 109.332C126.547 109.346 127.733 108.208 127.924 106.792C128.115 105.376 127.238 104.217 125.965 104.204C124.693 104.191 123.506 105.329 123.315 106.744Z" fill="#AE3831"/>
<path d="M110.017 103.249C109.818 108.049 113.616 112.047 118.498 112.207C122.915 112.352 125.469 108.562 126.54 103.847C128.333 95.9584 124.102 94.9735 119.219 94.8256C114.336 94.6777 110.217 98.4491 110.017 103.249Z" fill="#C2523D"/>
<path d="M111.346 103.816C111.346 103.816 111.909 101.59 114.302 100.637C116.695 99.6835 119.51 98.8942 119.51 97.1286C119.51 93.0883 113.662 91.4658 110.01 93.6338C106.886 95.4888 107.832 98.6453 107.56 99.6209C107.289 100.597 106.309 100.219 105.112 101.578C103.916 102.936 104.079 104.188 103.644 104.7C103.209 105.212 102.448 104.897 101.523 105.426C101.523 105.426 102.394 105.445 103.046 106.281C103.698 107.117 103.116 107.702 105.438 108.557C107.761 109.412 106.972 108.511 107.977 109.205L110.596 106.711L110.475 106.404L111.346 103.816Z" fill="#26171E"/>
<path d="M107.139 104.261C107.269 105.655 108.418 106.715 109.705 106.629C110.992 106.544 111.929 105.344 111.799 103.951C111.67 102.557 110.521 101.497 109.234 101.583C107.947 101.668 107.009 102.867 107.139 104.261Z" fill="#C2523D"/>
<path d="M118.386 103.375C118.266 103.735 118.41 104.086 118.708 104.159C119.007 104.232 119.347 104 119.467 103.639C119.588 103.279 119.444 102.927 119.145 102.854C118.847 102.781 118.507 103.014 118.386 103.375Z" fill="#26171E"/>
<path d="M123.956 104.642C123.851 105.006 124.01 105.353 124.312 105.416C124.613 105.48 124.943 105.236 125.048 104.872C125.153 104.508 124.994 104.162 124.692 104.098C124.391 104.035 124.061 104.278 123.956 104.642Z" fill="#26171E"/>
<path d="M121.011 100.577C120.461 100.323 119.863 100.236 119.308 100.236C118.769 100.236 118.266 100.317 117.856 100.426C117.65 100.48 117.468 100.541 117.312 100.607C117.155 100.675 117.028 100.738 116.906 100.839C116.723 100.995 116.724 101.25 116.907 101.405C117.091 101.562 117.388 101.561 117.571 101.405L117.558 101.393L117.57 101.405L117.571 101.405L117.558 101.393L117.57 101.405C117.578 101.398 117.651 101.355 117.757 101.314C118.077 101.183 118.691 101.036 119.308 101.038C119.75 101.037 120.191 101.108 120.564 101.282C120.791 101.387 121.076 101.315 121.2 101.12C121.323 100.926 121.239 100.682 121.011 100.577Z" fill="#26171E"/>
<path d="M124.373 102.294L124.449 102.291C124.654 102.288 124.998 102.366 125.282 102.516C125.571 102.666 125.794 102.875 125.878 103.104C125.956 103.315 126.22 103.432 126.467 103.365C126.714 103.298 126.851 103.072 126.772 102.861C126.594 102.39 126.195 102.053 125.77 101.831C125.338 101.61 124.875 101.491 124.449 101.489C124.388 101.489 124.328 101.491 124.268 101.497C124.01 101.522 123.825 101.721 123.855 101.941C123.884 102.161 124.116 102.319 124.373 102.294Z" fill="#26171E"/>
<path d="M122.694 103.003L122.826 103.043L122.702 102.986L122.694 103.003L122.826 103.043L122.702 102.986C122.699 102.992 122.673 103.029 122.638 103.077C122.392 103.425 121.631 104.492 121.628 105.69C121.628 105.966 121.669 106.249 121.769 106.529L121.772 106.541L121.774 106.541H121.772V106.541L121.774 106.541H121.772H121.868L121.785 106.502L121.772 106.541H121.868L121.785 106.502L121.865 106.54L121.833 106.463L121.785 106.502L121.865 106.54L121.833 106.463L121.782 106.467C121.642 106.47 121.338 106.398 121.096 106.322C120.973 106.284 120.861 106.246 120.781 106.218C120.701 106.189 120.653 106.171 120.653 106.171C120.535 106.125 120.396 106.171 120.343 106.271C120.29 106.372 120.343 106.491 120.461 106.536C120.464 106.538 120.673 106.618 120.937 106.699C121.205 106.779 121.514 106.865 121.782 106.868C121.872 106.867 121.965 106.86 122.065 106.811C122.114 106.786 122.163 106.747 122.195 106.697C122.228 106.648 122.241 106.592 122.241 106.541C122.241 106.496 122.232 106.454 122.218 106.413C122.133 106.175 122.097 105.932 122.097 105.69C122.096 105.07 122.338 104.459 122.589 103.996C122.714 103.764 122.841 103.569 122.939 103.427C122.987 103.356 123.029 103.299 123.06 103.255L123.1 103.199C123.112 103.18 123.119 103.175 123.136 103.137C123.179 103.033 123.115 102.918 122.993 102.881C122.871 102.844 122.737 102.899 122.694 103.003Z" fill="#26171E"/>
<path d="M117.238 96.5998C117.238 96.5998 118.927 99.2396 122.915 99.4027C126.904 99.5659 127.285 101.73 127.285 101.89C127.285 102.05 128.864 99.6621 127.285 97.3782C125.705 95.0943 123.344 93.2777 121.031 93.693C118.718 94.1082 116.559 94.0669 117.238 96.5998Z" fill="#26171E"/>
<path d="M121.738 91.3001C120.024 91.0588 118.515 91.4564 117.35 91.9871C119.578 92.0761 122.901 92.6265 125.621 94.8214C128.405 97.068 129.453 99.2557 129.813 100.808C130.061 100.388 130.282 99.8594 130.438 99.1675C131.103 96.2179 125.728 91.8625 121.738 91.3001Z" fill="#422232"/>
<path d="M120.788 108.343C119.782 107.927 118.725 107.255 117.636 106.434C117.636 106.434 117.029 110.064 120.788 108.343Z" fill="#FFFCF2"/>
<path d="M118.31 104.65C118.235 104.872 117.703 104.935 117.121 104.793C116.539 104.65 116.127 104.354 116.202 104.133C116.276 103.911 116.809 103.847 117.391 103.99C117.973 104.133 118.384 104.428 118.31 104.65Z" fill="#9A2427"/>
<path d="M125.69 106.185C125.645 106.434 125.077 106.566 124.422 106.48C123.767 106.393 123.272 106.121 123.317 105.872C123.362 105.623 123.93 105.49 124.585 105.577C125.24 105.663 125.735 105.935 125.69 106.185Z" fill="#9A2427"/>
<path d="M146.99 171.566H108.008V140.642H146.99V171.566Z" fill="#D29869"/>
<path d="M162.363 171.566H146.99V140.642H162.363V171.566Z" fill="#E5B47E"/>
<path d="M146.99 140.642L142.046 150.334H102.242L108.007 140.642H146.99Z" fill="#F0CD9A"/>
<path d="M162.363 140.642L168.088 150.334H162.363V140.642Z" fill="#D29869"/>
<path d="M96.0799 122.143C95.7529 120.014 94.1559 114.643 101.213 113.843C106.331 113.263 105.645 131.011 107.274 131.588C108.903 132.166 123.756 137.809 123.756 137.809C123.756 137.809 121.346 141.038 120.787 141.025C120.23 141.012 103.367 139.494 101.523 136.88C99.6806 134.265 96.9469 127.796 96.0799 122.143Z" fill="#C2523D"/>
<path d="M97.4418 127.813C99.6454 127.407 105.13 125.652 105.289 125.426L102.969 123.455L96.709 125.227C96.9257 126.095 97.173 126.962 97.4418 127.813Z" fill="#26171E"/>
<path d="M122.923 137.991C123.152 137.581 127.528 137.103 128.716 137.991C129.905 138.879 130.425 140.642 130.425 140.642H128.122C128.122 140.642 127.652 142.968 128.012 144.266C128.372 145.565 130.028 147.656 128.948 147.779C127.868 147.902 126.356 144.266 126.356 144.266C126.501 145.138 127.561 147.445 126.989 147.8C126.635 148.02 125.817 147.517 125.817 147.517C125.817 147.517 125.048 147.856 124.496 147.041C124.496 147.041 124.321 147.232 123.753 146.717C123.185 146.203 122.242 143.881 122.242 143.624C122.242 143.366 120.785 141.025 120.785 141.025L122.923 137.991Z" fill="#C2523D"/>
<path d="M101.213 113.843C94.8132 114.391 94.6439 120.446 94.9704 122.575C95.2007 124.075 95.2599 125.305 95.6952 127.158C98.9478 126.752 102.411 126.319 106.027 125.867C105.378 120.539 104.485 113.563 101.213 113.843Z" fill="#FBC325"/>
<path d="M189.04 164.932H169.49V111.306H189.04V164.932Z" fill="#E46D19"/>
<path d="M235.445 164.932H189.041V111.306H235.445V164.932Z" fill="#F9A81A"/>
<path d="M215.644 122.588H208.842V111.306H215.644V122.588Z" fill="#FBED81"/>
</svg>
