<svg width="150" height="44" viewBox="0 0 150 44" fill="none" xmlns="http://www.w3.org/2000/svg">
<path d="M4.66314 15.0286V24.3483H0V1.02589H16.3277V5.6957H4.66314V10.3588H11.6579V15.0286H4.66314ZM21.4838 14.7555V24.3483H17.0405V6.9281H18.113L19.5785 8.9932C20.2936 8.3448 21.1063 7.84296 22.0167 7.48767C22.9271 7.13683 23.8709 6.96141 24.8479 6.96141H28.7649V11.3847H24.8479C24.3816 11.3847 23.9419 11.4713 23.5289 11.6445C23.1159 11.8177 22.7584 12.0576 22.4564 12.364C22.1544 12.666 21.9168 13.0235 21.7436 13.4365C21.5704 13.8495 21.4838 14.2892 21.4838 14.7555ZM45.7588 10.0524L37.4317 20.0848C37.6049 20.1426 37.7781 20.1781 37.9513 20.1914C38.129 20.2092 38.3044 20.2181 38.4776 20.2181C38.9084 20.2181 39.3258 20.1581 39.73 20.0382C40.1297 19.9183 40.505 19.7473 40.8558 19.5252C41.2111 19.3032 41.5264 19.0323 41.8017 18.7125C42.0771 18.3928 42.3014 18.0375 42.4746 17.6467L45.7255 20.9175C45.3169 21.5037 44.8439 22.03 44.3065 22.4963C43.7691 22.9626 43.1896 23.3579 42.5678 23.6821C41.9416 24.0063 41.2844 24.2528 40.596 24.4215C39.9076 24.5903 39.2015 24.6747 38.4776 24.6747C37.2519 24.6747 36.0994 24.446 35.0202 23.9885C33.941 23.5355 32.9973 22.9027 32.189 22.09C31.3807 21.2773 30.7434 20.3091 30.2771 19.1855C29.8108 18.0619 29.5777 16.8273 29.5777 15.4816C29.5777 14.1049 29.8108 12.8481 30.2771 11.7112C30.7434 10.5742 31.3807 9.60385 32.189 8.80002C32.9973 7.99618 33.941 7.37221 35.0202 6.9281C36.0994 6.48399 37.2519 6.26193 38.4776 6.26193C39.2015 6.26193 39.9098 6.34854 40.6027 6.52174C41.2999 6.69494 41.9594 6.94586 42.5812 7.2745C43.2029 7.5987 43.7847 7.99618 44.3265 8.46693C44.8728 8.93769 45.3502 9.46618 45.7588 10.0524ZM34.5406 17.7932L39.71 10.9317C39.5057 10.8562 39.3036 10.8074 39.1038 10.7852C38.8995 10.763 38.6908 10.7519 38.4776 10.7519C37.8692 10.7519 37.2963 10.8629 36.7589 11.085C36.2215 11.307 35.7552 11.6245 35.36 12.0376C34.9647 12.4506 34.6538 12.9458 34.4273 13.5231C34.1964 14.1049 34.0809 14.7577 34.0809 15.4816C34.0809 15.646 34.0898 15.8303 34.1076 16.0345C34.1253 16.2433 34.152 16.452 34.1875 16.6607C34.2275 16.8739 34.2741 17.0782 34.3274 17.2736C34.3807 17.469 34.4517 17.6422 34.5406 17.7932ZM57.5498 24.3483H47.4042V19.9249H57.5498C57.8518 19.9249 58.1116 19.8161 58.3293 19.5985C58.5469 19.3809 58.6557 19.1211 58.6557 18.8191C58.6557 18.5038 58.5469 18.2973 58.3293 18.1996C58.1116 18.1019 57.8518 18.053 57.5498 18.053H52.9333C52.1606 18.053 51.4389 17.9065 50.7683 17.6134C50.0977 17.3202 49.5115 16.9228 49.0096 16.4209C48.5122 15.9146 48.1192 15.3262 47.8305 14.6556C47.5463 13.985 47.4042 13.2633 47.4042 12.4906C47.4042 11.7223 47.5463 11.0028 47.8305 10.3322C48.1192 9.65715 48.5122 9.07092 49.0096 8.57352C49.5115 8.07612 50.0977 7.68308 50.7683 7.39441C51.4389 7.10574 52.1606 6.96141 52.9333 6.96141H61.9265V11.3847H52.9333C52.6269 11.3847 52.3671 11.4935 52.1539 11.7112C51.9363 11.9288 51.8275 12.1886 51.8275 12.4906C51.8275 12.8059 51.9363 13.0746 52.1539 13.2966C52.3671 13.5187 52.6269 13.6297 52.9333 13.6297H57.5498C58.3093 13.6297 59.0243 13.7563 59.6949 14.0094C60.3699 14.267 60.9562 14.6223 61.4536 15.0753C61.951 15.5327 62.3462 16.0812 62.6393 16.7207C62.9324 17.3602 63.079 18.0597 63.079 18.8191C63.079 19.5874 62.9324 20.3047 62.6393 20.9708C62.3462 21.6414 61.951 22.2276 61.4536 22.7295C60.9562 23.2358 60.3699 23.631 59.6949 23.9153C59.0243 24.2039 58.3093 24.3483 57.5498 24.3483ZM69.8739 14.3958V24.3483H65.4372V0H69.8739V7.69419C70.4068 7.29449 70.9553 7.01026 71.5193 6.8415C72.0833 6.67273 72.6584 6.58835 73.2447 6.58835C74.3194 6.58835 75.3275 6.79264 76.269 7.20122C77.2105 7.60536 78.0322 8.16272 78.7338 8.87329C79.4311 9.58387 79.984 10.4144 80.3926 11.3647C80.7967 12.3107 80.9988 13.321 80.9988 14.3958V24.3483H76.5288V14.3958H76.5621C76.5621 13.9384 76.4755 13.5076 76.3023 13.1034C76.1291 12.6949 75.8893 12.3396 75.5829 12.0376C75.2809 11.7311 74.93 11.4913 74.5303 11.3181C74.1262 11.1449 73.6976 11.0583 73.2447 11.0583C72.7783 11.0583 72.3387 11.1449 71.9257 11.3181C71.5126 11.4913 71.1551 11.7311 70.8531 12.0376C70.5511 12.3396 70.3113 12.6949 70.1337 13.1034C69.9605 13.5076 69.8739 13.9384 69.8739 14.3958ZM89.2925 19.6785V24.3483H84.6294V1.02589H89.2925V12.6904L97.9793 1.02589H103.282L95.9142 10.8651L103.282 24.3483H97.9793L92.8565 14.9154L89.2925 19.6785ZM120.729 6.96141V24.3483H119.656L117.931 21.9567C117.509 22.3387 117.063 22.694 116.592 23.0226C116.121 23.3512 115.624 23.6377 115.1 23.882C114.58 24.1262 114.047 24.3194 113.501 24.4615C112.955 24.6036 112.4 24.6747 111.835 24.6747C110.61 24.6747 109.457 24.4682 108.378 24.0552C107.299 23.6421 106.355 23.0426 105.547 22.2565C104.739 21.4704 104.101 20.5089 103.635 19.372C103.169 18.2351 102.936 16.9383 102.936 15.4816C102.936 14.1271 103.169 12.8836 103.635 11.7511C104.101 10.6186 104.739 9.64604 105.547 8.83332C106.355 8.02061 107.299 7.38775 108.378 6.93476C109.457 6.48621 110.61 6.26193 111.835 6.26193C112.4 6.26193 112.957 6.33299 113.508 6.47511C114.063 6.61722 114.6 6.81263 115.12 7.06133C115.639 7.31003 116.134 7.60314 116.605 7.94067C117.08 8.27375 117.522 8.6357 117.931 9.02651L119.656 6.96141H120.729ZM116.259 15.4816C116.259 14.8776 116.141 14.2914 115.906 13.723C115.675 13.1501 115.36 12.6438 114.96 12.2041C114.556 11.7689 114.085 11.418 113.548 11.1516C113.01 10.8851 112.439 10.7519 111.835 10.7519C111.227 10.7519 110.654 10.854 110.117 11.0583C109.579 11.267 109.113 11.5713 108.718 11.971C108.323 12.3707 108.012 12.8658 107.785 13.4565C107.559 14.0516 107.445 14.7266 107.445 15.4816C107.445 16.2411 107.559 16.9161 107.785 17.5068C108.012 18.0974 108.323 18.5948 108.718 18.999C109.113 19.3987 109.579 19.7007 110.117 19.905C110.654 20.1137 111.227 20.2181 111.835 20.2181C112.439 20.2181 113.01 20.0848 113.548 19.8184C114.085 19.5519 114.556 19.1988 114.96 18.7592C115.36 18.3195 115.675 17.8154 115.906 17.247C116.141 16.6785 116.259 16.0901 116.259 15.4816ZM128.55 14.7555V24.3483H124.113V6.9281H125.185L126.651 8.9932C127.366 8.3448 128.179 7.84296 129.089 7.48767C130 7.13683 130.943 6.96141 131.92 6.96141H135.837V11.3847H131.92C131.454 11.3847 131.014 11.4713 130.601 11.6445C130.188 11.8177 129.831 12.0576 129.529 12.364C129.222 12.666 128.983 13.0235 128.809 13.4365C128.636 13.8495 128.55 14.2892 128.55 14.7555ZM150 24.3483H146.636C145.561 24.3483 144.553 24.144 143.611 23.7354C142.666 23.3313 141.837 22.7739 141.127 22.0633C140.421 21.3528 139.863 20.5267 139.455 19.5852C139.046 18.6392 138.842 17.6311 138.842 16.5608V11.3847H136.683V6.96141H138.842V0H143.265V6.96141H150V11.3847H143.265V16.5608C143.265 17.0271 143.354 17.4624 143.532 17.8665C143.705 18.2751 143.942 18.6304 144.244 18.9324C144.546 19.2344 144.904 19.4764 145.317 19.6585C145.73 19.8361 146.17 19.9249 146.636 19.9249H150V24.3483Z" fill="#222222" fill-opacity="0.9"/>
<path d="M30.431 43.0354C29.8821 42.994 29.5228 42.8594 29.3529 42.6315C29.181 42.4037 29.0951 42.1189 29.0951 41.7772C29.0951 41.394 29.1624 40.9332 29.297 40.3947C29.4316 39.8562 29.6077 39.2815 29.8252 38.6705C30.0426 38.0595 30.2808 37.4537 30.5397 36.853C30.4258 36.8634 30.2477 36.8789 30.0054 36.8996C29.761 36.9203 29.5124 36.9431 29.2597 36.968C29.005 36.9949 28.7999 37.0239 28.6446 37.055C28.6757 36.7339 28.7979 36.4833 29.0112 36.3031C29.2225 36.1209 29.4969 35.9883 29.8345 35.9055C30.17 35.8226 30.5345 35.776 30.928 35.7657C31.1973 35.0201 31.4748 34.2921 31.7607 33.5817C32.0444 32.8733 32.3313 32.224 32.6212 31.6337C32.5591 31.6234 32.4866 31.6151 32.4037 31.6089C32.3209 31.6047 32.207 31.6027 32.062 31.6027C31.4303 31.6027 30.9415 31.67 30.5956 31.8046C30.2477 31.9392 30.0095 32.1308 29.8811 32.3794C29.7506 32.6279 29.6854 32.9334 29.6854 33.2958C29.6854 33.5547 29.7113 33.7898 29.763 34.0011C29.8148 34.2144 29.8925 34.4453 29.996 34.6939C29.5093 34.611 29.1624 34.4526 28.9553 34.2185C28.7482 33.9866 28.6446 33.6945 28.6446 33.3424C28.6446 32.8039 28.8445 32.3276 29.2442 31.9133C29.6419 31.4991 30.1804 31.1729 30.8597 30.9347C31.537 30.6966 32.3002 30.5775 33.1494 30.5775C33.6982 30.5775 34.2471 30.6137 34.7959 30.6862C35.3448 30.7587 35.8574 30.7949 36.3337 30.7949C36.5926 30.7949 36.8412 30.7763 37.0794 30.739C37.3175 30.7038 37.592 30.6448 37.9026 30.5619C37.4056 31.1108 36.9996 31.4784 36.6848 31.6648C36.3679 31.8512 36.0593 31.9444 35.759 31.9444C35.5105 31.9444 35.1894 31.9102 34.7959 31.8419C34.4024 31.7756 33.9778 31.7269 33.5222 31.6959C33.3875 32.0273 33.2426 32.4104 33.0872 32.8454C32.9319 33.2803 32.7745 33.7463 32.615 34.2434C32.4534 34.7405 32.2898 35.2531 32.1241 35.7812C32.6626 35.8226 33.1494 35.8692 33.5843 35.921C34.0192 35.9728 34.5008 36.009 35.0289 36.0298C34.9047 36.1954 34.7783 36.327 34.6499 36.4243C34.5194 36.5237 34.3485 36.5941 34.1373 36.6356C33.924 36.677 33.634 36.7081 33.2674 36.7288C32.8987 36.7495 32.4193 36.765 31.829 36.7754C31.7462 37.086 31.6581 37.4019 31.5649 37.7229C31.4717 38.0439 31.392 38.3184 31.3257 38.5462C31.2574 38.774 31.2128 38.9138 31.1921 38.9656C30.9022 39.9598 30.7033 40.7696 30.5956 41.3951C30.4859 42.0226 30.431 42.5694 30.431 43.0354ZM35.4639 42.4141C35.1221 42.4141 34.8239 42.3002 34.5691 42.0723C34.3164 41.8445 34.1901 41.5028 34.1901 41.0471C34.1901 40.6847 34.273 40.2911 34.4386 39.8666C34.6043 39.442 34.8322 39.0226 35.1221 38.6083C35.4121 38.1941 35.7435 37.8182 36.1163 37.4806C36.4891 37.1451 36.8878 36.8737 37.3124 36.6666C37.7369 36.4595 38.1615 36.356 38.5861 36.356C39.0314 36.356 39.4094 36.4699 39.7201 36.6977C40.0307 36.9255 40.1861 37.2258 40.1861 37.5986C40.1861 37.8783 40.0877 38.0802 39.8909 38.2045C39.6942 38.3287 39.4612 38.365 39.1919 38.3132C39.2126 38.22 39.2302 38.1268 39.2447 38.0336C39.2613 37.9404 39.2696 37.842 39.2696 37.7385C39.2696 37.5313 39.2282 37.3449 39.1453 37.1792C39.0625 37.0135 38.8864 36.9307 38.6172 36.9307C38.3272 36.9307 38.0321 37.0291 37.7318 37.2258C37.4315 37.4226 37.1436 37.6784 36.8681 37.9932C36.5947 38.3101 36.3493 38.657 36.1318 39.034C35.9143 39.413 35.7435 39.7837 35.6192 40.1462C35.4949 40.5086 35.4328 40.8348 35.4328 41.1248C35.4328 41.4562 35.5519 41.6219 35.7901 41.6219C36.0283 41.6219 36.2923 41.5048 36.5823 41.2708C36.8722 41.0388 37.1643 40.7468 37.4584 40.3947C37.7546 40.0426 38.0373 39.6822 38.3065 39.3136C38.5758 38.947 38.8088 38.6342 39.0055 38.3753C39.0366 38.3236 39.078 38.2977 39.1298 38.2977C39.1712 38.308 39.251 38.3308 39.369 38.366C39.4891 38.4033 39.601 38.4582 39.7045 38.5307C39.8081 38.6032 39.8599 38.6964 39.8599 38.8103C39.8599 38.9138 39.8153 39.0453 39.7263 39.2048C39.6393 39.3664 39.5357 39.5424 39.4156 39.733C39.2976 39.9256 39.194 40.1182 39.1049 40.3108C39.0179 40.5014 38.9745 40.6847 38.9745 40.8607C38.9745 40.9953 39.0107 41.1217 39.0832 41.2397C39.1557 41.3599 39.2748 41.4199 39.4405 41.4199C39.689 41.4199 40.038 41.2356 40.4874 40.8669C40.9389 40.5003 41.3977 39.8769 41.8637 38.9967L42.1588 39.2918C41.9103 39.851 41.6121 40.345 41.2641 40.7737C40.9182 41.2045 40.5537 41.5421 40.1705 41.7865C39.7874 42.0288 39.399 42.15 39.0055 42.15C38.5809 42.15 38.2651 42.0154 38.058 41.7461C37.8509 41.4769 37.7369 41.1869 37.7162 40.8762C37.7162 40.8555 37.7162 40.84 37.7162 40.8296C37.7162 40.8193 37.7162 40.8089 37.7162 40.7986C37.302 41.2957 36.9209 41.6892 36.573 41.9791C36.2271 42.2691 35.8574 42.4141 35.4639 42.4141ZM44.3646 42.0879C43.9815 42.0879 43.6708 41.9874 43.4326 41.7865C43.1944 41.5835 43.0753 41.3112 43.0753 40.9694C43.0753 40.6795 43.1478 40.3688 43.2928 40.0374C43.4378 39.706 43.5848 39.3798 43.734 39.0588C43.8852 38.7378 43.9607 38.453 43.9607 38.2045C43.9607 37.9663 43.8831 37.7664 43.7277 37.6049C43.5724 37.4454 43.3912 37.3139 43.1841 37.2103C42.9562 37.7799 42.6994 38.3308 42.4136 38.8631C42.1298 39.3974 41.9 39.8148 41.7239 40.1151L41.4909 39.6646C41.6359 39.3954 41.8275 39.0122 42.0656 38.5151C42.3038 38.0181 42.5317 37.464 42.7491 36.853C42.6456 36.7495 42.5938 36.6097 42.5938 36.4336C42.5938 36.1644 42.6766 35.9107 42.8423 35.6725C43.008 35.4343 43.1685 35.3152 43.3239 35.3152C43.4481 35.3152 43.5382 35.3846 43.5942 35.5234C43.6521 35.6642 43.6811 35.7605 43.6811 35.8123C43.6811 35.8641 43.6573 35.9573 43.6097 36.0919C43.5641 36.2265 43.531 36.3249 43.5103 36.387C43.5206 36.5009 43.6107 36.6118 43.7806 36.7194C43.9525 36.8292 44.1471 36.9566 44.3646 37.1016C44.5821 37.2466 44.7737 37.4278 44.9394 37.6452C45.1051 37.8627 45.1879 38.1371 45.1879 38.4685C45.1879 38.7688 45.1206 39.0743 44.986 39.385C44.8513 39.6957 44.7167 39.9856 44.5821 40.2549C44.4475 40.5241 44.3801 40.7571 44.3801 40.9539C44.3801 41.0989 44.4185 41.1942 44.4951 41.2397C44.5738 41.2874 44.6649 41.3112 44.7685 41.3112C45.017 41.3112 45.2759 41.2356 45.5452 41.0844C45.8144 40.9353 46.0785 40.7416 46.3374 40.5034C46.5963 40.2653 46.8241 40.0136 47.0209 39.7485C47.2176 39.4855 47.3678 39.2452 47.4713 39.0277L47.8441 39.3073C47.6474 39.7526 47.3626 40.1897 46.9898 40.6184C46.617 41.0492 46.2028 41.4013 45.7471 41.6747C45.2915 41.9501 44.8306 42.0879 44.3646 42.0879ZM55.2506 42.1655C54.8467 42.1655 54.5464 42.0464 54.3496 41.8083C54.1529 41.5701 54.0545 41.2853 54.0545 40.9539C54.0545 40.7157 54.0907 40.4775 54.1632 40.2394C54.2357 40.0012 54.3082 39.7651 54.3807 39.531C54.4532 39.2991 54.4894 39.0899 54.4894 38.9035C54.4894 38.7274 54.4563 38.6052 54.39 38.5369C54.3217 38.4706 54.2357 38.4375 54.1322 38.4375C53.894 38.4375 53.6175 38.6187 53.3027 38.9811C52.9858 39.3436 52.5943 39.8717 52.1283 40.5656C51.9626 40.8141 51.8073 41.0761 51.6623 41.3516C51.5173 41.625 51.3879 41.8549 51.274 42.0413C51.1808 42.0413 51.0596 42.0257 50.9105 41.9947C50.7593 41.9636 50.6267 41.9201 50.5128 41.8642C50.3989 41.8062 50.3419 41.7306 50.3419 41.6374C50.3419 41.5442 50.3937 41.363 50.4973 41.0937C50.6008 40.8245 50.7199 40.5107 50.8546 40.1524C50.9892 39.7961 51.1083 39.444 51.2118 39.0961C51.3154 38.7502 51.3672 38.4582 51.3672 38.22C51.3672 38.075 51.3413 37.9611 51.2895 37.8783C51.2377 37.7954 51.1549 37.754 51.041 37.754C50.8235 37.754 50.5625 37.8834 50.2581 38.1423C49.9515 38.4012 49.6305 38.7399 49.295 39.1582C48.9574 39.5787 48.6415 40.0447 48.3474 40.5562C48.0513 41.0699 47.81 41.5856 47.6236 42.1034C47.5097 42.1034 47.3699 42.0806 47.2042 42.035C47.0385 41.9874 46.8935 41.9305 46.7692 41.8642C46.645 41.7958 46.5828 41.7358 46.5828 41.684C46.5828 41.6736 46.6191 41.5255 46.6916 41.2397C46.764 40.956 46.8521 40.6018 46.9556 40.1772C47.0592 39.7526 47.1679 39.3177 47.2818 38.8724C47.3957 38.4271 47.4941 38.0388 47.577 37.7074C47.608 37.5935 47.722 37.492 47.9187 37.4029C48.1155 37.3159 48.2863 37.2724 48.4313 37.2724C48.5763 37.2724 48.7006 37.319 48.8041 37.4122C48.9077 37.5054 48.9595 37.6297 48.9595 37.7851C48.9595 37.8886 48.9387 38.0388 48.8973 38.2355C48.8559 38.4323 48.8041 38.6549 48.742 38.9035C48.9595 38.6135 49.1904 38.3256 49.4348 38.0398C49.6771 37.7561 49.9308 37.5003 50.1959 37.2724C50.459 37.0446 50.723 36.8634 50.9881 36.7288C51.2512 36.5941 51.5121 36.5268 51.771 36.5268C52.1542 36.5268 52.4131 36.6635 52.5477 36.9369C52.6823 37.2124 52.7497 37.5106 52.7497 37.8317C52.7497 37.9663 52.7393 38.0978 52.7186 38.2262C52.6979 38.3567 52.6699 38.4861 52.6347 38.6145C52.5974 38.745 52.5477 38.8983 52.4856 39.0743C52.6823 38.7844 52.8977 38.5172 53.1318 38.2728C53.3638 38.0305 53.6144 37.8368 53.8836 37.6918C54.1529 37.5469 54.4376 37.4744 54.738 37.4744C55.1418 37.4744 55.4214 37.5955 55.5768 37.8379C55.7321 38.0823 55.8098 38.3494 55.8098 38.6394C55.8098 38.9086 55.7663 39.1903 55.6793 39.4844C55.5902 39.7806 55.5022 40.0602 55.4152 40.3232C55.3262 40.5884 55.2816 40.8141 55.2816 41.0005C55.2816 41.1041 55.3075 41.1993 55.3593 41.2863C55.4111 41.3754 55.5146 41.4199 55.67 41.4199C55.9496 41.4199 56.2188 41.2905 56.4777 41.0316C56.7366 40.7727 56.9779 40.4537 57.2016 40.0747C57.4232 39.6978 57.6117 39.3384 57.767 38.9967L58.0311 39.3229C57.8654 39.7475 57.651 40.1793 57.388 40.6184C57.1229 41.0595 56.8143 41.4282 56.4622 41.7244C56.1101 42.0185 55.7062 42.1655 55.2506 42.1655ZM62.4426 42.1811C61.9766 42.1811 61.6577 42.0288 61.4858 41.7244C61.3159 41.4178 61.231 41.0834 61.231 40.7209C61.231 40.3895 61.2828 40.0499 61.3863 39.7019C61.4899 39.356 61.6318 39.0329 61.812 38.7326C61.9942 38.4323 62.1962 38.191 62.4178 38.0087C62.6415 37.8285 62.8672 37.7385 63.095 37.7385C63.1675 37.7385 63.2524 37.7509 63.3498 37.7757C63.4492 37.8027 63.5196 37.842 63.561 37.8938C63.4368 38.0491 63.3094 38.2407 63.1789 38.4685C63.0505 38.6964 62.9314 38.9366 62.8216 39.1893C62.7139 39.444 62.629 39.7009 62.5669 39.9598C62.5048 40.2187 62.4737 40.4568 62.4737 40.6743C62.4737 40.8814 62.512 41.0523 62.5886 41.1869C62.6674 41.3215 62.8051 41.3888 63.0018 41.3888C63.1986 41.3888 63.4337 41.278 63.7071 41.0564C63.9825 40.8327 64.2445 40.5759 64.4931 40.286C64.1617 39.9856 63.9235 39.6563 63.7785 39.298C63.6335 38.9418 63.561 38.51 63.561 38.0025C63.561 37.7851 63.6149 37.5365 63.7226 37.2569C63.8324 36.9773 64.0084 36.7339 64.2507 36.5268C64.4951 36.3197 64.8244 36.2162 65.2387 36.2162C65.684 36.2162 65.9967 36.3404 66.1769 36.589C66.3592 36.8375 66.4503 37.1326 66.4503 37.4744C66.4503 37.8575 66.3488 38.2873 66.1458 38.7637C65.9449 39.24 65.7047 39.6905 65.4251 40.1151C65.5493 40.1772 65.6943 40.2083 65.86 40.2083C66.0154 40.2083 66.2018 40.172 66.4192 40.0996C66.6367 40.0271 66.849 39.9049 67.0561 39.733C67.2632 39.5631 67.4289 39.3332 67.5532 39.0433L67.8328 39.2452C67.605 39.7734 67.3015 40.1586 66.9225 40.4009C66.5456 40.6453 66.1759 40.7675 65.8134 40.7675C65.6788 40.7675 65.5442 40.754 65.4095 40.7271C65.2749 40.7023 65.1507 40.6691 65.0367 40.6277C64.6846 41.0419 64.2808 41.4044 63.8251 41.7151C63.3695 42.0257 62.9086 42.1811 62.4426 42.1811ZM64.8969 39.7889C65.1455 39.4264 65.3578 39.0381 65.5338 38.6239C65.7099 38.2096 65.7979 37.8265 65.7979 37.4744C65.7979 37.2362 65.7616 37.0622 65.6891 36.9524C65.6167 36.8448 65.5079 36.7909 65.3629 36.7909C65.1662 36.7909 64.9642 36.9307 64.7571 37.2103C64.55 37.4899 64.4465 37.842 64.4465 38.2666C64.4465 38.4841 64.4848 38.7481 64.5614 39.0588C64.6401 39.3695 64.752 39.6128 64.8969 39.7889ZM72.4307 41.9947C72.0269 41.9947 71.7183 41.8942 71.5049 41.6933C71.2937 41.4903 71.188 41.2335 71.188 40.9228C71.188 40.7157 71.2243 40.4951 71.2968 40.2611C71.3693 40.0291 71.4418 39.7941 71.5143 39.5559C71.5867 39.3177 71.623 39.0899 71.623 38.8724C71.623 38.6446 71.5681 38.4861 71.4583 38.3971C71.3506 38.3101 71.2243 38.2666 71.0793 38.2666C70.7686 38.2666 70.4497 38.3929 70.1224 38.6456C69.7973 38.9004 69.4814 39.2193 69.1749 39.6025C68.8704 39.9856 68.5836 40.3843 68.3143 40.7986C68.0451 41.2128 67.8121 41.5856 67.6153 41.917C67.4186 41.917 67.2322 41.8839 67.0561 41.8176C66.8801 41.7492 66.7299 41.6322 66.6056 41.4665C66.616 41.4147 66.675 41.2563 66.7827 40.9912C66.8925 40.7282 67.0147 40.4123 67.1493 40.0436C67.2839 39.677 67.403 39.2918 67.5066 38.8879C67.6101 38.4841 67.6619 38.1164 67.6619 37.7851C67.7344 37.7022 67.8452 37.6194 67.9943 37.5365C68.1455 37.4537 68.304 37.4122 68.4697 37.4122C68.8321 37.4122 69.0133 37.5676 69.0133 37.8783C69.0133 38.0025 68.9895 38.1858 68.9419 38.4281C68.8963 38.6725 68.8321 38.9501 68.7493 39.2607C69.0185 38.8983 69.3137 38.5566 69.6347 38.2355C69.9557 37.9145 70.2892 37.6525 70.635 37.4495C70.983 37.2486 71.333 37.1482 71.6851 37.1482C72.1304 37.1482 72.4587 37.2983 72.67 37.5986C72.8833 37.899 72.99 38.2304 72.99 38.5928C72.99 38.9035 72.9382 39.1934 72.8346 39.4627C72.7311 39.7319 72.6296 39.9856 72.5302 40.2238C72.4328 40.462 72.3841 40.695 72.3841 40.9228C72.3841 41.0885 72.4225 41.2045 72.4991 41.2708C72.5778 41.3391 72.6637 41.3733 72.7569 41.3733C73.0055 41.3733 73.2644 41.2542 73.5336 41.016C73.8029 40.7779 74.0587 40.4744 74.301 40.1058C74.5454 39.7392 74.7608 39.3695 74.9472 38.9967L75.2113 39.2141C74.9938 39.7216 74.7473 40.1845 74.4719 40.6028C74.1985 41.0233 73.893 41.3599 73.5554 41.6125C73.2198 41.8673 72.845 41.9947 72.4307 41.9947ZM82.4002 43.0354C82.2967 43.0354 82.162 43.0199 81.9963 42.9888C81.8306 42.9577 81.6629 42.8987 81.493 42.8117C81.3211 42.7227 81.1782 42.5849 81.0643 42.3985C80.9504 42.2121 80.8934 41.9636 80.8934 41.6529C80.8934 41.394 80.9452 41.0544 81.0488 40.6339C81.1523 40.2155 81.3284 39.6025 81.5769 38.7947C81.7633 38.1837 81.9477 37.58 82.1299 36.9835C82.3101 36.3891 82.4603 35.7709 82.5804 35.1288C82.6985 34.4868 82.7575 33.8033 82.7575 33.0784C82.7575 32.6538 82.7316 32.2965 82.6798 32.0065C82.628 31.7166 82.5328 31.497 82.394 31.3479C82.2532 31.1967 82.0585 31.1211 81.8099 31.1211C81.5614 31.1211 81.3439 31.1884 81.1575 31.3231C80.9711 31.4577 80.8158 31.6358 80.6915 31.8574C80.5672 32.0811 80.474 32.3276 80.4119 32.5968C80.3498 32.8661 80.3187 33.1353 80.3187 33.4046C80.3187 33.8602 80.3964 34.2382 80.5517 34.5385C80.0443 34.5385 79.6766 34.4194 79.4488 34.1813C79.221 33.9431 79.1071 33.6479 79.1071 33.2958C79.1071 32.9852 79.1847 32.6641 79.3401 32.3328C79.4954 32.0014 79.7108 31.699 79.9863 31.4256C80.2597 31.1501 80.5776 30.9264 80.94 30.7545C81.3025 30.5847 81.6908 30.4998 82.1051 30.4998C82.8093 30.4998 83.3457 30.7587 83.7143 31.2765C84.0809 31.7943 84.2642 32.5295 84.2642 33.4822C84.2642 34.1968 84.169 34.9393 83.9784 35.7098C83.7858 36.4823 83.5445 37.3242 83.2546 38.2355C83.151 38.5669 83.0298 38.9314 82.8911 39.3291C82.7502 39.7288 82.626 40.1379 82.5183 40.5562C82.4085 40.9767 82.3536 41.394 82.3536 41.8083C82.3536 42.005 82.3774 42.1427 82.4251 42.2215C82.4706 42.2981 82.5607 42.3364 82.6953 42.3364C82.9749 42.3364 83.2732 42.2173 83.5901 41.9791C83.9049 41.7409 84.2228 41.4199 84.5438 41.016C84.8649 40.6122 85.1735 40.1617 85.4697 39.6646C85.7638 39.1675 86.0351 38.657 86.2836 38.133C86.5321 37.6111 86.7393 37.114 86.9049 36.6418C87.0706 36.1716 87.1794 35.7605 87.2312 35.4084C87.6247 35.4084 87.9302 35.5171 88.1476 35.7346C88.3651 35.9521 88.4738 36.1592 88.4738 36.356C88.4738 36.4595 88.4304 36.6356 88.3434 36.8841C88.2543 37.1326 88.1062 37.5003 87.8991 37.987C87.7334 38.3805 87.5625 38.7968 87.3865 39.2359C87.2104 39.677 87.0634 40.112 86.9453 40.5407C86.8252 40.9715 86.7651 41.3733 86.7651 41.7461C86.7651 41.9532 86.7941 42.1034 86.8521 42.1966C86.9081 42.2898 87.0137 42.3364 87.169 42.3364C87.459 42.3364 87.7935 42.1945 88.1725 41.9108C88.5494 41.625 88.9398 41.2356 89.3437 40.7426C89.7476 40.2518 90.1411 39.6978 90.5243 39.0806C90.9074 38.4654 91.2544 37.8265 91.565 37.1637C91.8757 36.5009 92.1222 35.8485 92.3044 35.2065C92.4846 34.5644 92.5747 33.9793 92.5747 33.4512C92.5747 32.8816 92.4743 32.4777 92.2734 32.2396C92.0704 32.0014 91.8187 31.8305 91.5184 31.7269C91.7048 31.4266 91.9047 31.2061 92.118 31.0652C92.3293 30.9264 92.5178 30.8571 92.6834 30.8571C92.9216 30.8571 93.1681 31.0093 93.4229 31.3138C93.6755 31.6203 93.8019 32.0998 93.8019 32.7522C93.8019 33.301 93.6962 33.9327 93.485 34.6473C93.2717 35.3618 92.9817 36.1043 92.6151 36.8748C92.2464 37.6473 91.827 38.3992 91.3569 39.1303C90.8847 39.8593 90.3824 40.519 89.8501 41.1092C89.3158 41.6995 88.7793 42.1686 88.2408 42.5166C87.7023 42.8625 87.1897 43.0354 86.703 43.0354C86.4338 43.0354 86.1935 42.9816 85.9823 42.8739C85.7689 42.7641 85.6032 42.6088 85.4852 42.4079C85.3651 42.2049 85.305 41.9688 85.305 41.6995C85.305 41.5753 85.3205 41.4458 85.3516 41.3112C85.3827 41.1766 85.4189 41.0419 85.4603 40.9073C84.9529 41.5494 84.4434 42.0651 83.9318 42.4545C83.4182 42.8418 82.9076 43.0354 82.4002 43.0354ZM93.9261 42.2743C93.6983 42.2743 93.5347 42.0982 93.4353 41.7461C93.3379 41.394 93.2893 40.985 93.2893 40.519C93.2893 40.0426 93.369 39.4679 93.5285 38.7947C93.69 38.1216 93.9075 37.4122 94.1809 36.6666C94.4564 35.921 94.7618 35.1909 95.0974 34.4764C95.435 33.7619 95.7819 33.1115 96.1381 32.5254C96.4964 31.9413 96.8382 31.4732 97.1633 31.1211C97.4906 30.769 97.7785 30.593 98.027 30.593C98.2445 30.593 98.4102 30.7121 98.5241 30.9503C98.638 31.1884 98.695 31.437 98.695 31.6959C98.695 31.9755 98.6297 32.3193 98.4992 32.7273C98.3708 33.1374 98.1927 33.5754 97.9649 34.0415C97.737 34.5075 97.4699 34.9652 97.1633 35.4146C96.8589 35.8661 96.5275 36.2783 96.1692 36.6511C95.813 37.0239 95.4433 37.3242 95.0601 37.552C94.9255 37.9041 94.8188 38.2324 94.7401 38.5369C94.6635 38.8434 94.6096 39.1313 94.5786 39.4005C94.5475 39.6698 94.532 39.9339 94.532 40.1928C94.532 40.2445 94.534 40.2984 94.5382 40.3543C94.5444 40.4123 94.5475 40.4672 94.5475 40.519C94.5889 40.4568 94.6562 40.2963 94.7494 40.0374C94.8426 39.7785 94.969 39.4761 95.1284 39.1303C95.29 38.7823 95.4899 38.4395 95.728 38.1019C95.9662 37.7664 96.2458 37.4868 96.5669 37.2631C96.8879 37.0415 97.2555 36.9307 97.6697 36.9307C98.0218 36.9307 98.2963 37.0104 98.493 37.1699C98.6898 37.3315 98.8296 37.5282 98.9124 37.7602C98.9953 37.9942 99.0367 38.2303 99.0367 38.4685C99.0367 38.7999 98.9818 39.1106 98.872 39.4005C98.7643 39.6905 98.6556 39.9618 98.5458 40.2145C98.4381 40.4693 98.3843 40.7105 98.3843 40.9384C98.3843 41.1248 98.4257 41.2542 98.5086 41.3267C98.5914 41.3992 98.6898 41.4354 98.8037 41.4354C99.0315 41.4354 99.2977 41.3215 99.6021 41.0937C99.9086 40.8659 100.214 40.5625 100.519 40.1834C100.825 39.8065 101.087 39.3902 101.305 38.9345L101.553 39.1986C101.315 39.7164 101.035 40.1928 100.714 40.6277C100.393 41.0626 100.041 41.4096 99.658 41.6685C99.2749 41.9273 98.8606 42.0568 98.4154 42.0568C98.0218 42.0568 97.7215 41.9532 97.5144 41.7461C97.3073 41.539 97.2037 41.2801 97.2037 40.9694C97.2037 40.752 97.2421 40.5107 97.3187 40.2456C97.3974 39.9825 97.473 39.7164 97.5455 39.4471C97.618 39.1779 97.6542 38.9345 97.6542 38.7171C97.6542 38.4685 97.5993 38.2977 97.4895 38.2045C97.3819 38.1113 97.2503 38.0647 97.095 38.0647C96.8361 38.0647 96.6031 38.1651 96.396 38.366C96.1889 38.569 96.0025 38.831 95.8368 39.152C95.6711 39.473 95.5157 39.8117 95.3708 40.1679C95.2258 40.5262 95.0808 40.8659 94.9358 41.1869C94.7908 41.5079 94.6376 41.7699 94.476 41.9729C94.3166 42.1738 94.1333 42.2743 93.9261 42.2743ZM95.3863 36.5579C95.6555 36.3197 95.9144 36.0349 96.163 35.7035C96.4115 35.3722 96.6414 35.0273 96.8527 34.669C97.066 34.3128 97.2524 33.9659 97.4119 33.6283C97.5734 33.2927 97.7008 32.9903 97.794 32.7211C97.8872 32.4518 97.939 32.2447 97.9493 32.0998C97.9493 32.0894 97.9493 32.0811 97.9493 32.0749C97.9493 32.0708 97.9493 32.0635 97.9493 32.0532C97.8872 32.0532 97.7547 32.1795 97.5517 32.4322C97.3508 32.6869 97.1178 33.0287 96.8527 33.4574C96.5896 33.8882 96.3256 34.3728 96.0605 34.9113C95.7974 35.4498 95.5727 35.9987 95.3863 36.5579ZM102.687 42.3675C102.024 42.3675 101.514 42.1894 101.155 41.8331C100.799 41.4748 100.621 41.0264 100.621 40.4879C100.621 40.0323 100.737 39.5476 100.969 39.034C101.203 38.5224 101.517 38.0408 101.91 37.5893C102.304 37.1399 102.739 36.7754 103.215 36.4958C103.692 36.2162 104.168 36.0764 104.644 36.0764C104.914 36.0764 105.169 36.1457 105.412 36.2845C105.656 36.4253 105.778 36.7029 105.778 37.1171C105.778 37.5106 105.664 37.8783 105.437 38.22C105.209 38.5617 104.903 38.8672 104.52 39.1365C104.137 39.4057 103.714 39.6253 103.253 39.7951C102.793 39.967 102.33 40.0788 101.864 40.1306C101.853 40.1721 101.845 40.2155 101.839 40.2611C101.835 40.3087 101.833 40.3843 101.833 40.4879C101.833 40.5397 101.84 40.6298 101.854 40.7582C101.871 40.8887 101.916 41.0264 101.988 41.1714C102.061 41.3164 102.18 41.4406 102.345 41.5442C102.511 41.6477 102.739 41.6995 103.029 41.6995C103.464 41.6995 103.901 41.5773 104.34 41.3329C104.781 41.0906 105.195 40.7675 105.583 40.3636C105.972 39.9598 106.296 39.5093 106.555 39.0122L106.866 39.2607C106.586 39.8821 106.226 40.4258 105.784 40.8918C105.345 41.3578 104.859 41.7202 104.324 41.9791C103.792 42.238 103.246 42.3675 102.687 42.3675ZM102.035 39.5559C102.304 39.5248 102.604 39.4316 102.936 39.2763C103.267 39.1209 103.585 38.9242 103.889 38.686C104.196 38.4478 104.448 38.1858 104.644 37.9C104.841 37.6163 104.939 37.3294 104.939 37.0394C104.939 36.9255 104.919 36.8479 104.877 36.8064C104.836 36.765 104.769 36.7443 104.675 36.7443C104.437 36.7443 104.189 36.8292 103.93 36.9991C103.671 37.171 103.417 37.3936 103.169 37.667C102.92 37.9425 102.697 38.2459 102.501 38.5773C102.304 38.9087 102.149 39.2349 102.035 39.5559ZM107.981 42.3675C107.318 42.3675 106.809 42.1894 106.452 41.8331C106.094 41.4748 105.915 41.0264 105.915 40.4879C105.915 40.0323 106.032 39.5476 106.266 39.034C106.498 38.5224 106.811 38.0408 107.204 37.5893C107.598 37.1399 108.033 36.7754 108.509 36.4958C108.985 36.2162 109.462 36.0764 109.938 36.0764C110.207 36.0764 110.464 36.1457 110.709 36.2845C110.951 36.4253 111.072 36.7029 111.072 37.1171C111.072 37.5106 110.958 37.8783 110.73 38.22C110.503 38.5617 110.197 38.8672 109.814 39.1365C109.431 39.4057 109.009 39.6253 108.549 39.7951C108.088 39.967 107.624 40.0788 107.158 40.1306C107.147 40.1721 107.14 40.2155 107.136 40.2611C107.13 40.3087 107.127 40.3843 107.127 40.4879C107.127 40.5397 107.135 40.6298 107.151 40.7582C107.166 40.8887 107.209 41.0264 107.282 41.1714C107.354 41.3164 107.474 41.4406 107.639 41.5442C107.805 41.6477 108.033 41.6995 108.323 41.6995C108.758 41.6995 109.196 41.5773 109.637 41.3329C110.076 41.0906 110.49 40.7675 110.88 40.3636C111.267 39.9598 111.59 39.5093 111.849 39.0122L112.159 39.2607C111.88 39.8821 111.521 40.4258 111.081 40.8918C110.64 41.3578 110.154 41.7202 109.621 41.9791C109.087 42.238 108.54 42.3675 107.981 42.3675ZM107.329 39.5559C107.598 39.5248 107.898 39.4316 108.229 39.2763C108.561 39.1209 108.88 38.9242 109.186 38.686C109.491 38.4478 109.741 38.1858 109.938 37.9C110.135 37.6163 110.233 37.3294 110.233 37.0394C110.233 36.9255 110.213 36.8479 110.171 36.8064C110.13 36.765 110.062 36.7443 109.969 36.7443C109.731 36.7443 109.483 36.8292 109.224 36.9991C108.965 37.171 108.711 37.3936 108.462 37.667C108.214 37.9425 107.991 38.2459 107.795 38.5773C107.598 38.9087 107.442 39.2349 107.329 39.5559ZM112.812 42.15C112.325 42.15 111.987 41.9864 111.796 41.6591C111.603 41.334 111.507 40.9487 111.507 40.5034C111.507 39.996 111.6 39.4005 111.787 38.7171C111.973 38.0336 112.22 37.3159 112.526 36.5641C112.831 35.8144 113.167 35.0791 113.536 34.3583C113.902 33.6397 114.272 32.9903 114.645 32.4104C115.018 31.8305 115.363 31.3666 115.679 31.0186C115.994 30.6727 116.25 30.4998 116.447 30.4998C116.581 30.4998 116.695 30.5692 116.789 30.7079C116.882 30.8488 116.957 31.0145 117.015 31.205C117.071 31.3976 117.099 31.5768 117.099 31.7425C117.099 32.0221 117.03 32.3866 116.891 32.836C116.75 33.2876 116.553 33.7826 116.301 34.3211C116.046 34.8596 115.746 35.4105 115.4 35.9738C115.052 36.5393 114.669 37.0757 114.25 37.5831C113.83 38.0905 113.381 38.5307 112.905 38.9035C112.864 39.1624 112.825 39.4182 112.79 39.6708C112.753 39.9256 112.734 40.1565 112.734 40.3636C112.734 40.7364 112.796 41.0078 112.921 41.1776C113.045 41.3495 113.205 41.4354 113.402 41.4354C113.661 41.4354 113.928 41.3133 114.204 41.0689C114.477 40.8265 114.741 40.5159 114.996 40.1368C115.249 39.7599 115.468 39.3695 115.655 38.9656L116.027 39.1675C115.582 40.0892 115.085 40.8172 114.536 41.3516C113.987 41.8839 113.413 42.15 112.812 42.15ZM113.185 37.9404C113.537 37.5572 113.871 37.1409 114.188 36.6915C114.503 36.24 114.793 35.7812 115.058 35.3152C115.321 34.8492 115.551 34.3987 115.748 33.9638C115.945 33.5288 116.098 33.1374 116.208 32.7894C116.315 32.4436 116.374 32.1671 116.385 31.96C116.385 31.9496 116.385 31.9413 116.385 31.9351C116.385 31.931 116.385 31.9237 116.385 31.9133C116.302 31.9133 116.17 32.0293 115.99 32.2613C115.808 32.4953 115.592 32.8143 115.344 33.2182C115.095 33.6221 114.84 34.0829 114.577 34.6007C114.311 35.1185 114.058 35.6642 113.815 36.2379C113.571 36.8137 113.361 37.3812 113.185 37.9404ZM117.099 42.4762C116.581 42.4762 116.164 42.3706 115.847 42.1593C115.532 41.946 115.308 41.6767 115.173 41.3516C115.038 41.0243 114.971 40.6898 114.971 40.3481C114.971 40.0478 115.012 39.8148 115.095 39.6491C115.178 39.4834 115.282 39.3612 115.406 39.2825C115.53 39.2059 115.646 39.1468 115.754 39.1054C115.864 39.064 115.945 39.0174 115.996 38.9656C116.255 38.6964 116.521 38.3826 116.795 38.0243C117.07 37.668 117.306 37.2724 117.503 36.8375V36.6822C117.503 36.2679 117.572 35.9749 117.711 35.803C117.852 35.6331 118.016 35.5482 118.202 35.5482C118.326 35.5482 118.416 35.5793 118.472 35.6414C118.53 35.7036 118.565 35.776 118.575 35.8589C118.575 35.921 118.561 35.9935 118.534 36.0764C118.51 36.1592 118.497 36.2731 118.497 36.4181C118.497 36.7288 118.572 37.0829 118.721 37.4806C118.872 37.8803 119.022 38.3028 119.171 38.7481C119.323 39.1934 119.398 39.6491 119.398 40.1151C119.398 40.2394 119.393 40.3533 119.383 40.4568C119.372 40.5604 119.357 40.6588 119.336 40.752C119.657 40.6691 119.973 40.49 120.284 40.2145C120.594 39.9411 120.889 39.5352 121.169 38.9967L121.355 39.1365C121.159 39.7268 120.874 40.2 120.501 40.5562C120.128 40.9146 119.693 41.1351 119.196 41.218C119.031 41.6426 118.758 41.9584 118.379 42.1655C118.002 42.3726 117.576 42.4762 117.099 42.4762ZM116.99 41.7927C117.198 41.7927 117.389 41.7409 117.565 41.6374C117.741 41.5338 117.881 41.3837 117.985 41.1869C117.56 41.0937 117.177 40.928 116.835 40.6898C116.493 40.4517 116.229 40.2083 116.043 39.9598C115.898 39.9908 115.825 40.1306 115.825 40.3792C115.825 40.7209 115.924 41.0419 116.121 41.3422C116.317 41.6426 116.607 41.7927 116.99 41.7927ZM118.109 40.7209C118.13 40.6484 118.142 40.5625 118.146 40.463C118.152 40.3657 118.155 40.2911 118.155 40.2394C118.145 39.7734 118.083 39.3125 117.969 38.8569C117.855 38.4012 117.741 37.9352 117.627 37.4588C117.441 37.7799 117.223 38.1268 116.975 38.4996C116.726 38.8724 116.493 39.1727 116.276 39.4005C116.442 39.6802 116.685 39.9442 117.006 40.1928C117.327 40.4413 117.695 40.6173 118.109 40.7209Z" fill="#222222" fill-opacity="0.9"/>
</svg>
