<svg width="195" height="212" viewBox="0 0 195 212" fill="none" xmlns="http://www.w3.org/2000/svg">
<rect width="195" height="212" fill="#1E1E1E"/>
<g clip-path="url(#clip0_0_1)">
<rect width="393" height="2325" transform="translate(0 -575)" fill="white"/>
<path d="M162.566 19V6.31H164.042V19H162.566ZM170.483 19.162C169.451 19.162 168.677 18.892 168.161 18.352C167.645 17.8 167.387 17.008 167.387 15.976V11.386H165.677V10.252H167.387V7.57H168.845V10.252H171.617V11.386H168.845V15.832C168.845 16.516 168.989 17.038 169.277 17.398C169.565 17.746 170.033 17.92 170.681 17.92C170.873 17.92 171.065 17.896 171.257 17.848C171.449 17.8 171.623 17.752 171.779 17.704L172.031 18.82C171.875 18.904 171.647 18.982 171.347 19.054C171.047 19.126 170.759 19.162 170.483 19.162ZM181.399 19.162C180.367 19.162 179.593 18.892 179.077 18.352C178.561 17.8 178.303 17.008 178.303 15.976V11.386H176.593V10.252H178.303V7.57H179.761V10.252H182.533V11.386H179.761V15.832C179.761 16.516 179.905 17.038 180.193 17.398C180.481 17.746 180.949 17.92 181.597 17.92C181.789 17.92 181.981 17.896 182.173 17.848C182.365 17.8 182.539 17.752 182.695 17.704L182.947 18.82C182.791 18.904 182.563 18.982 182.263 19.054C181.963 19.126 181.675 19.162 181.399 19.162ZM186.936 19.162C186.336 19.162 185.796 19.048 185.316 18.82C184.848 18.58 184.476 18.256 184.2 17.848C183.924 17.44 183.786 16.984 183.786 16.48C183.786 15.844 183.948 15.34 184.272 14.968C184.608 14.596 185.154 14.332 185.91 14.176C186.678 14.008 187.722 13.924 189.042 13.924H189.618V13.366C189.618 12.622 189.462 12.088 189.15 11.764C188.85 11.428 188.364 11.26 187.692 11.26C187.164 11.26 186.654 11.338 186.162 11.494C185.67 11.638 185.166 11.878 184.65 12.214L184.146 11.152C184.602 10.828 185.154 10.57 185.802 10.378C186.462 10.186 187.092 10.09 187.692 10.09C188.82 10.09 189.654 10.366 190.194 10.918C190.746 11.47 191.022 12.328 191.022 13.492V19H189.654V17.488C189.426 18.004 189.072 18.412 188.592 18.712C188.124 19.012 187.572 19.162 186.936 19.162ZM187.17 18.064C187.89 18.064 188.478 17.818 188.934 17.326C189.39 16.822 189.618 16.186 189.618 15.418V14.878H189.06C188.088 14.878 187.32 14.926 186.756 15.022C186.204 15.106 185.814 15.262 185.586 15.49C185.37 15.706 185.262 16.006 185.262 16.39C185.262 16.882 185.43 17.284 185.766 17.596C186.114 17.908 186.582 18.064 187.17 18.064ZM193.727 19V6.31H195.185V14.14H195.221L199.271 10.252H201.125L196.733 14.464L201.503 19H199.649L195.221 14.896H195.185V19H193.727ZM206.441 19.162C205.061 19.162 203.969 18.76 203.165 17.956C202.361 17.14 201.959 16.036 201.959 14.644C201.959 13.744 202.139 12.952 202.499 12.268C202.859 11.572 203.351 11.038 203.975 10.666C204.611 10.282 205.343 10.09 206.171 10.09C207.359 10.09 208.289 10.474 208.961 11.242C209.633 11.998 209.969 13.042 209.969 14.374V14.932H203.381C203.429 15.928 203.717 16.69 204.245 17.218C204.773 17.734 205.505 17.992 206.441 17.992C206.969 17.992 207.473 17.914 207.953 17.758C208.433 17.59 208.889 17.32 209.321 16.948L209.825 17.974C209.429 18.346 208.925 18.64 208.313 18.856C207.701 19.06 207.077 19.162 206.441 19.162ZM206.207 11.17C205.379 11.17 204.725 11.428 204.245 11.944C203.765 12.46 203.483 13.138 203.399 13.978H208.709C208.673 13.09 208.439 12.4 208.007 11.908C207.587 11.416 206.987 11.17 206.207 11.17ZM215.031 19.162C214.347 19.162 213.699 19.066 213.087 18.874C212.475 18.682 211.971 18.412 211.575 18.064L212.043 17.038C212.475 17.386 212.949 17.644 213.465 17.812C213.993 17.968 214.527 18.046 215.067 18.046C215.751 18.046 216.267 17.92 216.615 17.668C216.963 17.416 217.137 17.074 217.137 16.642C217.137 16.306 217.023 16.042 216.795 15.85C216.567 15.646 216.207 15.49 215.715 15.382L214.077 15.022C212.589 14.698 211.845 13.93 211.845 12.718C211.845 11.926 212.157 11.29 212.781 10.81C213.417 10.33 214.245 10.09 215.265 10.09C215.865 10.09 216.435 10.186 216.975 10.378C217.527 10.558 217.983 10.828 218.343 11.188L217.857 12.214C217.509 11.89 217.101 11.644 216.633 11.476C216.177 11.296 215.721 11.206 215.265 11.206C214.593 11.206 214.083 11.338 213.735 11.602C213.387 11.866 213.213 12.214 213.213 12.646C213.213 13.318 213.657 13.75 214.545 13.942L216.183 14.284C216.951 14.452 217.533 14.722 217.929 15.094C218.325 15.454 218.523 15.946 218.523 16.57C218.523 17.374 218.205 18.01 217.569 18.478C216.933 18.934 216.087 19.162 215.031 19.162ZM228.464 19.162C226.364 19.162 225.314 18.004 225.314 15.688V10.252H226.772V15.67C226.772 16.45 226.928 17.026 227.24 17.398C227.564 17.77 228.068 17.956 228.752 17.956C229.496 17.956 230.102 17.71 230.57 17.218C231.038 16.714 231.272 16.048 231.272 15.22V10.252H232.73V19H231.308V17.524C231.032 18.052 230.642 18.46 230.138 18.748C229.646 19.024 229.088 19.162 228.464 19.162ZM238.41 19.162C237.726 19.162 237.078 19.066 236.466 18.874C235.854 18.682 235.35 18.412 234.954 18.064L235.422 17.038C235.854 17.386 236.328 17.644 236.844 17.812C237.372 17.968 237.906 18.046 238.446 18.046C239.13 18.046 239.646 17.92 239.994 17.668C240.342 17.416 240.516 17.074 240.516 16.642C240.516 16.306 240.402 16.042 240.174 15.85C239.946 15.646 239.586 15.49 239.094 15.382L237.456 15.022C235.968 14.698 235.224 13.93 235.224 12.718C235.224 11.926 235.536 11.29 236.16 10.81C236.796 10.33 237.624 10.09 238.644 10.09C239.244 10.09 239.814 10.186 240.354 10.378C240.906 10.558 241.362 10.828 241.722 11.188L241.236 12.214C240.888 11.89 240.48 11.644 240.012 11.476C239.556 11.296 239.1 11.206 238.644 11.206C237.972 11.206 237.462 11.338 237.114 11.602C236.766 11.866 236.592 12.214 236.592 12.646C236.592 13.318 237.036 13.75 237.924 13.942L239.562 14.284C240.33 14.452 240.912 14.722 241.308 15.094C241.704 15.454 241.902 15.946 241.902 16.57C241.902 17.374 241.584 18.01 240.948 18.478C240.312 18.934 239.466 19.162 238.41 19.162Z" fill="black"/>
<path d="M167.22 53.18C166.313 53.18 165.433 53.04 164.58 52.76C163.74 52.4667 163.04 52.06 162.48 51.54L163.18 49.94C164.407 50.9267 165.74 51.42 167.18 51.42C168.1 51.42 168.82 51.1733 169.34 50.68C169.86 50.1733 170.12 49.5133 170.12 48.7C170.12 47.86 169.873 47.1733 169.38 46.64C168.887 46.1067 168.2 45.84 167.32 45.84C166.08 45.84 165.087 46.3533 164.34 47.38H162.9V38.9H171.3V40.64H164.92V45.1C165.667 44.4467 166.613 44.12 167.76 44.12C168.653 44.12 169.427 44.3067 170.08 44.68C170.733 45.0533 171.24 45.58 171.6 46.26C171.96 46.9267 172.14 47.7067 172.14 48.6C172.14 49.5067 171.94 50.3067 171.54 51C171.14 51.68 170.573 52.2133 169.84 52.6C169.107 52.9867 168.233 53.18 167.22 53.18ZM179.706 53V43.24H181.666V44.82C181.959 44.26 182.366 43.8267 182.886 43.52C183.406 43.2133 184.013 43.06 184.706 43.06C186.199 43.06 187.166 43.7133 187.606 45.02C187.913 44.4067 188.353 43.9267 188.926 43.58C189.499 43.2333 190.153 43.06 190.886 43.06C193.073 43.06 194.166 44.3667 194.166 46.98V53H192.146V47.08C192.146 46.2533 191.999 45.6467 191.706 45.26C191.426 44.8733 190.959 44.68 190.306 44.68C189.573 44.68 188.993 44.94 188.566 45.46C188.139 45.9667 187.926 46.66 187.926 47.54V53H185.906V47.08C185.906 46.2533 185.766 45.6467 185.486 45.26C185.206 44.8733 184.739 44.68 184.086 44.68C183.353 44.68 182.773 44.94 182.346 45.46C181.933 45.9667 181.726 46.66 181.726 47.54V53H179.706ZM196.81 40.98V38.88H199.17V40.98H196.81ZM196.99 53V43.24H199.01V53H196.99ZM201.854 53V43.24H203.814V44.86C204.147 44.2733 204.6 43.8267 205.174 43.52C205.76 43.2133 206.414 43.06 207.134 43.06C209.44 43.06 210.594 44.3667 210.594 46.98V53H208.574V47.1C208.574 46.26 208.407 45.6467 208.074 45.26C207.754 44.8733 207.247 44.68 206.554 44.68C205.74 44.68 205.087 44.94 204.594 45.46C204.114 45.9667 203.874 46.64 203.874 47.48V53H201.854ZM216.797 53.18C215.997 53.18 215.25 53.08 214.557 52.88C213.864 52.6667 213.284 52.3733 212.817 52L213.397 50.64C213.89 50.9867 214.43 51.2533 215.017 51.44C215.617 51.6267 216.217 51.72 216.817 51.72C217.524 51.72 218.057 51.5933 218.417 51.34C218.777 51.0867 218.957 50.7467 218.957 50.32C218.957 49.9733 218.837 49.7067 218.597 49.52C218.357 49.32 217.997 49.1667 217.517 49.06L215.617 48.68C213.937 48.3333 213.097 47.4667 213.097 46.08C213.097 45.16 213.464 44.4267 214.197 43.88C214.93 43.3333 215.89 43.06 217.077 43.06C217.757 43.06 218.404 43.16 219.017 43.36C219.644 43.56 220.164 43.86 220.577 44.26L219.997 45.62C219.597 45.2733 219.137 45.0067 218.617 44.82C218.097 44.6333 217.584 44.54 217.077 44.54C216.384 44.54 215.857 44.6733 215.497 44.94C215.137 45.1933 214.957 45.54 214.957 45.98C214.957 46.6467 215.397 47.0733 216.277 47.26L218.177 47.64C219.044 47.8133 219.697 48.1067 220.137 48.52C220.59 48.9333 220.817 49.4933 220.817 50.2C220.817 51.1333 220.45 51.8667 219.717 52.4C218.984 52.92 218.01 53.18 216.797 53.18ZM232.201 53.18C231.055 53.18 230.195 52.88 229.621 52.28C229.048 51.6667 228.761 50.7867 228.761 49.64V44.54H226.861V43.28H228.761V40.3H230.381V43.28H233.461V44.54H230.381V49.48C230.381 50.24 230.541 50.82 230.861 51.22C231.181 51.6067 231.701 51.8 232.421 51.8C232.635 51.8 232.848 51.7733 233.061 51.72C233.275 51.6667 233.468 51.6133 233.641 51.56L233.921 52.8C233.748 52.8933 233.495 52.98 233.161 53.06C232.828 53.14 232.508 53.18 232.201 53.18ZM239.236 53.18C238.289 53.18 237.469 52.9733 236.776 52.56C236.082 52.1467 235.542 51.5667 235.156 50.82C234.782 50.06 234.596 49.1667 234.596 48.14C234.596 47.1133 234.782 46.2267 235.156 45.48C235.542 44.72 236.082 44.1333 236.776 43.72C237.469 43.3067 238.289 43.1 239.236 43.1C240.169 43.1 240.982 43.3067 241.676 43.72C242.382 44.1333 242.922 44.72 243.296 45.48C243.682 46.2267 243.876 47.1133 243.876 48.14C243.876 49.1667 243.682 50.06 243.296 50.82C242.922 51.5667 242.382 52.1467 241.676 52.56C240.982 52.9733 240.169 53.18 239.236 53.18ZM239.236 51.88C240.142 51.88 240.869 51.56 241.416 50.92C241.962 50.2667 242.236 49.34 242.236 48.14C242.236 46.9267 241.962 46 241.416 45.36C240.869 44.72 240.142 44.4 239.236 44.4C238.316 44.4 237.582 44.72 237.036 45.36C236.502 46 236.236 46.9267 236.236 48.14C236.236 49.34 236.502 50.2667 237.036 50.92C237.582 51.56 238.316 51.88 239.236 51.88ZM251.446 53V43.28H253.026V45.02C253.546 43.8467 254.612 43.2 256.226 43.08L256.806 43.02L256.926 44.42L255.906 44.54C254.986 44.62 254.286 44.9133 253.806 45.42C253.326 45.9133 253.086 46.5933 253.086 47.46V53H251.446ZM262.877 53.18C261.343 53.18 260.13 52.7333 259.237 51.84C258.343 50.9333 257.897 49.7067 257.897 48.16C257.897 47.16 258.097 46.28 258.497 45.52C258.897 44.7467 259.443 44.1533 260.137 43.74C260.843 43.3133 261.657 43.1 262.577 43.1C263.897 43.1 264.93 43.5267 265.677 44.38C266.423 45.22 266.797 46.38 266.797 47.86V48.48H259.477C259.53 49.5867 259.85 50.4333 260.437 51.02C261.023 51.5933 261.837 51.88 262.877 51.88C263.463 51.88 264.023 51.7933 264.557 51.62C265.09 51.4333 265.597 51.1333 266.077 50.72L266.637 51.86C266.197 52.2733 265.637 52.6 264.957 52.84C264.277 53.0667 263.583 53.18 262.877 53.18ZM262.617 44.3C261.697 44.3 260.97 44.5867 260.437 45.16C259.903 45.7333 259.59 46.4867 259.497 47.42H265.397C265.357 46.4333 265.097 45.6667 264.617 45.12C264.15 44.5733 263.483 44.3 262.617 44.3ZM272.201 53.18C271.534 53.18 270.934 53.0533 270.401 52.8C269.881 52.5333 269.468 52.1733 269.161 51.72C268.854 51.2667 268.701 50.76 268.701 50.2C268.701 49.4933 268.881 48.9333 269.241 48.52C269.614 48.1067 270.221 47.8133 271.061 47.64C271.914 47.4533 273.074 47.36 274.541 47.36H275.181V46.74C275.181 45.9133 275.008 45.32 274.661 44.96C274.328 44.5867 273.788 44.4 273.041 44.4C272.454 44.4 271.888 44.4867 271.341 44.66C270.794 44.82 270.234 45.0867 269.661 45.46L269.101 44.28C269.608 43.92 270.221 43.6333 270.941 43.42C271.674 43.2067 272.374 43.1 273.041 43.1C274.294 43.1 275.221 43.4067 275.821 44.02C276.434 44.6333 276.741 45.5867 276.741 46.88V53H275.221V51.32C274.968 51.8933 274.574 52.3467 274.041 52.68C273.521 53.0133 272.908 53.18 272.201 53.18ZM272.461 51.96C273.261 51.96 273.914 51.6867 274.421 51.14C274.928 50.58 275.181 49.8733 275.181 49.02V48.42H274.561C273.481 48.42 272.628 48.4733 272.001 48.58C271.388 48.6733 270.954 48.8467 270.701 49.1C270.461 49.34 270.341 49.6733 270.341 50.1C270.341 50.6467 270.528 51.0933 270.901 51.44C271.288 51.7867 271.808 51.96 272.461 51.96ZM283.867 53.18C282.893 53.18 282.053 52.9733 281.347 52.56C280.64 52.1333 280.093 51.54 279.707 50.78C279.333 50.0067 279.147 49.1067 279.147 48.08C279.147 46.5333 279.567 45.32 280.407 44.44C281.247 43.5467 282.4 43.1 283.867 43.1C284.467 43.1 285.06 43.2067 285.647 43.42C286.233 43.6333 286.72 43.9333 287.107 44.32L286.547 45.5C286.16 45.1267 285.733 44.8533 285.267 44.68C284.813 44.5067 284.38 44.42 283.967 44.42C282.953 44.42 282.173 44.74 281.627 45.38C281.08 46.0067 280.807 46.9133 280.807 48.1C280.807 49.26 281.08 50.18 281.627 50.86C282.173 51.5267 282.953 51.86 283.967 51.86C284.38 51.86 284.813 51.7733 285.267 51.6C285.733 51.4267 286.16 51.1467 286.547 50.76L287.107 51.94C286.72 52.3267 286.227 52.6333 285.627 52.86C285.04 53.0733 284.453 53.18 283.867 53.18ZM289.004 53V38.9H290.624V44.88C290.944 44.2933 291.391 43.8533 291.964 43.56C292.551 43.2533 293.204 43.1 293.924 43.1C296.231 43.1 297.384 44.38 297.384 46.94V53H295.764V47.04C295.764 46.1333 295.584 45.4733 295.224 45.06C294.878 44.6333 294.318 44.42 293.544 44.42C292.651 44.42 291.938 44.7 291.404 45.26C290.884 45.8067 290.624 46.54 290.624 47.46V53H289.004ZM306.628 56.6L308.288 52.84L304.188 43.28H305.948L309.168 51.16L312.408 43.28H314.108L308.328 56.6H306.628ZM319.685 53.18C318.738 53.18 317.918 52.9733 317.225 52.56C316.532 52.1467 315.992 51.5667 315.605 50.82C315.232 50.06 315.045 49.1667 315.045 48.14C315.045 47.1133 315.232 46.2267 315.605 45.48C315.992 44.72 316.532 44.1333 317.225 43.72C317.918 43.3067 318.738 43.1 319.685 43.1C320.618 43.1 321.432 43.3067 322.125 43.72C322.832 44.1333 323.372 44.72 323.745 45.48C324.132 46.2267 324.325 47.1133 324.325 48.14C324.325 49.1667 324.132 50.06 323.745 50.82C323.372 51.5667 322.832 52.1467 322.125 52.56C321.432 52.9733 320.618 53.18 319.685 53.18ZM319.685 51.88C320.592 51.88 321.318 51.56 321.865 50.92C322.412 50.2667 322.685 49.34 322.685 48.14C322.685 46.9267 322.412 46 321.865 45.36C321.318 44.72 320.592 44.4 319.685 44.4C318.765 44.4 318.032 44.72 317.485 45.36C316.952 46 316.685 46.9267 316.685 48.14C316.685 49.34 316.952 50.2667 317.485 50.92C318.032 51.56 318.765 51.88 319.685 51.88ZM330.198 53.18C327.865 53.18 326.698 51.8933 326.698 49.32V43.28H328.318V49.3C328.318 50.1667 328.492 50.8067 328.838 51.22C329.198 51.6333 329.758 51.84 330.518 51.84C331.345 51.84 332.018 51.5667 332.538 51.02C333.058 50.46 333.318 49.72 333.318 48.8V43.28H334.938V53H333.358V51.36C333.052 51.9467 332.618 52.4 332.058 52.72C331.512 53.0267 330.892 53.18 330.198 53.18Z" fill="black"/>
<path d="M19.8579 110.609C20.6926 112.355 20.4379 114.451 19.6299 116.209C18.8206 117.966 17.5126 119.454 16.206 120.897C14.8846 122.355 13.4526 124.099 13.7993 126.016C13.8859 126.494 14.0819 126.986 13.9286 127.446C13.6486 128.289 12.3939 128.505 12.1019 129.343C11.8246 130.139 12.5766 131.072 12.1686 131.812C11.7859 132.506 10.6193 132.374 10.1326 131.743C9.64461 131.113 9.65796 130.249 9.74863 129.464C10.054 126.844 10.9993 124.297 12.4846 122.095C13.5913 120.456 15.0139 118.96 15.5979 117.081C16.1046 115.454 15.9286 113.712 16.0113 112.014C16.1793 108.556 18.0646 106.856 19.8579 110.609Z" fill="#CA0007"/>
<path fill-rule="evenodd" clip-rule="evenodd" d="M10.1042 152.434C-4.0998 152.434 -15.6172 163.684 -15.6172 177.561C-15.6172 191.438 -4.0998 202.688 10.1042 202.688C24.3095 202.688 35.8255 191.438 35.8255 177.561C35.8255 163.684 24.3095 152.434 10.1042 152.434ZM10.1042 143.749C29.2202 143.749 44.7162 158.887 44.7162 177.561C44.7162 196.235 29.2202 211.373 10.1042 211.373C-9.01047 211.373 -24.5078 196.235 -24.5078 177.561C-24.5078 158.887 -9.01047 143.749 10.1042 143.749Z" fill="#000044"/>
<path fill-rule="evenodd" clip-rule="evenodd" d="M10.1042 161.897C1.24817 161.897 -5.9305 168.91 -5.9305 177.561C-5.9305 186.214 1.24817 193.226 10.1042 193.226C18.9615 193.226 26.1402 186.214 26.1402 177.561C26.1402 168.91 18.9615 161.897 10.1042 161.897ZM10.1042 152.434C24.3095 152.434 35.8255 163.684 35.8255 177.561C35.8255 191.438 24.3095 202.688 10.1042 202.688C-4.09983 202.688 -15.6172 191.438 -15.6172 177.561C-15.6172 163.684 -4.09983 152.434 10.1042 152.434Z" fill="#A9C2C2"/>
<path d="M10.1049 154.544C-2.90708 154.544 -13.4551 164.848 -13.4551 177.561C-13.4551 190.273 -2.90708 200.578 10.1049 200.578C23.1183 200.578 33.6662 190.273 33.6662 177.561C33.6662 164.848 23.1183 154.544 10.1049 154.544ZM10.1049 195.338C0.0569162 195.338 -8.09108 187.377 -8.09108 177.561C-8.09108 167.745 0.0569162 159.785 10.1049 159.785C20.1543 159.785 28.3009 167.745 28.3009 177.561C28.3009 187.377 20.1543 195.338 10.1049 195.338Z" fill="#7E9191"/>
<path fill-rule="evenodd" clip-rule="evenodd" d="M6.96729 171.989C7.38995 171.761 7.83528 171.582 8.28994 171.453L9.15261 160.499H10.1046H11.0579L11.9206 171.453C12.3766 171.582 12.8206 171.761 13.2433 171.989L21.782 164.839L22.4553 165.496L23.1286 166.155L15.81 174.497C16.0433 174.909 16.2259 175.344 16.3579 175.788L27.5713 176.63V177.561V178.492L16.3566 179.335C16.2259 179.779 16.0433 180.213 15.81 180.627L23.1286 188.968L22.4553 189.626L21.782 190.284L13.242 183.133C12.8193 183.361 12.3766 183.54 11.9206 183.669L11.0579 194.624H10.1046H9.15261L8.28994 183.67C7.83528 183.541 7.38995 183.361 6.96729 183.134L-1.57005 190.284L-2.24473 189.626L-2.91803 188.968L4.40062 180.627C4.16729 180.214 3.9846 179.779 3.8526 179.335L-7.35938 178.492V177.561V176.63L3.8526 175.788C3.9846 175.344 4.16729 174.909 4.40062 174.497L-2.91803 166.155L-2.24473 165.496L-1.57005 164.839L6.96729 171.989Z" fill="#A9C2C2"/>
<path fill-rule="evenodd" clip-rule="evenodd" d="M159.729 185.196C164.033 185.196 167.545 181.767 167.545 177.561C167.545 173.356 164.033 169.927 159.729 169.927C155.424 169.927 151.912 173.356 151.912 177.561C151.912 181.767 155.424 185.196 159.729 185.196Z" fill="#A9C2C2"/>
<path fill-rule="evenodd" clip-rule="evenodd" d="M165.256 172.163C168.308 175.145 168.308 179.978 165.256 182.961C162.204 185.943 157.255 185.943 154.203 182.961C151.151 179.978 151.151 175.145 154.203 172.163C157.255 169.182 162.204 169.182 165.256 172.163Z" fill="#A9C2C2"/>
<path fill-rule="evenodd" clip-rule="evenodd" d="M167.547 177.561C167.547 181.778 164.046 185.196 159.73 185.196C155.413 185.196 151.914 181.778 151.914 177.561C151.914 173.345 155.413 169.927 159.73 169.927C164.046 169.927 167.547 173.345 167.547 177.561Z" fill="#A9C2C2"/>
<path fill-rule="evenodd" clip-rule="evenodd" d="M165.256 182.961C162.204 185.943 157.255 185.943 154.203 182.961C151.151 179.98 151.151 175.145 154.203 172.163C157.255 169.182 162.204 169.182 165.256 172.163C168.308 175.145 168.308 179.98 165.256 182.961Z" fill="#A9C2C2"/>
<path fill-rule="evenodd" clip-rule="evenodd" d="M159.729 185.196C155.412 185.196 151.912 181.778 151.912 177.562C151.912 173.345 155.412 169.927 159.729 169.927C164.045 169.927 167.545 173.345 167.545 177.562C167.545 181.778 164.045 185.196 159.729 185.196Z" fill="#A9C2C2"/>
<path fill-rule="evenodd" clip-rule="evenodd" d="M154.203 182.961C151.151 179.98 151.151 175.145 154.203 172.163C157.255 169.182 162.203 169.182 165.256 172.163C168.308 175.145 168.308 179.98 165.256 182.961C162.203 185.943 157.255 185.943 154.203 182.961Z" fill="#A9C2C2"/>
<path fill-rule="evenodd" clip-rule="evenodd" d="M151.912 177.561C151.912 173.345 155.412 169.927 159.728 169.927C164.045 169.927 167.545 173.345 167.545 177.561C167.545 181.778 164.045 185.196 159.728 185.196C155.412 185.196 151.912 181.778 151.912 177.561Z" fill="#A9C2C2"/>
<path fill-rule="evenodd" clip-rule="evenodd" d="M159.729 152.434C145.523 152.434 134.008 163.684 134.008 177.561C134.008 191.438 145.523 202.688 159.729 202.688C173.935 202.688 185.449 191.438 185.449 177.561C185.449 163.684 173.935 152.434 159.729 152.434ZM159.729 143.749C178.844 143.749 194.341 158.887 194.341 177.561C194.341 196.235 178.844 211.373 159.729 211.373C140.613 211.373 125.117 196.235 125.117 177.561C125.117 158.887 140.613 143.749 159.729 143.749Z" fill="#000044"/>
<path fill-rule="evenodd" clip-rule="evenodd" d="M159.729 161.897C150.873 161.897 143.693 168.91 143.693 177.561C143.693 186.214 150.873 193.226 159.729 193.226C168.585 193.226 175.764 186.214 175.764 177.561C175.764 168.91 168.585 161.897 159.729 161.897ZM159.729 152.434C173.934 152.434 185.449 163.684 185.449 177.561C185.449 191.438 173.934 202.688 159.729 202.688C145.522 202.688 134.008 191.438 134.008 177.561C134.008 163.684 145.522 152.434 159.729 152.434Z" fill="#A9C2C2"/>
<path d="M159.729 154.544C146.716 154.544 136.168 164.848 136.168 177.561C136.168 190.273 146.716 200.578 159.729 200.578C172.741 200.578 183.289 190.273 183.289 177.561C183.289 164.848 172.741 154.544 159.729 154.544ZM159.729 195.338C149.681 195.338 141.532 187.377 141.532 177.561C141.532 167.745 149.681 159.785 159.729 159.785C169.776 159.785 177.925 167.745 177.925 177.561C177.925 187.377 169.776 195.338 159.729 195.338Z" fill="#7E9191"/>
<path fill-rule="evenodd" clip-rule="evenodd" d="M156.59 171.989C157.014 171.761 157.458 171.582 157.913 171.453L158.776 160.499H159.729H160.681L161.544 171.453C162 171.582 162.442 171.761 162.866 171.989L171.405 164.839L172.078 165.496L172.753 166.155L165.433 174.497C165.666 174.909 165.849 175.344 165.981 175.788L177.194 176.63V177.561V178.492L165.981 179.335C165.849 179.779 165.666 180.213 165.433 180.627L172.753 188.968L172.078 189.626L171.404 190.284L162.866 183.133C162.442 183.361 161.998 183.54 161.544 183.669L160.681 194.624H159.729H158.776L157.913 183.67C157.458 183.541 157.014 183.361 156.59 183.134L148.052 190.284L147.38 189.626L146.705 188.968L154.024 180.627C153.79 180.214 153.608 179.779 153.476 179.335L142.264 178.492V177.561V176.63L153.476 175.788C153.608 175.344 153.79 174.909 154.024 174.497L146.705 166.155L147.38 165.496L148.052 164.839L156.59 171.989Z" fill="#A9C2C2"/>
<path fill-rule="evenodd" clip-rule="evenodd" d="M130.176 134.848L136.449 131.309L162.606 176.159C163.593 177.851 162.689 179.617 161.281 180.994C159.873 182.37 157.32 181.39 156.333 179.699L130.176 134.848Z" fill="black"/>
<path fill-rule="evenodd" clip-rule="evenodd" d="M159.729 134.328C163.761 134.328 167.666 134.857 171.379 135.844C172.499 136.141 173.31 136.939 173.607 138.035C173.907 139.133 173.607 140.218 172.786 141.021L122.323 190.318C121.502 191.12 120.39 191.413 119.269 191.122C118.145 190.831 117.329 190.037 117.022 188.941C116.013 185.316 115.473 181.501 115.473 177.561C115.473 153.685 135.287 134.328 159.729 134.328Z" fill="#9F0B0F"/>
<path fill-rule="evenodd" clip-rule="evenodd" d="M8.7808 125.885L77.4421 124.901C64.4795 149.772 63.9075 167.753 77.4421 182.751H45.9874L43.7621 180.604H-32.0112C-33.9312 180.604 -35.5832 179.873 -36.8486 178.461C-38.1126 177.05 -38.6366 175.352 -38.3832 173.493C-34.9299 148.233 -19.1366 129.486 5.98744 128.184C8.98344 128.027 9.3528 126.541 8.7808 125.885Z" fill="#B0040A"/>
<path fill-rule="evenodd" clip-rule="evenodd" d="M67.0191 179.374H70.4911C59.9364 163.314 63.7564 145.507 71.8737 128.361L69.1577 128.4C66.7737 128.432 64.7591 129.794 63.8818 131.957C57.8778 146.786 55.4671 161.864 61.7311 175.982C62.6644 178.086 64.6711 179.374 67.0191 179.374Z" fill="#CA0007"/>
<path fill-rule="evenodd" clip-rule="evenodd" d="M45.3273 181.262H75.9393C85.678 181.262 98.7633 182.629 104.883 172.701L131.746 129.125C135.162 123.582 135.199 119.35 133.349 111.809L127.209 86.8063C126.663 84.5842 126.413 82.8349 128.593 82.8349H131.409C134.101 82.8349 136.373 84.5789 137.009 87.1358L142.443 108.975C143.542 113.391 147.27 127.991 144.89 131.896L112.019 185.771H109.99H97.3407H44.6953C44.9846 184.292 45.1953 182.789 45.3273 181.262Z" fill="#CA0007"/>
<path fill-rule="evenodd" clip-rule="evenodd" d="M111.302 185.398H44.1538C43.7071 185.398 43.3418 185.754 43.3418 186.192V189.122C43.3418 189.559 43.7071 189.916 44.1538 189.916H111.302C111.748 189.916 112.114 189.559 112.114 189.122V186.192C112.114 185.754 111.748 185.398 111.302 185.398Z" fill="#B0040A"/>
<path fill-rule="evenodd" clip-rule="evenodd" d="M10.0127 132.896C34.77 132.896 55.226 150.894 58.4153 174.229C58.6433 175.895 58.1727 177.415 57.0394 178.681C55.9047 179.947 54.422 180.604 52.7007 180.604H-32.6767C-34.398 180.604 -35.8807 179.947 -37.0153 178.681C-38.1487 177.416 -38.6193 175.894 -38.3913 174.229C-35.2006 150.894 -14.746 132.896 10.0127 132.896Z" fill="#CA0007"/>
<path fill-rule="evenodd" clip-rule="evenodd" d="M10.0127 137.507C31.0314 137.507 48.398 152.788 51.106 172.597C51.2994 174.012 50.9007 175.305 49.938 176.38C49.8127 176.517 49.682 176.649 49.5474 176.771C44.2407 160.38 28.5474 148.495 10.0127 148.495C-8.52329 148.495 -24.2153 160.38 -29.5233 176.771C-29.658 176.649 -29.7873 176.517 -29.9126 176.38C-30.8753 175.305 -31.274 174.012 -31.082 172.597C-28.3727 152.788 -11.0073 137.507 10.0127 137.507Z" fill="#B10B09"/>
<path fill-rule="evenodd" clip-rule="evenodd" d="M7.56634 113.5H77.7183C78.557 113.5 79.2437 114.171 79.2437 114.99V124.396C79.2437 125.215 78.557 125.885 77.7183 125.885H7.56634C6.72767 125.885 6.04102 125.215 6.04102 124.396V114.99C6.04102 114.171 6.72767 113.5 7.56634 113.5Z" fill="black"/>
<path fill-rule="evenodd" clip-rule="evenodd" d="M-43.1413 38.4776H37.6866C39.26 38.4776 40.5467 39.7345 40.5467 41.2715V110.549C40.5467 112.086 39.26 113.341 37.6866 113.341H-43.1413C-44.7147 113.341 -46 112.086 -46 110.549V41.2715C-46 39.7345 -44.7147 38.4776 -43.1413 38.4776Z" fill="#CA0007"/>
<path fill-rule="evenodd" clip-rule="evenodd" d="M-38.5129 42.7654H33.0564C34.4497 42.7654 35.5897 43.8777 35.5897 45.2389V70.6953C10.0444 80.8146 -23.1249 57.2247 -41.0449 90.4351V45.2389C-41.0449 43.8777 -39.9063 42.7654 -38.5129 42.7654Z" fill="#B10B09"/>
<path fill-rule="evenodd" clip-rule="evenodd" d="M14.5285 87.2219C10.7978 92.6417 4.46316 96.208 -2.72617 96.208C-13.4328 96.208 -22.2475 88.2978 -23.3809 78.1329L-10.3169 80.6663L-15.5395 85.5273L14.5285 87.2219ZM-2.72617 55.611C8.7485 55.611 18.0525 64.7 18.0525 75.9095C18.0525 76.3797 18.0352 76.8473 18.0032 77.3097L7.71384 73.2224L11.9925 69.2406L-14.0568 58.8934C-10.7982 56.8185 -6.90617 55.611 -2.72617 55.611Z" fill="white"/>
<path fill-rule="evenodd" clip-rule="evenodd" d="M-19.8382 60.2441L-33.2969 72.7666L-3.10355 78.6201L-7.38356 82.6032L27.0204 84.54L1.4511 74.383L5.73112 70.4012L-19.8382 60.2441Z" fill="white"/>
<path fill-rule="evenodd" clip-rule="evenodd" d="M147.356 92.1978C149.104 92.0545 150.837 95.5882 151.228 100.092C151.619 104.595 150.519 108.363 148.769 108.508C147.023 108.653 145.289 105.119 144.899 100.616C144.509 96.1118 145.609 92.3423 147.356 92.1978Z" fill="#F1CF00"/>
<path fill-rule="evenodd" clip-rule="evenodd" d="M146.654 91.1216L146.697 91.1176C147.326 91.0499 147.897 91.4941 147.969 92.1089L149.861 108.281C149.933 108.894 149.479 109.453 148.85 109.527L148.807 109.531C142.923 110.188 137.671 106.601 137.077 101.516C136.482 96.4319 140.77 91.7793 146.654 91.1216Z" fill="#9F0B0F"/>
<path fill-rule="evenodd" clip-rule="evenodd" d="M144.797 91.4732L147.214 109.607C147.74 109.615 148.27 109.591 148.808 109.531L148.85 109.528C149.48 109.453 149.933 108.894 149.861 108.281L147.969 92.1089C147.897 91.4941 147.326 91.0499 146.697 91.1177L146.654 91.1216C146.014 91.1932 145.394 91.3117 144.797 91.4732Z" fill="#9DC6C6"/>
<path fill-rule="evenodd" clip-rule="evenodd" d="M130.233 84.8006L117.493 81.6042C116.831 81.4388 116.154 81.8309 115.983 82.4743L115.653 83.7391C115.482 84.3825 115.883 85.0468 116.543 85.2122L129.283 88.4099C129.943 88.5753 130.623 88.1832 130.793 87.5385L131.125 86.2751C131.294 85.6303 130.893 84.9673 130.233 84.8006Z" fill="black"/>
<path d="M132.231 82.6977L132.156 82.7778L132.231 82.6977Z" fill="#EDB38C"/>
<path d="M77.9199 172.225C77.3759 173.381 76.7853 174.533 76.5159 175.778C76.2453 177.022 76.3319 178.4 77.0626 179.452C78.4506 181.453 81.3919 181.51 83.8599 181.354C85.0746 181.278 86.2893 181.201 87.5026 181.125C89.0586 181.027 90.868 180.782 91.6426 179.46C92.332 178.285 91.8586 176.817 91.4613 175.52C90.5599 172.584 90.1199 169.513 90.1586 166.449C90.1706 165.54 90.2186 164.597 89.872 163.754C89.3853 162.573 88.1866 161.789 86.9306 161.455C84.0959 160.702 81.94 160.768 81.1693 163.429C80.2973 166.443 79.2653 169.376 77.9199 172.225Z" fill="#191213"/>
<path d="M87.5847 131.009C88.2167 131.683 88.8674 132.401 89.0954 133.289C89.306 134.11 89.1274 134.978 88.8807 135.789C87.7954 139.367 85.4047 142.606 85.19 146.333C85.1273 147.453 85.2647 148.589 85.0487 149.692C84.806 150.93 84.1354 152.041 83.4767 153.123C82.61 154.545 81.7447 155.968 80.8794 157.39C80.342 158.273 79.7847 159.228 79.8513 160.254C79.9753 162.187 82.1274 163.29 84.0074 163.904C85.098 164.258 86.4594 164.52 87.2607 163.715C87.5887 163.386 87.7487 162.935 87.8994 162.498C91.162 153.037 94.426 143.575 97.69 134.115C98.506 131.749 99.3233 129.15 98.4207 126.813C97.4287 124.242 94.686 122.807 92.1607 121.597C89.814 120.474 87.4673 119.35 85.122 118.225C83.0673 117.242 80.2754 116.379 78.7687 118.06C76.6674 120.409 78.6994 122.327 80.4087 123.58C83.062 125.526 85.3433 128.619 87.5847 131.009Z" fill="#2E4C5E"/>
<path d="M82.7627 173.082C81.9441 175.088 81.1094 177.195 81.3481 179.34C81.3988 179.809 81.5174 180.302 81.8614 180.628C82.1561 180.907 82.5681 181.024 82.9641 181.127C89.8187 182.909 97.0787 183.184 104.053 181.928C105.064 181.747 106.105 181.515 106.913 180.899C107.723 180.281 108.224 179.166 107.815 178.245C107.309 177.112 105.821 176.845 104.564 176.707C102.316 176.457 100.019 176.105 98.0467 175.021C96.0747 173.936 94.4694 171.964 94.4507 169.754C94.4361 168.075 95.1921 166.047 93.8974 164.944C93.2801 164.419 92.4001 164.342 91.5827 164.288C88.8707 164.116 87.4561 163.543 85.8094 165.487C84.3574 167.197 83.5854 170.989 82.7627 173.082Z" fill="#281B1C"/>
<path d="M48.2249 62.4416C42.3982 73.1457 39.4502 85.082 36.5596 96.8724C36.3049 97.9131 36.0489 99.0085 36.3409 100.04C36.6329 101.073 37.6783 101.986 38.7476 101.759C38.7649 102.773 38.7796 103.789 38.7956 104.805C40.2529 106.859 42.8529 107.914 45.4023 108.126C47.9516 108.338 50.4996 107.817 53.0023 107.3C58.4183 106.18 63.8342 105.061 69.2502 103.942C70.3409 103.717 71.5223 103.44 72.2156 102.588C72.9089 101.733 72.6542 100.139 71.5556 99.9542C75.3982 99.2795 77.0129 94.8626 77.9076 91.1491C78.8049 87.4226 79.7036 83.6974 80.6023 79.9696C82.0289 74.0509 83.4623 68.075 83.5463 61.9935C83.6063 57.4985 83.1582 52.3587 86.4209 49.1871C87.4409 48.1946 88.8049 47.4287 89.3116 46.1144C90.0863 44.0981 88.4769 42.018 86.9809 40.4355C85.0329 38.3749 83.0863 36.3143 81.1383 34.2537C80.8249 33.9202 80.4622 33.5647 79.9996 33.5347C79.4596 33.5009 79.0143 33.9229 78.6463 34.311C75.8049 37.3133 73.9863 38.5038 70.3036 40.2622C67.0356 41.824 64.0089 43.8416 61.2542 46.1587C56.2382 50.3789 50.7196 56.3497 48.2249 62.4416Z" fill="#A11211"/>
<path d="M58.6232 70.4479C57.8392 77.1585 59.5139 84.5034 64.6072 89.0701C68.0326 92.1401 72.6659 93.6732 77.2872 94.1681C81.9072 94.6631 86.5739 94.202 91.1979 93.7409C91.4859 93.2238 91.7739 92.7093 92.0619 92.1935C93.1659 92.57 94.2712 92.9464 95.3766 93.3228C95.7766 92.8552 96.1766 92.3863 96.5766 91.9161C96.9686 93.0636 98.3619 93.7826 99.5526 93.4505C99.9219 90.3362 100.861 87.2869 102.31 84.4917C93.9099 82.8714 85.3966 81.2146 77.7232 77.5037C76.5059 76.915 75.1526 76.2559 73.8499 76.6323C74.8632 71.1708 75.1392 65.5791 74.6672 60.0486C74.4432 57.4175 73.9859 54.6497 72.2526 52.6242C64.1126 43.1028 59.1352 66.065 58.6232 70.4479Z" fill="#A11211"/>
<path d="M75.1081 56.6191C74.8895 55.3387 74.6428 54.044 74.0641 52.8743C73.4641 51.6591 72.1521 50.505 70.8388 50.9297C69.2455 51.4468 69.2055 53.6089 69.4775 55.228C70.2695 59.9574 71.0614 64.6869 71.8534 69.4164C72.4174 72.7743 72.9681 76.295 71.8494 79.52C72.5894 79.4471 73.3295 79.3754 74.0708 79.3038C74.1201 80.1009 74.1708 80.8994 74.2201 81.6965C79.9401 83.3234 85.8268 84.3901 91.7641 84.876C91.6374 82.7346 88.9361 81.8867 86.7974 81.4047C84.2401 80.8277 81.5935 80.0554 79.2441 78.8948C76.3228 77.4516 76.6988 76.9306 76.6588 73.6678C76.5894 67.9575 76.0708 62.2525 75.1081 56.6191Z" fill="#CA0007"/>
<path d="M83.8348 48.7417C85.1042 47.8443 86.2628 46.8009 87.2841 45.6417C86.2548 44.3848 85.2255 43.1291 84.1962 41.8735C84.0388 41.682 83.8748 41.484 83.6482 41.3785C83.2242 41.1819 82.7081 41.3694 82.3521 41.669C81.4108 42.4596 81.3002 43.9028 81.7562 45.0321C82.2135 46.1614 83.1188 47.051 84.0015 47.9081" fill="#CA0007"/>
<path d="M71.8702 99.2379C70.8195 100.151 69.2555 100.141 67.8501 100.074C67.1635 100.04 66.4435 99.9986 65.8608 99.643C65.2795 99.2861 64.9102 98.5033 65.2528 97.9223C65.5808 97.3701 66.3368 97.262 66.9888 97.2294C67.9248 97.1825 68.8808 97.1643 69.7622 96.853C70.6435 96.5417 71.4555 95.8735 71.6462 94.9774C72.3782 94.5788 73.3808 95.1011 73.6462 95.8774C73.9128 96.6537 73.5808 97.5316 73.0208 98.1399C72.4622 98.7508 71.7062 99.148 70.9648 99.5323" fill="#CA0007"/>
<path d="M45.7168 115.081C49.3394 117.117 53.6221 117.628 57.7728 118.098C62.4008 118.62 67.0275 119.145 71.6568 119.67C78.0581 120.394 85.1795 121.502 89.0915 126.505C89.4955 127.022 89.9128 127.61 90.5595 127.767C91.2661 127.937 91.9635 127.524 92.6635 127.328C93.3635 127.128 94.3541 127.336 94.4275 128.043C93.6715 128.712 93.2514 129.728 93.3181 130.723C93.8448 130.636 94.3715 130.548 94.8981 130.46C95.2075 131.699 94.3795 132.903 93.6781 133.978C91.4821 137.335 90.1288 141.213 89.7661 145.18C89.5075 147.999 89.6941 151.021 88.1888 153.439C87.5075 154.535 86.5181 155.423 85.8168 156.509C85.1781 157.501 84.7915 158.648 84.7048 159.817C84.4115 163.708 88.0848 167.52 92.0661 167.197C96.1461 166.864 98.8915 163.07 100.862 159.564C106.889 148.842 111.294 137.141 112.725 124.988C112.962 122.972 113.111 120.885 112.483 118.951C111.065 114.581 106.263 112.299 101.899 110.61C94.5008 107.747 86.9848 105.174 79.3728 102.904C77.3008 102.284 75.2008 101.684 73.0381 101.546C71.1128 101.423 69.1848 101.667 67.2715 101.912C59.9195 102.855 52.5675 103.796 45.2141 104.737C41.8021 105.173 39.0501 104.637 40.2648 108.723C41.0635 111.412 43.2741 113.71 45.7168 115.081Z" fill="#3D5E77"/>
<path d="M93.2434 146.22C95.4354 147.047 97.6887 147.908 99.3994 149.483C103.505 153.26 103.153 159.761 101.395 164.997C99.6367 170.231 96.7621 175.295 96.8047 180.803C97.6394 181.528 98.83 180.436 99.3487 179.472C103.162 172.396 105.635 164.631 106.607 156.691C106.865 154.599 106.978 152.326 105.835 150.539C104.849 149 103.107 148.106 101.435 147.31C92.9114 143.249 82.1114 137.539 72.6061 136.538C72.3621 140.675 89.6887 144.882 93.2434 146.22Z" fill="#4A6D82"/>
<path d="M107.014 92.3032C107.86 92.3279 108.719 92.3501 109.544 92.1612C112.687 91.437 114.463 87.9124 117.563 87.0267C117.754 86.972 117.955 86.9277 118.15 86.9654C118.428 87.0176 118.647 87.2259 118.836 87.433C119.339 87.9801 119.778 88.5936 120.383 89.0286C120.988 89.465 121.83 89.6916 122.498 89.3516C123.164 89.013 123.402 87.9671 122.796 87.532C123.082 88.182 123.967 88.5037 124.618 88.1937C125.27 87.8824 125.555 87.0032 125.207 86.3832C125.515 86.8834 126.17 87.1556 126.752 87.0254C127.336 86.8964 127.804 86.3741 127.862 85.7919C127.944 84.9361 127.246 84.225 126.659 83.5841C125.802 82.6463 125.083 81.5886 124.187 80.6847C123.292 79.7807 122.166 79.0148 120.884 78.8742C119.87 78.7648 118.856 79.0565 117.89 79.3822C115.718 80.1155 113.614 81.0337 111.607 82.1266C110.012 82.994 108.474 83.9722 106.792 84.6639C105.11 85.3529 103.234 85.7411 101.451 85.3594C100.35 85.1237 98.7576 90.9316 99.2563 91.7522C99.6856 92.4608 101.706 92.1508 102.53 92.1729C104.024 92.2172 105.519 92.2602 107.014 92.3032Z" fill="#EDB38C"/>
<path d="M113.48 24.8353C114.286 26.1066 116.114 26.5546 116.752 27.9145C114.534 28.7468 112.728 30.5664 111.944 32.7585C111.01 35.3688 111.388 38.5535 109.465 40.5828C107.74 42.4024 104.805 42.5092 102.341 41.9179C99.8742 41.3278 97.5422 40.179 95.0182 39.9198C91.8742 39.5968 88.6075 40.7742 86.4315 43.0133C85.9235 43.5356 85.3235 44.1686 84.5955 44.0423C84.0955 43.955 83.7422 43.5265 83.4382 43.1266C82.2249 41.5336 81.0102 39.938 79.7969 38.3438C81.5275 36.4929 82.5009 33.9816 82.4582 31.473C82.4249 29.5244 81.8062 27.6266 81.6689 25.682C81.1689 18.5884 87.4502 12.2829 94.5222 10.6066C100.045 9.29755 109.316 9.83418 114.096 13.2637C118.885 16.6998 110.976 20.89 113.48 24.8353Z" fill="#EDB38C"/>
<path d="M108.827 17.2401C109.166 18.0894 107.943 18.7224 107.01 18.7211C105.195 18.7172 103.453 18.0242 101.643 17.8731C99.8354 17.7234 97.7034 18.3655 97.1047 20.0392C96.7034 21.1594 97.1101 22.3812 97.2594 23.56C97.4101 24.7374 97.1221 26.1898 95.9874 26.617C94.9914 25.3705 95.3394 23.3542 94.1261 22.3082C93.0954 21.4199 91.4861 21.7182 90.2314 22.264C89.1834 22.7172 88.1474 23.3581 87.6327 24.3584C86.4261 26.7068 88.6301 29.6219 87.7381 32.1006C87.4407 32.9303 86.8261 33.6063 86.2114 34.2446C85.4568 35.0287 84.6487 35.8115 83.6314 36.2244C82.6127 36.6386 81.3287 36.6008 80.5261 35.8623C79.1727 34.6132 79.9168 32.4184 79.5728 30.6314C79.2074 28.7401 77.5594 27.2669 77.2047 25.3744C77.0087 24.3297 77.2274 23.2565 77.4661 22.2197C78.0767 19.5612 78.8381 16.8911 80.2901 14.5634C82.6741 10.7458 86.7968 8.14985 91.2088 6.96325C95.6221 5.77666 100.314 5.90038 104.826 6.64672C106.794 6.97235 108.777 7.42826 110.491 8.42729C112.502 9.59956 114.345 11.5638 116.677 11.358C116.05 11.9128 115.298 12.3309 114.491 12.5758C115.573 13.0668 116.554 13.7702 117.359 14.6312C117.049 15.1405 116.457 15.4179 115.867 15.4557C116.491 16.4886 116.079 18.1688 114.682 18.316C113.691 18.4202 112.583 17.3652 111.574 17.2193C111.823 17.3483 112.095 17.6739 112.35 17.8354C111.709 18.0399 109.177 18.1167 108.827 17.2401Z" fill="#9E5E32"/>
<path d="M92.8325 28.1683C92.8432 28.2868 92.6658 28.3467 92.5631 28.2842L92.3885 27.9794C92.2698 27.5418 92.1591 27.0703 92.3205 26.6443C92.4805 26.2184 93.0285 25.9058 93.4218 26.1455C93.7431 25.4069 93.5058 24.4756 92.8698 23.9716C92.2338 23.4649 91.2512 23.4297 90.5778 23.8882C90.0378 24.2542 89.7298 24.8651 89.4992 25.4682C89.3112 25.9605 89.1578 26.4932 89.2712 27.0077C89.3645 27.4363 89.6338 27.8049 89.8965 28.1605C90.2018 28.5721 90.5058 28.985 90.8098 29.3966C91.1045 29.7951 91.4725 30.2341 91.9752 30.2458C92.4805 30.2588 92.8965 29.8003 92.9911 29.3158C93.0858 28.8326 92.9365 28.3363 92.7658 27.8726" fill="#C19272"/>
<path d="M111.934 26.4319C112.752 26.0633 113.623 25.6452 114.512 25.791C115.852 26.0086 116.663 27.4791 116.595 28.8051C116.524 30.1311 115.811 31.3307 115.118 32.4717C113.932 34.4176 112.747 36.3636 111.536 38.2939C110.72 39.5926 109.846 40.9316 108.515 41.7248C106.856 42.7121 104.727 42.6808 102.883 42.0869C101.038 41.4929 99.415 40.3975 97.8203 39.3151C97.8896 38.2992 98.9257 37.6648 99.639 36.9211C101.02 35.4844 101.304 33.33 101.1 31.3658C100.78 28.2919 102.603 29.0369 105.13 28.5654C107.475 28.1278 109.767 27.4114 111.934 26.4319Z" fill="#CEEAE8"/>
<path d="M95.1197 25.256C97.473 26.9519 99.929 28.4875 102.49 29.8682C102.896 30.087 103.26 29.4801 102.853 29.2599C100.293 27.8793 97.837 26.3436 95.4837 24.649C95.1103 24.3794 94.7503 24.9903 95.1197 25.256Z" fill="#CEEAE8"/>
<path d="M87.4911 31.5978C91.3924 34.169 95.2231 36.8353 98.9844 39.5966C99.3551 39.8701 99.7151 39.2593 99.3484 38.9896C95.5871 36.227 91.7564 33.5607 87.8551 30.9896C87.4698 30.7356 87.1084 31.3451 87.4911 31.5978Z" fill="#CEEAE8"/>
<path d="M103.112 33.3314C103.164 32.632 103.142 31.8752 103.557 31.3021C104.03 30.6482 104.913 30.4489 105.705 30.2405C107.126 29.8654 108.497 29.3066 109.77 28.5837C109.994 28.4548 110.23 28.318 110.493 28.3076C111.09 28.2828 111.506 28.951 111.468 29.5358C111.43 30.1181 111.096 30.6352 110.844 31.1666L110.782 31.4766C110.816 31.5965 110.934 31.6694 111.03 31.7501C111.498 32.1448 111.478 32.9133 111.1 33.3913C110.721 33.8693 110.085 34.0908 109.469 34.1364C109.064 34.1663 108.572 34.1767 108.376 34.5245C108.281 34.6886 108.288 34.8866 108.282 35.0755C108.234 36.8912 106.797 38.5845 104.98 38.9674C105.108 39.3386 105.165 39.7359 105.148 40.128C105.14 40.2764 105.116 40.438 105.001 40.5357C104.814 40.6946 104.525 40.5852 104.308 40.4705C102.961 39.7568 101.026 39.3712 101.49 37.6857C101.91 36.1514 103.112 35.0755 103.112 33.3314Z" fill="#B7CECC"/>
<path d="M90.33 30.4801C90.942 30.4345 91.5754 30.3759 92.1074 30.0477C92.6114 29.7364 92.9687 29.2141 93.2633 28.6761C94.6993 26.0581 95.0393 22.708 97.0833 20.6096C99.5793 18.0475 103.494 18.3823 106.947 18.3784C109.702 18.3758 112.457 18.0489 115.143 17.4041C115.639 17.2856 116.147 17.1488 116.559 16.8297C117.291 16.2592 117.573 15.2198 117.603 14.2494C117.723 10.6128 115.102 7.53883 112.303 5.48996C107.409 1.90542 101.407 0.0975075 95.49 0.427046C89.574 0.757887 83.778 3.22356 79.2567 7.33562C76.854 9.51604 74.7447 12.2865 74.0807 15.5884C73.6687 17.6334 73.834 19.7591 74.106 21.8314C74.3474 23.6588 74.682 25.5071 75.4994 27.13C78.3114 32.7061 85.49 30.8422 90.33 30.4801Z" fill="#A11211"/>
<path d="M86.1843 3.15991C82.487 4.41293 78.9603 6.46964 76.663 9.56573C74.3643 12.6605 73.4777 16.9028 75.0297 20.4144C75.4923 21.4577 76.2203 22.4711 77.3057 22.8827C78.7603 23.4337 80.4417 22.7329 81.5444 21.6557C83.7444 19.5052 84.915 16.5381 87.1523 14.3434C88.9777 12.5524 91.271 11.7266 93.1923 10.1519C94.8497 8.79594 95.4843 6.49307 94.3337 4.5445C92.6617 1.71673 88.8123 2.26768 86.1843 3.15991Z" fill="#CA0007"/>
<path d="M91.9863 39.6097L92.0223 39.9418L91.7943 40.1333C91.3703 40.343 90.9249 40.511 90.4649 40.6348C89.3823 37.5165 88.6543 34.2785 88.3036 31.0026C88.2663 30.6562 88.2356 30.2954 88.3676 29.971C88.5956 29.4149 89.977 28.6334 90.501 29.1348C90.821 29.4396 90.4516 32.1267 90.4823 32.6503C90.6223 35.0261 91.1276 37.3811 91.9863 39.6097Z" fill="#681616"/>
<path d="M106.395 21.8795C107.838 21.1853 109.031 20.9925 110.629 21.0225C111.331 21.0355 112.086 20.8271 112.102 20.0156L112.042 19.9401C111.567 19.8684 111.106 20.0196 110.629 20.0183C110.017 20.0169 109.463 19.9739 108.854 20.0899C107.862 20.2761 106.657 20.7099 106.09 21.5813C105.962 21.778 106.209 21.9694 106.395 21.8795Z" fill="#4C3729"/>
<path d="M106.759 23.9766C107.689 23.4347 108.674 23.4386 109.713 23.2836C110.238 23.2042 110.855 23.126 111.126 22.6402C111.185 22.5347 111.089 22.4044 110.966 22.4357C110.619 22.5268 110.335 22.7274 109.991 22.8329C109.615 22.9463 109.222 22.9919 108.841 23.0817C108.109 23.2576 107.373 23.5415 106.746 23.9531L106.759 23.9766Z" fill="#4C3729"/>
<path d="M109.194 23.169C109.116 23.479 108.912 24.2632 109.426 24.3504C109.991 24.4455 110.003 23.608 109.931 23.2719L109.73 23.0753L109.671 23.0635L109.442 23.1547L109.375 23.4217L109.431 23.6106L109.427 23.8659L109.491 23.7369L109.472 23.5793C109.45 23.4426 109.414 23.3058 109.39 23.169H109.194Z" fill="#4C3729"/>
<path d="M108.02 24.3543C108.405 24.5575 108.825 24.6591 109.264 24.6291C109.592 24.6057 110.08 24.5353 110.238 24.2188L110.174 24.1094C109.889 24.1042 109.637 24.2892 109.354 24.3413C108.932 24.4207 108.512 24.3595 108.122 24.1837L108.02 24.3543Z" fill="#4C3729"/>
<path d="M108.906 25.1205C109.102 25.1257 109.298 25.1244 109.463 25.0137L109.414 24.8405C109.243 24.8352 109.079 24.8821 108.906 24.8834C108.75 24.8834 108.75 25.1166 108.906 25.1205Z" fill="#4C3729"/>
</g>
<defs>
<clipPath id="clip0_0_1">
<rect width="393" height="2325" fill="white" transform="translate(0 -575)"/>
</clipPath>
</defs>
</svg>
