<svg width="319" height="184" viewBox="0 0 319 184" fill="none" xmlns="http://www.w3.org/2000/svg">
<path d="M233.264 103.44H295.37V6.4577H233.264V103.44Z" fill="#E7E8E5"/>
<path d="M235.744 100.551H292.248V9.27033H235.744V100.551Z" fill="#FAFAF9"/>
<path d="M297.996 104.314L295.369 103.44V4.81305H297.996V104.314Z" fill="#DADBD8"/>
<path d="M293.475 36.501H235.744V35.5291H293.475V36.501Z" fill="#DADBD8"/>
<path d="M235.744 58.2388H293.475V57.267H235.744V58.2388Z" fill="#DADBD8"/>
<path d="M235.744 79.9761H293.475V79.0043H235.744V79.9761Z" fill="#DADBD8"/>
<path d="M262.568 103.139H265.423V36.0152H262.568V103.139Z" fill="#DADBD8"/>
<path d="M247.919 36.0151H246.625V9.27047H247.919V36.0151Z" fill="#DADBD8"/>
<path d="M259.073 36.0151H257.779V9.27047H259.073V36.0151Z" fill="#DADBD8"/>
<path d="M268.934 36.0151H270.227V9.27034H268.934V36.0151Z" fill="#DADBD8"/>
<path d="M280.088 36.0151H281.381V9.27034H280.088V36.0151Z" fill="#DADBD8"/>
<path d="M230.637 104.04H233.264V4.8127H230.637V104.04Z" fill="#DADBD8"/>
<path d="M297.997 6.45752H230.637V3.81144H297.997V6.45752Z" fill="#DADBD8"/>
<path d="M299.776 107.106H228.773V104.641H299.776V107.106Z" fill="#DADBD8"/>
<path d="M295.37 103.44L299.776 104.641H228.773L233.264 103.44H295.37Z" fill="#DADBD8"/>
<path d="M30.6838 131.661H11.4902V127.247H30.6838V131.661Z" fill="#E7E8E5"/>
<path d="M22.569 136.31C22.567 136.308 22.5649 136.281 22.5631 136.23C22.5614 136.17 22.5593 136.096 22.557 136.003C22.5534 135.795 22.5486 135.506 22.5424 135.134C22.5347 134.373 22.5233 133.277 22.5096 131.896L22.569 131.948C18.1864 131.955 11.2167 131.967 3.37617 131.981C3.41964 131.943 3.27771 132.066 3.47314 131.896V131.897V131.9V131.904V131.912V131.93V131.966V132.037L3.47277 132.179V132.462C3.47277 132.65 3.47277 132.838 3.47277 133.025C3.47258 133.399 3.47258 133.771 3.4724 134.139C3.47184 134.875 3.47128 135.6 3.47073 136.31L3.37543 136.226C8.84094 136.242 13.623 136.255 17.0532 136.265C18.7619 136.274 20.1328 136.283 21.0907 136.288C21.5564 136.293 21.9212 136.296 22.1823 136.299C22.2998 136.301 22.3938 136.303 22.468 136.304C22.5328 136.306 22.5668 136.308 22.569 136.31C22.571 136.312 22.5412 136.313 22.48 136.315C22.4091 136.317 22.3192 136.318 22.2062 136.321C21.95 136.323 21.5922 136.327 21.1352 136.331C20.1828 136.337 18.8193 136.345 17.1198 136.355C13.6731 136.365 8.86729 136.378 3.37543 136.393L3.27957 136.393L3.27938 136.31C3.27901 135.6 3.27846 134.875 3.27771 134.139C3.27771 133.771 3.27753 133.399 3.27753 133.025C3.27753 132.838 3.27734 132.65 3.27734 132.462V132.179V132.037V131.966V131.93V131.912V131.904V131.9V131.897V131.896C3.47314 131.726 3.33233 131.849 3.37617 131.811C11.2167 131.825 18.1864 131.837 22.569 131.844H22.6288L22.6285 131.896C22.6145 133.29 22.6032 134.396 22.5956 135.165C22.5892 135.532 22.5844 135.818 22.5813 136.022C22.5787 136.112 22.5766 136.183 22.575 136.24C22.5729 136.288 22.571 136.312 22.569 136.31Z" fill="#DADBD8"/>
<path d="M26.7155 13.1665C26.7136 13.1648 26.7114 13.138 26.7095 13.0863C26.7081 13.0272 26.7058 12.9528 26.7035 12.8597C26.6999 12.6522 26.6951 12.3625 26.689 11.9912C26.6812 11.2294 26.67 10.1339 26.656 8.7528L26.7155 8.80447C22.3329 8.81191 15.3632 8.82431 7.52284 8.83753C7.56593 8.79992 7.4244 8.92229 7.61962 8.7528V8.75403V8.75609V8.76065V8.76933V8.78709V8.82266V8.89375L7.61943 9.03555V9.31872C7.61943 9.50722 7.61943 9.69447 7.61943 9.88173C7.61929 10.2554 7.61929 10.6271 7.61891 10.9954C7.61852 11.7321 7.61776 12.4567 7.61743 13.1665L7.52194 13.0834C12.9872 13.0983 17.7695 13.1115 21.1999 13.121C22.9084 13.1314 24.2793 13.1392 25.237 13.145C25.7031 13.1495 26.0677 13.1533 26.3289 13.1557C26.4463 13.1582 26.5403 13.1599 26.6144 13.1611C26.6793 13.1628 26.7133 13.1648 26.7155 13.1665C26.7175 13.1686 26.6877 13.1702 26.6265 13.1719C26.5557 13.1735 26.4657 13.1752 26.3527 13.1772C26.0967 13.1797 25.7387 13.1834 25.2817 13.188C24.3293 13.1938 22.9658 13.2016 21.2663 13.212C17.8198 13.2215 13.0138 13.2347 7.52194 13.2496L7.42625 13.25L7.42587 13.1665C7.42549 12.4567 7.42516 11.7321 7.4244 10.9954C7.4244 10.6271 7.42402 10.2554 7.42402 9.88173C7.42402 9.69447 7.42383 9.50722 7.42383 9.31872V9.03555V8.89375V8.82266V8.78709V8.76933V8.76065V8.75609V8.75403V8.7528C7.61962 8.5829 7.4788 8.70567 7.52284 8.66764C15.3632 8.68128 22.3329 8.69327 26.7155 8.70113H26.7753L26.7749 8.7528C26.761 10.1471 26.7499 11.2529 26.7423 12.0222C26.7359 12.3885 26.7311 12.6741 26.7278 12.8792C26.7252 12.9685 26.7231 13.0396 26.7214 13.0966C26.7194 13.1446 26.7175 13.1686 26.7155 13.1665Z" fill="#DADBD8"/>
<path d="M319.94 129.458C319.938 129.457 319.936 129.43 319.934 129.379C319.933 129.319 319.931 129.245 319.928 129.152C319.925 128.944 319.92 128.655 319.914 128.283C319.906 127.521 319.895 126.426 319.881 125.045L319.94 125.096C315.558 125.104 308.588 125.116 300.747 125.13C300.791 125.092 300.649 125.215 300.844 125.045V125.046V125.049V125.053V125.061V125.079V125.115V125.186V125.328V125.611C300.844 125.799 300.844 125.987 300.844 126.174C300.844 126.548 300.844 126.919 300.844 127.288C300.843 128.024 300.843 128.749 300.842 129.458L300.747 129.375C306.212 129.391 310.994 129.404 314.425 129.413C316.133 129.423 317.504 129.432 318.462 129.437C318.928 129.442 319.293 129.445 319.554 129.448C319.671 129.45 319.765 129.452 319.839 129.453C319.904 129.455 319.938 129.457 319.94 129.458C319.943 129.461 319.912 129.462 319.851 129.464C319.78 129.466 319.69 129.467 319.577 129.469C319.322 129.472 318.963 129.475 318.506 129.48C317.554 129.486 316.19 129.494 314.491 129.504C311.045 129.513 306.239 129.527 300.747 129.542L300.651 129.542V129.458C300.65 128.749 300.65 128.024 300.649 127.288C300.649 126.919 300.649 126.548 300.649 126.174C300.648 125.987 300.648 125.799 300.648 125.611V125.328V125.186V125.115V125.079V125.061V125.053V125.049V125.046V125.045C300.845 124.875 300.704 124.998 300.747 124.96C308.588 124.973 315.558 124.986 319.94 124.993H320L320 125.045C319.986 126.439 319.975 127.545 319.967 128.314C319.961 128.68 319.956 128.967 319.952 129.171C319.95 129.26 319.948 129.332 319.946 129.389C319.945 129.437 319.943 129.461 319.94 129.458Z" fill="#DADBD8"/>
<path d="M64.3597 38.8535C64.3578 38.8519 64.3559 38.825 64.354 38.7733C64.3521 38.7142 64.3502 38.6398 64.3478 38.5468C64.3445 38.3393 64.3398 38.0495 64.3331 37.6787C64.3255 36.9164 64.3146 35.8209 64.3003 34.4402L64.3597 34.4919C59.9774 34.4993 53.0075 34.5113 45.1674 34.525C45.2105 34.4869 45.0686 34.6097 45.264 34.4402V34.4411V34.4431V34.4477V34.4568V34.4745V34.5097V34.5808V34.723V35.0057C45.264 35.1942 45.264 35.3819 45.264 35.5688C45.2636 35.9429 45.2634 36.3145 45.2634 36.6828C45.2629 37.4195 45.2623 38.1437 45.2617 38.8535L45.166 38.7704C50.6315 38.7857 55.4138 38.7989 58.8441 38.808C60.5528 38.8184 61.9239 38.8262 62.8817 38.832C63.3473 38.8366 63.712 38.8403 63.9736 38.8428C64.091 38.8452 64.1847 38.8469 64.2589 38.8485C64.3236 38.8502 64.3578 38.8519 64.3597 38.8535C64.3621 38.8552 64.3317 38.8572 64.2708 38.8589C64.1999 38.8605 64.1101 38.8622 63.9974 38.8643C63.741 38.8671 63.3834 38.8705 62.9259 38.875C61.9738 38.8808 60.6104 38.8891 58.9107 38.899C55.4638 38.9085 50.6582 38.9217 45.166 38.9366L45.0706 38.937V38.8535C45.07 38.1437 45.0695 37.4195 45.0689 36.6828C45.0689 36.3145 45.0685 35.9429 45.0684 35.5688C45.0684 35.3819 45.0684 35.1942 45.0684 35.0057V34.723V34.5808V34.5097V34.4745V34.4568V34.4477V34.4431V34.4411V34.4402C45.264 34.2699 45.1231 34.3927 45.1674 34.3547C53.0075 34.3687 59.9774 34.3807 64.3597 34.3881L64.4197 34.3886L64.4192 34.4402C64.4054 35.8342 64.3945 36.9399 64.3864 37.7093C64.3802 38.0755 64.3754 38.3612 64.3721 38.5662C64.3697 38.6555 64.3673 38.727 64.3659 38.7836C64.364 38.8316 64.3616 38.8552 64.3597 38.8535Z" fill="#DADBD8"/>
<path d="M66.9617 34.4396C66.9593 34.4375 66.9565 34.409 66.9541 34.3556C66.9522 34.2924 66.9498 34.2155 66.9465 34.1217C66.9422 33.9046 66.9365 33.6095 66.9289 33.2366C66.9198 32.4628 66.907 31.3698 66.8913 30.0259L66.9617 30.087C63.9737 30.0932 59.9095 30.1015 55.4301 30.111C55.3422 30.1867 55.5481 30.0073 55.5272 30.0263V30.0275V30.03V30.0341V30.0432V30.0614V30.0978V30.1701V30.3152L55.5267 30.6038C55.5267 30.7956 55.5267 30.9866 55.5267 31.1763C55.5262 31.5554 55.5262 31.9303 55.5257 32.2995C55.5243 33.0378 55.5234 33.7538 55.5224 34.4396L55.4292 34.3589C58.7586 34.3742 61.6244 34.3875 63.6789 34.397C64.6918 34.4069 65.5041 34.4139 66.0819 34.4197C66.352 34.4239 66.567 34.4272 66.7301 34.4296C66.8785 34.4334 66.9574 34.4363 66.9617 34.4396C66.9655 34.4429 66.8937 34.4462 66.7524 34.4495C66.5941 34.452 66.3853 34.4553 66.1233 34.4598C65.5507 34.4652 64.7456 34.4726 63.7416 34.4821C61.672 34.4916 58.7838 34.5049 55.4292 34.5206L55.336 34.521V34.4396C55.335 33.7538 55.3336 33.0378 55.3327 32.2995C55.3322 31.9303 55.3322 31.5554 55.3317 31.1763C55.3317 30.9866 55.3317 30.7956 55.3317 30.6038V30.3152V30.1701V30.0978V30.0614V30.0432V30.0341V30.03V30.0275V30.0263C55.3098 30.0445 55.5172 29.8651 55.4301 29.9411C59.9095 29.9502 63.9737 29.9585 66.9617 29.9647L67.0326 29.9651L67.0321 30.0259C67.0159 31.3855 67.0031 32.4913 66.994 33.2738C66.9864 33.6409 66.9807 33.9315 66.9764 34.1452C66.9712 34.3424 66.9665 34.4441 66.9617 34.4396Z" fill="#DADBD8"/>
<path d="M317.288 37.4092C317.286 37.4075 317.284 37.3802 317.282 37.329C317.28 37.2699 317.278 37.1955 317.275 37.1024C317.272 36.8949 317.267 36.6051 317.261 36.2339C317.253 35.4721 317.242 34.3766 317.228 32.9955L317.287 33.0471C312.905 33.0546 305.936 33.067 298.095 33.0806C298.138 33.0426 297.996 33.1654 298.192 32.9955V32.9967V32.9988V33.0033V33.012V33.0298V33.0653V33.1364V33.2782V33.561C298.192 33.7495 298.192 33.9372 298.191 34.1244C298.191 34.4985 298.191 34.8698 298.191 35.2381C298.19 35.9747 298.19 36.6994 298.19 37.4092L298.094 37.3261C303.56 37.3414 308.342 37.3542 311.772 37.3637C313.481 37.374 314.852 37.3819 315.809 37.3877C316.275 37.3922 316.64 37.3959 316.901 37.3984C317.018 37.4005 317.112 37.4026 317.187 37.4038C317.252 37.4055 317.286 37.4075 317.288 37.4092C317.29 37.4112 317.259 37.4129 317.199 37.4146C317.128 37.4158 317.037 37.4179 316.925 37.4199C316.669 37.4224 316.311 37.4261 315.854 37.4307C314.902 37.4365 313.538 37.4447 311.839 37.4542C308.392 37.4637 303.586 37.4774 298.094 37.4923L297.998 37.4927V37.4092C297.998 36.6994 297.997 35.9747 297.997 35.2381C297.996 34.8698 297.996 34.4985 297.996 34.1244C297.996 33.9372 297.996 33.7495 297.996 33.561V33.2782V33.1364V33.0653V33.0298V33.012V33.0033V32.9988V32.9967V32.9955C298.192 32.8256 298.051 32.9484 298.095 32.9103C305.936 32.924 312.905 32.9359 317.287 32.9438H317.348L317.347 32.9955C317.333 34.3898 317.322 35.4956 317.314 36.2649C317.308 36.6312 317.303 36.9168 317.3 37.1219C317.297 37.2112 317.295 37.2823 317.293 37.3393C317.292 37.3873 317.29 37.4108 317.288 37.4092Z" fill="#DADBD8"/>
<path d="M319.891 32.9952C319.889 32.9931 319.887 32.9646 319.884 32.9113C319.882 32.8476 319.88 32.7712 319.877 32.6773C319.872 32.4603 319.867 32.1647 319.859 31.7923C319.85 31.0184 319.837 29.9254 319.821 28.5815L319.891 28.6427C316.904 28.6489 312.84 28.6572 308.36 28.6667C308.272 28.7423 308.478 28.5629 308.457 28.5815V28.5832V28.5852V28.5898V28.5989V28.6171V28.6535V28.7258V28.8705V29.1594C308.457 29.3508 308.457 29.5418 308.456 29.7316C308.456 30.111 308.456 30.4856 308.456 30.8551C308.455 31.5934 308.453 32.3094 308.453 32.9952L308.359 32.9142C311.688 32.9299 314.555 32.9431 316.609 32.9526C317.622 32.9622 318.434 32.9696 319.012 32.975C319.282 32.9791 319.497 32.9828 319.66 32.9853C319.809 32.9886 319.888 32.9915 319.891 32.9952C319.895 32.9985 319.824 33.0018 319.682 33.0051C319.524 33.0076 319.315 33.0109 319.054 33.0155C318.481 33.0204 317.676 33.0283 316.672 33.0374C314.602 33.0473 311.714 33.0605 308.359 33.0762L308.266 33.0767V32.9952C308.265 32.3094 308.264 31.5934 308.263 30.8551C308.262 30.4856 308.262 30.111 308.262 29.7316C308.261 29.5418 308.261 29.3508 308.261 29.1594V28.8705V28.7258V28.6535V28.6171V28.5989V28.5898V28.5852V28.5832V28.5815C308.24 28.5997 308.447 28.4203 308.36 28.4964C312.84 28.5059 316.904 28.5141 319.891 28.5203H319.963L319.962 28.5815C319.946 29.9411 319.933 31.0465 319.924 31.8295C319.917 32.1961 319.91 32.4868 319.907 32.7009C319.901 32.8981 319.897 32.9993 319.891 32.9952Z" fill="#DADBD8"/>
<path d="M30.5883 74.0166H11.3945V69.6029H30.5883V74.0166Z" fill="#DADBD8"/>
<path d="M44.3891 64.9541H25.1953V60.5404H44.3891V64.9541Z" fill="#E7E8E5"/>
<path d="M36.272 69.603C36.2699 69.6014 36.2681 69.5745 36.266 69.5228C36.2644 69.4637 36.2623 69.3893 36.2597 69.2967C36.2566 69.0888 36.2515 68.7994 36.2452 68.4278C36.2376 67.6659 36.2265 66.5704 36.2125 65.1893L36.272 65.241C31.8895 65.2488 24.9197 65.2608 17.0793 65.2745C17.1226 65.2365 16.9807 65.3592 17.1759 65.1893V65.1906V65.193V65.1972V65.2063V65.2241V65.2596V65.3303V65.4721V65.7553C17.1759 65.9433 17.1759 66.1314 17.1759 66.3183C17.1757 66.6924 17.1757 67.0636 17.1755 67.4323C17.175 68.1686 17.1745 68.8932 17.1739 69.603L17.0782 69.5199C22.5437 69.5348 27.3261 69.5485 30.7563 69.558C32.465 69.5679 33.8358 69.5757 34.7936 69.5815C35.2594 69.5861 35.6242 69.5898 35.8854 69.5923C36.0028 69.5943 36.0966 69.5964 36.1707 69.5977C36.2357 69.5997 36.2699 69.6014 36.272 69.603C36.2742 69.6047 36.2439 69.6067 36.1832 69.6084C36.1122 69.6101 36.0219 69.6117 35.9094 69.6138C35.6532 69.6162 35.2954 69.6204 34.8384 69.6249C33.8858 69.6303 32.5222 69.6382 30.823 69.6485C27.3761 69.658 22.5704 69.6712 17.0782 69.6861L16.9825 69.6865V69.603C16.9822 68.8932 16.9816 68.1686 16.9808 67.4323C16.9808 67.0636 16.9807 66.6924 16.9805 66.3183C16.9805 66.1314 16.9805 65.9433 16.9805 65.7553V65.4721V65.3303V65.2596V65.2241V65.2063V65.1972V65.193V65.1906V65.1893C17.1759 65.0194 17.0353 65.1422 17.0793 65.1046C24.9197 65.1178 31.8895 65.1302 36.272 65.1376H36.332L36.3314 65.1893C36.3175 66.5837 36.3063 67.6895 36.2985 68.4588C36.2924 68.825 36.2876 69.1107 36.2841 69.3157C36.2816 69.405 36.2798 69.4761 36.2779 69.5332C36.2761 69.5811 36.2738 69.6047 36.272 69.603Z" fill="#DADBD8"/>
<path d="M229.059 136.021H209.865V131.607H229.059V136.021Z" fill="#DADBD8"/>
<path d="M242.86 126.958H223.666V122.544H242.86V126.958Z" fill="#E7E8E5"/>
<path d="M234.743 131.607C234.741 131.605 234.739 131.578 234.737 131.527C234.735 131.468 234.733 131.393 234.731 131.3C234.727 131.093 234.722 130.803 234.716 130.432C234.708 129.67 234.697 128.574 234.683 127.193L234.743 127.245C230.36 127.252 223.39 127.264 215.55 127.278C215.593 127.24 215.452 127.363 215.647 127.193V127.194V127.196V127.201V127.21V127.227V127.263V127.334V127.476V127.759C215.647 127.948 215.647 128.135 215.647 128.322C215.647 128.696 215.646 129.068 215.646 129.436C215.646 130.172 215.645 130.897 215.645 131.607L215.549 131.524C221.014 131.539 225.797 131.552 229.227 131.561C230.936 131.571 232.307 131.58 233.265 131.585C233.731 131.59 234.095 131.594 234.356 131.596C234.474 131.599 234.568 131.6 234.642 131.602C234.706 131.603 234.741 131.605 234.743 131.607C234.745 131.609 234.715 131.611 234.654 131.612C234.583 131.614 234.493 131.616 234.38 131.618C234.124 131.62 233.766 131.624 233.309 131.628C232.357 131.634 230.993 131.642 229.294 131.652C225.847 131.662 221.041 131.675 215.549 131.69H215.454V131.607C215.453 130.897 215.452 130.172 215.452 129.436C215.452 129.068 215.452 128.696 215.451 128.322C215.451 128.135 215.451 127.948 215.451 127.759V127.476V127.334V127.263V127.227V127.21V127.201V127.196V127.194V127.193C215.647 127.023 215.506 127.146 215.55 127.108C223.39 127.122 230.361 127.134 234.743 127.141L234.802 127.141L234.802 127.193C234.788 128.587 234.777 129.693 234.769 130.463C234.763 130.828 234.759 131.115 234.755 131.32C234.753 131.409 234.75 131.48 234.749 131.537C234.747 131.585 234.744 131.609 234.743 131.607Z" fill="#DADBD8"/>
<path d="M80.7958 106.559C80.7938 106.558 80.7915 106.531 80.7896 106.479C80.7881 106.42 80.7862 106.346 80.7834 106.253C80.7801 106.045 80.7753 105.756 80.7691 105.384C80.761 104.622 80.7501 103.527 80.7363 102.146L80.7958 102.198C76.4129 102.205 69.443 102.217 61.6028 102.231C61.6461 102.193 61.5044 102.316 61.6998 102.146V102.147V102.149V102.154V102.163V102.181V102.216L61.6994 102.286V102.429V102.712C61.6994 102.9 61.6994 103.088 61.6994 103.274C61.6994 103.649 61.6994 104.02 61.6989 104.388C61.6984 105.125 61.6979 105.85 61.6975 106.559L61.6019 106.476C67.0671 106.491 71.8499 106.505 75.2797 106.514C76.9884 106.524 78.3594 106.532 79.3172 106.538C79.7833 106.542 80.148 106.546 80.4091 106.549C80.5266 106.551 80.6203 106.553 80.6945 106.554C80.7591 106.556 80.7934 106.558 80.7958 106.559C80.7977 106.561 80.7677 106.563 80.7068 106.565C80.636 106.566 80.5456 106.568 80.4329 106.57C80.1766 106.573 79.8189 106.577 79.3619 106.581C78.4094 106.587 77.0459 106.595 75.3467 106.605C71.8998 106.614 67.0942 106.627 61.6019 106.643L61.5063 106.643V106.559C61.5058 105.85 61.5053 105.125 61.5044 104.388C61.5044 104.02 61.5044 103.649 61.5044 103.274C61.5044 103.088 61.5039 102.9 61.5039 102.712V102.429V102.286V102.216V102.181V102.163V102.154V102.149V102.147V102.146C61.6998 101.976 61.5591 102.099 61.6028 102.061C69.443 102.074 76.4129 102.086 80.7958 102.094H80.8557L80.8552 102.146C80.8409 103.54 80.83 104.646 80.8224 105.415C80.8162 105.782 80.811 106.067 80.8076 106.272C80.8053 106.361 80.8034 106.433 80.8015 106.489C80.7996 106.538 80.7977 106.561 80.7958 106.559Z" fill="#DADBD8"/>
<path d="M83.3992 102.146C83.3968 102.144 83.394 102.115 83.3921 102.062C83.3897 101.998 83.3873 101.922 83.384 101.828C83.3797 101.611 83.374 101.315 83.3664 100.943C83.3573 100.168 83.3445 99.0758 83.3288 97.7319L83.3992 97.7927C80.4112 97.7989 76.347 97.8076 71.8677 97.8167C71.7797 97.8927 71.9856 97.7133 71.9647 97.7323V97.7336V97.7356V97.7398V97.7493V97.7675V97.8038V97.8766V98.0209V98.3094C71.9642 98.5012 71.9642 98.6922 71.9642 98.8819C71.9637 99.2614 71.9637 99.636 71.9632 100.006C71.9623 100.744 71.9609 101.459 71.9599 102.146L71.8667 102.065C75.1961 102.08 78.0624 102.094 80.1164 102.103C81.1293 102.113 81.9416 102.12 82.5194 102.125C82.7895 102.13 83.0045 102.133 83.1676 102.135C83.316 102.139 83.3954 102.142 83.3992 102.146C83.403 102.149 83.3312 102.152 83.1899 102.156C83.0316 102.158 82.8228 102.161 82.5612 102.165C81.9882 102.171 81.1835 102.179 80.1791 102.188C78.1095 102.198 75.2213 102.211 71.8667 102.227L71.774 102.227L71.7735 102.146C71.7725 101.459 71.7716 100.744 71.7702 100.006C71.7702 99.636 71.7697 99.2614 71.7692 98.8819C71.7692 98.6922 71.7692 98.5012 71.7692 98.3094V98.0209V97.8766V97.8038V97.7675V97.7493V97.7398V97.7356V97.7336V97.7323C71.7473 97.7501 71.9547 97.5707 71.8677 97.6468C76.347 97.6559 80.4112 97.6645 83.3992 97.6703L83.4701 97.6707L83.4696 97.7319C83.4534 99.0915 83.4406 100.197 83.4315 100.979C83.4239 101.347 83.4182 101.637 83.4139 101.851C83.4087 102.048 83.404 102.15 83.3992 102.146Z" fill="#DADBD8"/>
<path d="M315.364 179.026C315.364 179.086 244.761 179.134 157.689 179.134C70.587 179.134 0 179.086 0 179.026C0 178.967 70.587 178.919 157.689 178.919C244.761 178.919 315.364 178.967 315.364 179.026Z" fill="#17282F"/>
<path d="M298.624 163.663L301.68 174.206L306.864 181.939C307.238 182.497 306.99 183.212 306.325 183.498C305.953 183.659 305.518 183.654 305.152 183.482C302.825 182.39 294.285 178.338 294.11 177.555C293.91 176.649 290.037 166.62 290.037 166.62L298.624 163.663Z" fill="#F03D5F"/>
<path d="M305.728 183.626C305.517 183.626 305.306 183.581 305.115 183.491C300.635 181.367 297.895 179.948 296.298 179.078C296.305 179.078 296.311 179.078 296.318 179.078C299.058 180.601 303.559 182.735 305.151 183.482C305.34 183.571 305.547 183.615 305.754 183.615C305.949 183.615 306.144 183.576 306.325 183.498C306.138 183.584 305.933 183.626 305.728 183.626ZM296.134 178.975C296.127 178.975 296.117 178.975 296.11 178.975C295.506 178.644 295.083 178.4 294.801 178.234C294.598 178.114 294.425 177.963 294.29 177.789C294.596 178.067 295.265 178.486 296.134 178.975ZM294.074 177.42C294.056 177.378 294.04 177.335 294.027 177.292L293.887 176.852C293.97 177.095 294.034 177.288 294.074 177.42Z" fill="white"/>
<path d="M296.298 179.078C296.233 179.043 296.17 179.009 296.109 178.976C296.117 178.976 296.126 178.976 296.134 178.976C296.194 179.01 296.255 179.044 296.318 179.078C296.311 179.078 296.305 179.078 296.298 179.078Z" fill="#9BA6A6"/>
<path d="M305.754 183.615C305.547 183.615 305.34 183.571 305.151 183.482C303.558 182.735 299.057 180.602 296.317 179.078C296.255 179.043 296.194 179.009 296.133 178.975C295.264 178.486 294.595 178.068 294.289 177.789C294.201 177.675 294.128 177.551 294.073 177.42C294.034 177.288 293.97 177.095 293.886 176.852L293.885 176.848L306.324 183.498C306.144 183.576 305.949 183.615 305.754 183.615Z" fill="#F89DB4"/>
<path d="M295.05 174.115C294.983 174.115 294.915 174.106 294.851 174.087C294.489 173.984 294.203 173.543 294.354 173.239C294.466 173.011 294.79 172.834 295.081 172.834C295.177 172.834 295.269 172.853 295.349 172.896C295.67 173.028 295.862 173.374 295.758 173.672C295.667 173.932 295.358 174.115 295.05 174.115Z" fill="#F89DB4"/>
<path d="M302.113 179.581C302.191 179.594 302.288 178.98 302.911 178.512C303.518 178.029 304.231 178.016 304.226 177.948C304.228 177.92 304.05 177.875 303.756 177.908C303.465 177.939 303.068 178.072 302.729 178.334C302.39 178.597 302.192 178.924 302.122 179.172C302.05 179.421 302.08 179.58 302.113 179.581Z" fill="#17282F"/>
<path d="M303.418 180.778C303.49 180.81 303.768 180.376 304.342 180.071C304.909 179.755 305.479 179.726 305.478 179.656C305.496 179.594 304.845 179.511 304.196 179.869C303.544 180.22 303.346 180.765 303.418 180.778Z" fill="#17282F"/>
<path d="M299.942 178.167C300.014 178.203 300.439 177.534 301.283 176.992C302.119 176.437 302.977 176.27 302.957 176.199C302.959 176.139 302.017 176.209 301.119 176.801C300.214 177.385 299.875 178.152 299.942 178.167Z" fill="#17282F"/>
<path d="M298.705 175.03C298.757 175.084 299.345 174.683 300.204 174.447C301.058 174.202 301.807 174.228 301.812 174.156C301.828 174.097 301.038 173.958 300.119 174.22C299.198 174.475 298.651 174.99 298.705 175.03Z" fill="#17282F"/>
<path d="M297.717 171.954C297.774 172.006 298.332 171.495 299.259 171.312C300.181 171.111 300.945 171.345 300.968 171.277C300.981 171.25 300.807 171.15 300.485 171.078C300.165 171.004 299.693 170.977 299.195 171.08C298.697 171.184 298.29 171.395 298.043 171.586C297.794 171.778 297.691 171.936 297.717 171.954Z" fill="#17282F"/>
<path d="M299.053 170.732C299.068 170.728 299.051 170.58 298.943 170.331C298.836 170.083 298.632 169.73 298.251 169.38C298.058 169.217 297.843 168.999 297.462 168.942C297.273 168.912 297.032 168.999 296.933 169.172C296.835 169.341 296.845 169.524 296.893 169.691C297.117 170.353 297.979 170.839 298.87 170.728C299.761 170.602 300.407 169.985 300.567 169.329C300.594 169.162 300.588 168.967 300.438 168.813C300.29 168.656 300.022 168.644 299.857 168.711C299.514 168.844 299.345 169.077 299.177 169.261C298.854 169.651 298.694 170.018 298.613 170.273C298.533 170.529 298.528 170.677 298.544 170.679C298.594 170.697 298.684 170.091 299.332 169.362C299.499 169.191 299.687 168.978 299.938 168.896C300.06 168.855 300.183 168.873 300.255 168.95C300.329 169.023 300.345 169.161 300.317 169.293C300.177 169.833 299.585 170.396 298.83 170.491C298.08 170.592 297.323 170.164 297.137 169.633C297.095 169.504 297.093 169.365 297.147 169.269C297.202 169.175 297.314 169.126 297.438 169.138C297.698 169.164 297.925 169.346 298.112 169.499C298.865 170.146 299.003 170.755 299.053 170.732Z" fill="#17282F"/>
<path d="M257.766 165.327L258.441 174.184C258.441 174.184 248.299 177.11 248.24 178.758L268.056 178.882L267.656 165.044L257.766 165.327Z" fill="#F03D5F"/>
<path d="M264.375 174.591C264.327 174.591 264.28 174.587 264.233 174.578C263.845 174.503 263.496 174.07 263.616 173.741C263.712 173.478 264.065 173.253 264.385 173.253C264.463 173.253 264.54 173.266 264.61 173.296C264.959 173.405 265.198 173.748 265.126 174.065C265.058 174.363 264.72 174.591 264.375 174.591Z" fill="#F89DB4"/>
<path d="M268.056 178.882H248.139C248.237 178.208 248.835 177.963 248.874 177.947C248.483 178.236 248.249 178.511 248.24 178.758L268.056 178.882Z" fill="white"/>
<path d="M268.056 178.882L248.24 178.758C248.249 178.511 248.483 178.236 248.875 177.947C248.876 177.947 248.877 177.947 248.877 177.947L268.016 177.487L268.056 178.882Z" fill="#F89DB4"/>
<path d="M258.116 174.106C258.122 174.19 258.607 174.215 259.092 174.473C259.585 174.72 259.844 175.077 259.931 175.041C260.02 175.023 259.858 174.524 259.264 174.221C258.674 173.913 258.092 174.029 258.116 174.106Z" fill="#17282F"/>
<path d="M256.065 174.907C256.046 174.989 256.47 175.121 256.81 175.468C257.163 175.806 257.259 176.188 257.355 176.182C257.447 176.193 257.497 175.699 257.063 175.275C256.635 174.847 256.064 174.827 256.065 174.907Z" fill="#17282F"/>
<path d="M254.96 177.099C255.049 177.114 255.169 176.691 254.904 176.237C254.644 175.782 254.181 175.612 254.143 175.683C254.091 175.754 254.393 175.993 254.603 176.368C254.824 176.739 254.864 177.093 254.96 177.099Z" fill="#17282F"/>
<path d="M258.221 172.072C258.263 172.148 258.703 172.02 259.251 172.038C259.799 172.046 260.23 172.194 260.278 172.121C260.332 172.059 259.906 171.758 259.26 171.745C258.615 171.728 258.17 172.007 258.221 172.072Z" fill="#17282F"/>
<path d="M258.121 170.283C258.121 170.317 258.505 170.359 259.113 170.252C259.415 170.198 259.77 170.103 260.141 169.948C260.326 169.87 260.515 169.778 260.701 169.67C260.791 169.616 260.897 169.563 260.994 169.46C261.098 169.369 261.151 169.144 261.023 169.011C260.916 168.881 260.735 168.829 260.592 168.83C260.446 168.83 260.329 168.858 260.222 168.884C260.003 168.937 259.798 169.006 259.611 169.084C259.238 169.244 258.937 169.441 258.715 169.63C258.268 170.012 258.123 170.33 258.156 170.346C258.201 170.372 258.415 170.103 258.873 169.786C259.1 169.628 259.392 169.463 259.742 169.329C259.917 169.263 260.106 169.205 260.306 169.162C260.514 169.108 260.692 169.102 260.749 169.182C260.77 169.212 260.773 169.224 260.731 169.279C260.687 169.329 260.604 169.38 260.516 169.433C260.344 169.537 260.17 169.628 260.001 169.707C259.661 169.865 259.333 169.976 259.053 170.052C258.491 170.204 258.118 170.237 258.121 170.283Z" fill="#17282F"/>
<path d="M258.253 170.4C258.287 170.412 258.468 170.106 258.485 169.561C258.492 169.29 258.448 168.964 258.317 168.62C258.25 168.449 258.161 168.274 258.046 168.103C257.924 167.936 257.775 167.712 257.398 167.685C257.202 167.684 257.044 167.821 256.992 167.936C256.931 168.054 256.921 168.154 256.901 168.255C256.872 168.457 256.883 168.653 256.921 168.835C256.996 169.2 257.179 169.501 257.376 169.715C257.778 170.151 258.185 170.241 258.192 170.212C258.224 170.169 257.88 170.016 257.57 169.595C257.416 169.387 257.276 169.112 257.228 168.792C257.203 168.634 257.199 168.465 257.229 168.294C257.253 168.11 257.327 167.961 257.406 167.977C257.504 167.974 257.677 168.107 257.763 168.25C257.87 168.402 257.956 168.558 258.025 168.711C258.16 169.019 258.224 169.316 258.247 169.567C258.292 170.071 258.199 170.389 258.253 170.4Z" fill="#17282F"/>
<path d="M257.715 88.098L287.908 87.9004L302.497 171.197L289.967 172.579L273.908 104.09L269.102 172.823L269.089 173.027L255.537 172.821L257.715 88.098Z" fill="#17282F"/>
<path d="M272.896 102.297C272.932 102.291 272.885 101.905 272.818 101.28C272.75 100.656 272.671 99.7925 272.637 98.838C272.605 97.8823 272.624 97.0167 272.648 96.39C272.671 95.7633 272.691 95.3743 272.655 95.371C272.623 95.3681 272.541 95.7521 272.472 96.3801C272.402 97.0084 272.355 97.8807 272.388 98.8443C272.422 99.8074 272.53 100.676 272.643 101.299C272.755 101.923 272.864 102.302 272.896 102.297Z" fill="#33535F"/>
<path d="M270.409 95.61C270.413 95.5997 270.355 95.562 270.231 95.5513C270.108 95.5389 269.918 95.5683 269.732 95.6807C269.552 95.7923 269.359 95.9973 269.354 96.2813C269.342 96.5707 269.61 96.8493 269.947 96.9432C270.28 97.0469 270.688 96.9671 270.881 96.7311C271.075 96.5021 271.065 96.2383 271.001 96.0544C270.931 95.8663 270.801 95.7427 270.695 95.6877C270.588 95.6307 270.516 95.6298 270.512 95.6402C270.489 95.6699 270.754 95.7638 270.83 96.0928C270.865 96.2483 270.845 96.4562 270.701 96.6067C270.563 96.7604 270.285 96.8138 270.027 96.7377C269.77 96.6621 269.586 96.4727 269.584 96.278C269.575 96.0821 269.704 95.9068 269.84 95.8014C270.131 95.5802 270.407 95.646 270.409 95.61Z" fill="#33535F"/>
<path d="M278.141 93.9339C278.131 93.9463 278.229 94.0228 278.418 94.1526C278.602 94.2861 278.897 94.4494 279.279 94.6218C279.66 94.7979 280.142 94.9579 280.694 95.0864C281.248 95.2047 281.873 95.2844 282.533 95.2886C283.193 95.2849 283.818 95.2055 284.372 95.0877C284.924 94.9595 285.407 94.7995 285.787 94.6239C286.169 94.4519 286.464 94.2886 286.649 94.1551C286.838 94.0253 286.935 93.9492 286.925 93.9368C286.897 93.9033 286.477 94.1844 285.711 94.4854C285.33 94.6392 284.855 94.7793 284.318 94.8938C283.777 94.9971 283.172 95.0682 282.533 95.0715C281.894 95.0678 281.288 94.9963 280.748 94.8925C280.211 94.7776 279.736 94.6379 279.355 94.4837C278.59 94.1819 278.169 93.9008 278.141 93.9339Z" fill="#33535F"/>
<path d="M259.451 95.6963C259.446 95.7211 259.756 95.8096 260.279 95.8484C260.8 95.8885 261.537 95.8575 262.312 95.6665C263.086 95.4731 263.731 95.161 264.149 94.8877C264.57 94.6145 264.78 94.397 264.76 94.3788C264.713 94.3222 263.751 95.094 262.244 95.4578C260.743 95.8405 259.457 95.6264 259.451 95.6963Z" fill="#33535F"/>
<path d="M297.716 171.954C297.719 171.95 297.673 171.901 297.629 171.777C297.584 171.655 297.526 171.471 297.458 171.226C297.323 170.738 297.144 170.013 296.928 169.078C296.496 167.206 295.909 164.491 295.206 161.132C293.799 154.415 291.923 145.124 289.856 134.862C287.779 124.601 285.899 115.314 284.536 108.581C283.838 105.229 283.273 102.512 282.88 100.624C282.68 99.6931 282.523 98.9668 282.414 98.4624C282.359 98.2235 282.317 98.0371 282.286 97.9015C282.256 97.7754 282.234 97.7117 282.234 97.7117C282.234 97.7117 282.239 97.7779 282.261 97.9056C282.286 98.042 282.32 98.2297 282.364 98.4703C282.463 98.9763 282.604 99.7046 282.785 100.638C283.159 102.53 283.697 105.25 284.362 108.607C285.706 115.344 287.561 124.635 289.61 134.899C291.677 145.161 293.581 154.449 295.032 161.16C295.758 164.516 296.371 167.228 296.833 169.095C297.288 170.961 297.625 171.989 297.716 171.954Z" fill="#33535F"/>
<path d="M259.236 171.016C259.236 171.016 259.245 170.95 259.249 170.823C259.252 170.687 259.256 170.5 259.261 170.259C259.267 169.754 259.275 169.025 259.285 168.092C259.29 167.151 259.298 165.999 259.325 164.662C259.35 163.325 259.362 161.803 259.414 160.121C259.49 156.756 259.638 152.75 259.861 148.305C260.099 143.86 260.419 138.975 260.856 133.855C261.303 128.733 261.825 123.861 262.353 119.434C262.896 115.009 263.437 111.029 263.94 107.691C264.177 106.021 264.426 104.514 264.632 103.189C264.834 101.864 265.023 100.724 265.18 99.7929C265.33 98.869 265.448 98.1481 265.529 97.647C265.565 97.4089 265.593 97.2229 265.613 97.0877C265.631 96.9616 265.634 96.8959 265.634 96.8959C265.634 96.8959 265.614 96.9596 265.589 97.084C265.562 97.2192 265.526 97.4035 265.479 97.64C265.388 98.1398 265.254 98.8591 265.084 99.7805C264.913 100.71 264.709 101.848 264.493 103.172C264.275 104.496 264.013 106.002 263.765 107.671C263.239 111.007 262.68 114.987 262.125 119.413C261.583 123.84 261.055 128.714 260.607 133.838C260.17 138.961 259.856 143.848 259.631 148.296C259.421 152.744 259.291 156.751 259.238 160.118C259.197 161.801 259.197 163.324 259.186 164.661C259.172 165.998 259.178 167.15 259.188 168.092C259.198 169.025 259.206 169.754 259.211 170.259C259.216 170.5 259.22 170.687 259.224 170.823C259.228 170.95 259.236 171.016 259.236 171.016Z" fill="#33535F"/>
<path d="M228.021 55.9909L246.888 60.7779L257.455 55.3539L265.474 63.6228L250.516 69.2527C248.38 70.0567 245.941 69.9864 243.871 69.0609L225.338 60.7779L228.021 55.9909Z" fill="#F8A58D"/>
<path d="M223.718 54.4111L221.381 53.357L214.884 50.4187C214.355 50.2355 213.862 50.7303 214.134 51.1648L218.277 54.1255L216.544 54.6997C216.2 54.8137 215.918 55.0353 215.753 55.321L214.832 56.9137C214.832 56.9137 213.78 57.0113 213.675 57.6057C213.563 58.2353 214.358 58.4048 214.358 58.4048L214.16 59.0989C214.067 59.4234 214.137 59.7673 214.352 60.0447C215.358 60.4048 216.158 58.5726 216.158 58.5726L217.229 58.6702L218.401 60.7247C219.888 61.0381 219.184 58.9993 219.184 58.9993C219.184 58.9993 219.184 58.9993 219.84 59.1411C220.496 59.2833 220.841 59.6871 221.862 60.1423C222.883 60.5974 224.89 60.7574 224.89 60.7574L226.372 61.709L230.872 56.3569L223.718 54.4111Z" fill="#FAFAF9"/>
<path d="M223.718 54.411C223.72 54.4077 223.763 54.416 223.846 54.4354C223.942 54.4585 224.062 54.4883 224.215 54.5251C224.553 54.6123 225.026 54.7343 225.631 54.8905C226.877 55.2212 228.665 55.6958 230.897 56.2886L231.007 56.3175L230.939 56.399C229.681 57.9058 228.161 59.7267 226.46 61.7643L226.396 61.8403L226.308 61.7841C225.846 61.4885 225.34 61.1653 224.824 60.8358L224.88 60.8544C223.926 60.7581 222.93 60.6432 221.951 60.2906C221.471 60.1 221.031 59.8404 220.599 59.5812C220.383 59.4535 220.165 59.339 219.928 59.2716C219.687 59.2116 219.413 59.1583 219.155 59.1013L219.3 58.969C219.414 59.3385 219.5 59.7242 219.461 60.1413C219.433 60.3439 219.367 60.582 219.138 60.7383C218.902 60.8924 218.612 60.8681 218.373 60.8284L218.318 60.8193L218.292 60.7722C217.918 60.119 217.521 59.4225 217.119 58.718L217.217 58.7772C216.92 58.7503 216.601 58.7209 216.28 58.692L216.146 58.6796L216.274 58.611C216.119 58.9417 215.937 59.253 215.701 59.5436C215.467 59.8222 215.175 60.1269 214.708 60.1918L214.535 60.1938C214.479 60.1872 214.424 60.1715 214.369 60.1595L214.328 60.1496L214.307 60.1446L214.307 60.1442C214.311 60.1479 214.292 60.1339 214.272 60.1202C214.247 60.1025 214.222 60.0847 214.25 60.1041L214.249 60.1025L214.246 60.0988L214.24 60.0913L214.199 60.033C214.172 59.9929 214.148 59.952 214.127 59.9102C214.041 59.7424 213.996 59.5597 213.998 59.3774C213.996 59.191 214.059 59.0169 214.102 58.8611L214.24 58.3791L214.33 58.5076C214.075 58.4419 213.847 58.3286 213.686 58.1327C213.529 57.9314 213.51 57.68 213.595 57.4589C213.693 57.2315 213.911 57.0806 214.128 56.9872C214.351 56.8938 214.577 56.838 214.82 56.8103L214.726 56.8665C214.922 56.5288 215.115 56.1943 215.307 55.8636C215.404 55.6983 215.499 55.5338 215.594 55.3701C215.681 55.2064 215.809 55.0261 215.973 54.8963C216.135 54.7616 216.334 54.6582 216.538 54.5945C216.731 54.5313 216.922 54.4681 217.111 54.4056C217.492 54.2804 217.868 54.1564 218.238 54.0344L218.207 54.2002C216.723 53.1345 215.34 52.1411 214.073 51.2308L214.059 51.2209L214.049 51.2056C213.898 50.977 213.949 50.6732 214.149 50.495C214.339 50.3073 214.668 50.2499 214.919 50.3437L214.925 50.3458L214.927 50.347C217.631 51.5868 219.828 52.5942 221.366 53.2994C222.113 53.6467 222.7 53.9195 223.114 54.1121C223.303 54.2031 223.453 54.2746 223.567 54.3296C223.669 54.3796 223.72 54.4073 223.718 54.411C223.717 54.4147 223.662 54.3945 223.557 54.3515C223.44 54.3019 223.287 54.237 223.093 54.1551C222.672 53.9712 222.077 53.7107 221.319 53.3788C219.772 52.6888 217.561 51.7029 214.842 50.4901L214.85 50.4934C214.659 50.426 214.431 50.4682 214.29 50.607C214.144 50.7414 214.11 50.9551 214.22 51.1242L214.197 51.0994C215.47 52.0039 216.859 52.991 218.349 54.0501L218.498 54.1559L218.317 54.2159C217.947 54.3395 217.573 54.4643 217.193 54.5912C217.003 54.6541 216.812 54.7181 216.62 54.7818C216.436 54.8401 216.273 54.9265 216.134 55.0427C215.991 55.1596 215.893 55.294 215.803 55.4618C215.709 55.6255 215.614 55.7901 215.519 55.9558C215.328 56.2874 215.135 56.6218 214.94 56.9603L214.911 57.0083L214.845 57.017C214.443 57.0686 213.959 57.2146 213.822 57.5304C213.763 57.6871 213.776 57.8776 213.887 58.0128C213.996 58.1513 214.195 58.253 214.388 58.3014L214.506 58.3307L214.477 58.4303L214.34 58.9123C214.294 59.0789 214.24 59.2273 214.244 59.3782C214.243 59.5304 214.28 59.6833 214.351 59.823L214.412 59.9251L214.447 59.9739L214.452 59.9801L214.453 59.9834L214.454 59.9847C214.482 60.0045 214.458 59.9871 214.433 59.9694C214.414 59.9557 214.395 59.9421 214.4 59.9458L214.401 59.9462L214.415 59.9491L214.445 59.9553L214.561 59.9809L214.68 59.9785C215.005 59.9396 215.284 59.6841 215.5 59.4192C215.719 59.15 215.898 58.8433 216.042 58.5345L216.078 58.4572L216.171 58.4655L216.305 58.4779C216.626 58.5072 216.946 58.5362 217.243 58.563L217.31 58.5696L217.341 58.6226C217.742 59.3274 218.139 60.0239 218.512 60.6771L218.431 60.6209C218.637 60.6547 218.851 60.6638 218.989 60.5684C219.13 60.4766 219.195 60.298 219.218 60.1194C219.255 59.754 219.174 59.372 219.068 59.0293L219.013 58.8524L219.213 58.897C219.478 58.9566 219.729 59.0045 220.002 59.0727C220.274 59.1504 220.514 59.2794 220.733 59.4096C221.168 59.6721 221.593 59.9226 222.047 60.1049C222.967 60.4406 223.969 60.5642 224.9 60.6601L224.933 60.6634L224.956 60.6791C225.471 61.0107 225.976 61.336 226.437 61.6332L226.286 61.6531C228.002 59.6262 229.537 57.8136 230.806 56.3146L230.848 56.4246C228.623 55.8049 226.841 55.3089 225.599 54.9629C225 54.7917 224.532 54.6578 224.197 54.5623C224.049 54.5177 223.931 54.4821 223.837 54.454C223.757 54.4288 223.717 54.4143 223.718 54.411Z" fill="#17282F"/>
<path d="M219.34 59.0328C219.334 59.0571 218.821 58.9761 217.942 58.8633C217.063 58.7492 215.816 58.6115 214.349 58.5045H214.372C213.798 58.5483 213.395 57.9679 213.616 57.5169C213.816 57.0655 214.362 56.8253 214.869 56.7525C215.427 56.6744 215.943 56.6504 216.449 56.5715C216.952 56.5004 217.434 56.4119 217.888 56.3123C218.343 56.2122 218.77 56.1015 219.166 55.9853C219.36 55.9307 219.539 55.8629 219.664 55.7625C219.792 55.6649 219.826 55.5297 219.766 55.4099C219.705 55.2875 219.585 55.1887 219.469 55.0916C219.356 54.9936 219.249 54.8998 219.148 54.8105C218.95 54.6339 218.778 54.486 218.63 54.3723C218.333 54.1457 218.139 54.0498 218.15 54.0341C218.156 54.0238 218.367 54.0953 218.691 54.3078C218.852 54.4132 219.037 54.5558 219.244 54.7245C219.349 54.8092 219.461 54.8985 219.577 54.9919C219.693 55.0841 219.837 55.1858 219.927 55.3487C220.026 55.5124 219.967 55.755 219.797 55.8824C219.637 56.0159 219.434 56.0919 219.233 56.154C218.836 56.2788 218.405 56.3979 217.946 56.5041C217.486 56.6107 216.999 56.7046 216.488 56.7794C215.982 56.8617 215.433 56.891 214.916 56.9638C214.443 57.0303 213.999 57.2457 213.843 57.5917C213.667 57.9162 213.997 58.3424 214.346 58.3048L214.357 58.304L214.37 58.3048C215.841 58.4276 217.09 58.5933 217.965 58.7421C218.403 58.8157 218.749 58.8831 218.984 58.9352C219.218 58.9873 219.343 59.022 219.34 59.0328Z" fill="#17282F"/>
<path d="M219.164 56.1374C219.175 56.1941 218.62 56.316 217.922 56.2825C217.677 56.2714 217.45 56.2428 217.263 56.209L217.377 56.1494C217.237 56.4297 217.122 56.6079 217.081 56.5951C217.039 56.5818 217.081 56.3809 217.179 56.0878L217.201 56.0225L217.293 56.0283C217.543 56.0436 217.738 56.0556 217.936 56.0676C218.605 56.1002 219.154 56.0767 219.164 56.1374Z" fill="#17282F"/>
<path d="M261.758 49.3495L249.602 57.4556L258.124 67.2114L268.519 62.0826L261.758 49.3495Z" fill="#F03D5F"/>
<path d="M261.757 49.3494C263.516 48.4081 269.602 47.2482 269.602 47.2482L281.366 46.1366L291.569 50.2088L287.376 65.4763L291.047 94.2594L256.021 95.9175L261.757 49.3494Z" fill="#F03D5F"/>
<path d="M281.754 63.5347H275.721V62.1197H281.754V63.5347Z" fill="#FAFAF9"/>
<path d="M275.733 63.5247H281.742V62.1304H275.733V63.5247ZM281.766 63.5454H275.709V62.1101H281.766V63.5454Z" fill="#17282F"/>
<path d="M260.293 58.1846C260.225 58.1858 260.147 57.1362 260.121 55.8411C260.094 54.5451 260.127 53.4939 260.195 53.4931C260.264 53.4918 260.341 54.541 260.368 55.837C260.396 57.1321 260.362 58.1837 260.293 58.1846Z" fill="#17282F"/>
<path d="M282.36 32.1287L281.073 47.9799C280.863 50.5681 278.386 52.5742 275.402 52.5742C272.115 52.5742 269.512 50.1588 269.728 47.3085C269.842 45.7997 269.946 44.5645 269.946 44.5645C269.946 44.5645 265.531 43.9676 265.476 40.131C265.444 37.9148 265.884 32.886 266.261 29.0333C266.516 26.429 269.024 24.4298 272.031 24.4298H274.698C279.29 24.663 282.756 28.1445 282.36 32.1287Z" fill="#F8A58D"/>
<path d="M269.938 44.5091C269.938 44.5091 272.727 44.7063 275.693 43.0875C275.693 43.0875 274.332 45.8489 269.928 45.5033L269.938 44.5091Z" fill="#F68260"/>
<path d="M267.159 33.8821C267.147 34.1715 267.419 34.4187 267.766 34.4352C268.113 34.451 268.405 34.2306 268.416 33.9413C268.428 33.6519 268.156 33.4043 267.809 33.3881C267.461 33.3716 267.17 33.5928 267.159 33.8821Z" fill="#17282F"/>
<path d="M267.022 32.8808C267.101 32.9523 267.578 32.6452 268.256 32.6468C268.934 32.6398 269.431 32.9432 269.505 32.8709C269.541 32.839 269.461 32.7101 269.245 32.5728C269.031 32.4364 268.667 32.3037 268.245 32.305C267.823 32.307 267.467 32.4422 267.263 32.5807C267.054 32.7196 266.983 32.849 267.022 32.8808Z" fill="#17282F"/>
<path d="M273.68 33.8821C273.669 34.1715 273.941 34.4187 274.288 34.4352C274.635 34.4513 274.927 34.2306 274.938 33.9412C274.949 33.6518 274.677 33.4042 274.331 33.3881C273.983 33.3716 273.692 33.5931 273.68 33.8821Z" fill="#17282F"/>
<path d="M273.69 32.9912C273.768 33.0627 274.246 32.7551 274.924 32.7568C275.601 32.7502 276.099 33.0532 276.173 32.9808C276.209 32.949 276.13 32.82 275.912 32.6832C275.699 32.5464 275.335 32.4137 274.913 32.4149C274.49 32.417 274.135 32.5522 273.93 32.6906C273.722 32.8299 273.651 32.9589 273.69 32.9912Z" fill="#17282F"/>
<path d="M271.291 37.2181C271.294 37.1847 270.872 37.121 270.189 37.0453C270.016 37.0296 269.852 36.9999 269.823 36.8969C269.782 36.7882 269.855 36.6258 269.938 36.4509C270.101 36.0863 270.272 35.7047 270.45 35.3042C271.162 33.6721 271.677 32.3299 271.601 32.3055C271.525 32.2811 270.887 33.5845 270.176 35.2165C270.004 35.6192 269.841 36.0028 269.685 36.3699C269.619 36.541 269.506 36.7353 269.595 36.961C269.641 37.0735 269.769 37.1553 269.88 37.1813C269.991 37.2107 270.089 37.2119 270.174 37.2169C270.862 37.2491 271.288 37.2516 271.291 37.2181Z" fill="#17282F"/>
<path d="M273.513 30.9459C273.58 31.1067 274.257 31.0306 275.053 31.1137C275.851 31.1832 276.492 31.3857 276.598 31.2423C276.645 31.1733 276.533 31.0224 276.274 30.8669C276.017 30.7123 275.606 30.5647 275.128 30.5189C274.651 30.4734 274.213 30.5391 273.924 30.6421C273.632 30.7442 273.484 30.8702 273.513 30.9459Z" fill="#17282F"/>
<path d="M267.029 31.7237C267.148 31.8576 267.615 31.7187 268.178 31.7121C268.739 31.6886 269.216 31.8022 269.325 31.6621C269.373 31.5943 269.298 31.46 269.09 31.333C268.885 31.207 268.543 31.1036 268.157 31.1135C267.77 31.1243 267.436 31.2458 267.24 31.3831C267.041 31.5203 266.977 31.6584 267.029 31.7237Z" fill="#17282F"/>
<path d="M280.871 35.0087C280.947 34.9798 283.904 34.2287 283.808 36.852C283.711 39.4749 280.702 38.8495 280.699 38.7742C280.696 38.699 280.871 35.0087 280.871 35.0087Z" fill="#F8A58D"/>
<path d="M281.657 37.806C281.671 37.7981 281.709 37.8394 281.796 37.8771C281.882 37.9143 282.03 37.942 282.189 37.8952C282.512 37.8022 282.796 37.3698 282.828 36.8973C282.845 36.6592 282.795 36.4298 282.705 36.2392C282.62 36.0445 282.482 35.9069 282.322 35.8775C282.164 35.8407 282.047 35.9213 282.007 35.9941C281.965 36.0664 281.982 36.1194 281.966 36.1231C281.957 36.1293 281.902 36.0776 281.931 35.9697C281.945 35.918 281.983 35.8573 282.056 35.8089C282.13 35.7597 282.238 35.7366 282.349 35.7498C282.581 35.7705 282.784 35.9627 282.883 36.1718C282.995 36.3831 283.057 36.6402 283.039 36.9081C283 37.4364 282.67 37.9221 282.23 38.0197C282.016 38.0618 281.841 38.0015 281.752 37.937C281.661 37.8696 281.647 37.8105 281.657 37.806Z" fill="#F68260"/>
<path d="M282.552 34.919C282.091 34.8223 281.295 35.1914 281.099 35.566C280.902 35.9409 280.859 36.365 280.664 36.74C280.468 37.1149 280.026 37.4539 279.565 37.3588C279.248 37.2935 279.02 37.0347 278.936 36.7606C278.852 36.4862 278.886 36.196 278.927 35.9145C279.105 34.6892 279.402 33.4747 279.458 32.2407C279.514 31.0072 279.312 29.7253 278.567 28.674C277.822 27.6232 276.453 26.8498 275.037 26.9494C274.099 27.0151 273.239 27.4401 272.308 27.5534C271.202 27.6881 270.034 27.3491 269.244 26.6646C269.143 26.5774 268.672 26.3074 268.672 26.3074C268.672 26.2433 268.741 25.6956 268.99 25.4959C270.838 24.0102 274.169 23.5952 276.61 24.1293C279.052 24.6634 281.341 26.1619 282.391 28.1511C283.442 30.1399 283.131 32.9063 282.552 34.919Z" fill="#17282F"/>
<path d="M266.211 28.4408C266.211 28.4408 277.791 25.2024 282.8 33.9111C282.8 33.9111 283.549 31.7318 283.549 30.5636C283.549 29.7835 283.012 25.1367 277.511 23.6749C277.511 23.6749 269.225 20.9255 266.211 28.4408Z" fill="#F03D5F"/>
<path d="M276.161 28.6584C275.752 29.233 275.022 29.6253 274.247 29.6869C273.473 29.7481 272.673 29.4765 272.152 28.9754C271.923 29.4711 271.309 29.8121 270.695 29.784C270.081 29.7559 269.512 29.3616 269.344 28.8473C269.008 29.1309 268.658 29.4223 268.218 29.5625C267.778 29.7026 267.22 29.6497 266.931 29.3289C266.637 29.0023 266.722 28.505 267.011 28.1743C267.299 27.8436 267.744 27.6472 268.185 27.4873C269.56 26.9879 271.077 26.7378 272.554 26.9114C274.032 27.0855 275.462 27.708 276.386 28.7254L276.161 28.6584Z" fill="#17282F"/>
<path d="M282.801 33.9111C282.369 33.1596 281.872 32.48 281.328 31.8678C281.862 32.4622 282.357 33.1398 282.801 33.9111Z" fill="#0C1418"/>
<path d="M282.8 33.9111C282.356 33.1398 281.861 32.4622 281.327 31.8678C279.683 30.0166 277.607 28.7802 275.572 28.0142C274.717 27.4152 273.648 27.0403 272.554 26.9113C272.237 26.8741 271.919 26.8563 271.601 26.8563C271.099 26.8563 270.597 26.9006 270.102 26.982C270.032 26.9828 269.961 26.9849 269.893 26.9874C267.529 27.0783 266.211 28.4408 266.211 28.4408C267.952 24.1007 271.45 23.1838 274.096 23.1838C276.032 23.1838 277.511 23.6749 277.511 23.6749C283.012 25.1367 283.549 29.7835 283.549 30.5636C283.549 31.7082 282.83 33.8235 282.801 33.9087C282.801 33.9103 282.8 33.9111 282.8 33.9111Z" fill="#9C2438"/>
<path d="M275.574 28.0146C273.633 27.2838 271.729 26.9808 270.272 26.9808C270.215 26.9808 270.159 26.9812 270.104 26.9824C270.599 26.901 271.1 26.8568 271.602 26.8568C271.921 26.8568 272.239 26.8745 272.556 26.9117C273.65 27.0407 274.718 27.4157 275.574 28.0146Z" fill="#0C1418"/>
<path d="M282.317 32.8921C280.6 30.6086 278.233 28.7202 275.571 27.2746C272.909 25.8294 268.507 24.4 265.474 23.6997C264.563 23.4897 263.614 23.3061 262.685 23.4455C261.757 23.5852 260.848 24.1226 260.618 24.9167C260.329 25.9109 262.359 27.4445 263.313 28.0477C264.266 28.6512 266.212 29.5358 266.212 29.5358C266.212 29.5358 266.186 27.6921 269.58 27.3118C274.198 26.7947 282.317 32.8921 282.317 32.8921Z" fill="#F03D5F"/>
<path d="M272.821 25.3701C272.821 25.3701 271.152 24.5677 269.477 24.3809C269.82 24.1618 270.004 24.0568 270.385 23.9067C271.242 24.0551 272.111 24.2441 272.991 24.6686L272.821 25.3701Z" fill="#DADBD8"/>
<path d="M281.655 35.1C281.664 35.1269 281.417 35.2546 281.03 35.508C280.546 35.816 280.051 36.1306 279.509 36.475C278.318 37.2281 277.334 37.8193 277.292 37.7717C277.251 37.7246 278.169 37.0562 279.364 36.3009C280.549 35.5399 281.605 35.0128 281.655 35.1Z" fill="#E7E8E5"/>
<path d="M281.964 38.9261C282.016 38.9554 281.336 39.8392 280.192 40.678C279.053 41.523 277.94 41.962 277.915 41.9128C277.879 41.8557 278.918 41.3406 280.032 40.5139C281.152 39.6937 281.905 38.8856 281.964 38.9261Z" fill="#E7E8E5"/>
<path d="M265.368 37.6568C265.368 37.6568 266.562 37.9528 266.876 37.9379C269.062 37.8354 269.83 37.1938 273.4 37.856C273.976 37.9627 274.57 37.9767 275.153 37.9032C275.675 37.8374 276.416 37.7713 277.292 37.7713L277.979 41.9167C277.979 41.9167 273.743 45.1374 269.927 44.7765C264.994 44.3098 264.41 39.3066 265.368 37.6568Z" fill="#FAFAF9"/>
<path d="M265.368 37.6572C265.368 37.6572 265.323 37.7663 265.238 37.9598C265.165 38.159 265.082 38.4641 265.033 38.8622C264.963 39.6513 265.019 40.8576 265.722 42.1598C266.085 42.798 266.632 43.4483 267.422 43.9323C268.206 44.4218 269.224 44.7025 270.305 44.7517C271.388 44.788 272.529 44.5694 273.622 44.1783C274.72 43.7918 275.795 43.2622 276.825 42.6339C277.213 42.3937 277.592 42.1461 277.946 41.8849L277.93 41.9233C277.69 40.4698 277.46 39.0759 277.245 37.7775L277.292 37.8122C276.412 37.8043 275.577 37.8924 274.768 37.9767C274.36 38.0007 273.959 37.9809 273.576 37.9226C273.194 37.8614 272.832 37.7866 272.471 37.7407C271.754 37.6373 271.071 37.5844 270.437 37.5935C269.802 37.5989 269.222 37.6812 268.698 37.7572C268.173 37.8366 267.7 37.9007 267.284 37.9317C267.076 37.9387 266.883 37.9701 266.703 37.9449C266.526 37.9226 266.368 37.8912 266.227 37.8626C265.664 37.7444 265.368 37.6572 265.368 37.6572C265.365 37.5877 266.578 38.1888 268.688 37.708C269.212 37.6287 269.795 37.5418 270.435 37.534C271.074 37.5212 271.762 37.572 272.484 37.6733C272.845 37.7175 273.214 37.7928 273.59 37.8515C273.967 37.9077 274.361 37.9263 274.762 37.9015C275.558 37.8159 276.411 37.7246 277.292 37.7312L277.332 37.7316L277.338 37.7659C277.554 39.0643 277.786 40.4579 278.028 41.9109L278.032 41.9345L278.012 41.9493C277.652 42.2147 277.273 42.4624 276.882 42.7046C275.847 43.3358 274.766 43.8679 273.658 44.2564C272.555 44.65 271.402 44.8699 270.301 44.831C269.204 44.7794 268.17 44.4908 267.375 43.9906C266.573 43.4958 266.022 42.8332 265.66 42.1862C264.956 40.8667 264.913 39.6526 264.995 38.8589C265.05 38.4579 265.138 38.1541 265.219 37.9528C265.316 37.7539 265.368 37.6572 265.368 37.6572Z" fill="#17282F"/>
<path d="M265.766 40.0747C269.051 41.4976 273.134 41.4323 276.357 39.9048C275.699 40.5815 275.014 41.2756 274.106 41.6774C273.062 42.1387 271.843 42.1627 270.673 42.1611C269.739 42.1594 268.77 42.1408 267.935 41.7803C267.078 41.4108 266.466 40.7266 265.886 40.0648" fill="#DADBD8"/>
<path d="M275.854 39.0294C275.861 39.055 275.344 39.1943 274.487 39.3427C273.63 39.4915 272.43 39.6358 271.095 39.678C269.76 39.7181 268.551 39.6478 267.685 39.5519C266.817 39.4564 266.29 39.3489 266.295 39.3229C266.301 39.2906 266.836 39.3444 267.702 39.4002C268.567 39.4568 269.765 39.5023 271.086 39.4626C272.408 39.4212 273.599 39.3022 274.457 39.1926C275.316 39.0839 275.845 38.9975 275.854 39.0294Z" fill="#DADBD8"/>
<path d="M276.673 40.7545C276.694 40.7698 276.383 41.1266 275.739 41.5792C275.1 42.031 274.099 42.556 272.874 42.85C271.649 43.1455 270.48 43.1426 269.665 43.0405C268.844 42.9405 268.367 42.7735 268.375 42.7512C268.386 42.7164 268.876 42.8301 269.684 42.8892C270.488 42.9508 271.62 42.9289 272.808 42.6424C273.996 42.3572 274.98 41.8702 275.633 41.4581C276.29 41.046 276.644 40.7293 276.673 40.7545Z" fill="#DADBD8"/>
<path d="M276.747 39.8016C276.755 39.8148 276.62 39.8892 276.366 40.0137C276.116 40.1418 275.733 40.2985 275.248 40.4639C274.764 40.6329 274.167 40.7884 273.493 40.9161C272.816 41.0339 272.061 41.1178 271.263 41.1327C270.465 41.1401 269.707 41.0769 269.026 40.9781C268.347 40.869 267.744 40.7297 267.255 40.5746C266.764 40.4225 266.376 40.2766 266.121 40.1555C265.863 40.0377 265.725 39.967 265.733 39.9537C265.752 39.9182 266.328 40.1662 267.309 40.43C267.799 40.5643 268.395 40.6858 269.063 40.7822C269.734 40.8686 270.477 40.9248 271.259 40.9178C272.041 40.9029 272.782 40.8268 273.448 40.7218C274.113 40.6069 274.704 40.4692 275.188 40.3212C276.16 40.0302 276.726 39.7665 276.747 39.8016Z" fill="#17282F"/>
<path d="M273.202 39.8063C273.212 39.8609 271.948 40.0502 270.374 39.9919C268.8 39.939 267.557 39.6608 267.572 39.6075C267.586 39.5446 268.833 39.7249 270.384 39.777C271.934 39.8344 273.194 39.7431 273.202 39.8063Z" fill="#17282F"/>
<path d="M220.688 91.3445V57.8228H274.329V91.3445L245.9 91.5532L220.688 91.3445Z" fill="#F03D5F"/>
<path d="M220.688 91.3442H274.329V57.8226H220.688V91.3442Z" fill="#9C2438"/>
<path d="M245.9 91.5532L220.688 91.3445V57.8228H245.817L245.9 91.5532Z" fill="#F03D5F"/>
<path d="M234.28 63.6382H230.936V57.8227H234.28V63.6382Z" fill="#17282F"/>
<path d="M229.135 89.7344H222.477V83.9466H229.135V89.7344Z" fill="#FAFAF9"/>
<path d="M222.489 89.724H229.123V83.9569H222.489V89.724ZM229.148 89.7451H222.465V83.9363H229.148V89.7451Z" fill="#17282F"/>
<path d="M286.884 65.5185L287.993 73.3207L271.35 81.9083L273.937 86.8569L292.854 80.2139C295.148 79.204 297.11 77.7067 296.947 75.4649L296.036 64.5503L286.884 65.5185Z" fill="#F8A58D"/>
<path d="M291.571 50.2092C291.571 50.2092 293.938 51.7338 294.608 54.909C295.245 57.9321 297.41 66.3795 297.41 66.3795L286.005 67.5527L286.011 65.2316L284.949 60.8758L287.075 54.909L291.571 50.2092Z" fill="#F03D5F"/>
<path d="M296.957 66.416C296.96 66.4305 296.682 66.4735 296.178 66.5388C295.632 66.6045 294.912 66.6909 294.042 66.7951C292.237 67.0018 289.742 67.273 286.984 67.559C286.654 67.5933 286.327 67.6272 286.019 67.6586L285.891 67.6719L285.882 67.5603C285.691 65.3487 285.482 63.3822 285.327 61.9697C285.252 61.2909 285.19 60.7308 285.143 60.3029C285.101 59.911 285.086 59.6944 285.102 59.6927C285.117 59.6911 285.164 59.904 285.233 60.293C285.302 60.6828 285.392 61.2491 285.492 61.954C285.691 63.364 285.931 65.3288 286.127 67.5445L285.99 67.4462C286.297 67.4139 286.624 67.38 286.955 67.3453C289.712 67.0592 292.211 66.812 294.021 66.6438C294.895 66.5673 295.617 66.5037 296.167 66.4557C296.674 66.416 296.955 66.4011 296.957 66.416Z" fill="#17282F"/>
<path d="M290.636 50.753C290.652 50.7873 290.222 50.9423 289.589 51.2801C288.956 51.6162 288.136 52.1635 287.404 52.9134C286.676 53.6661 286.191 54.4602 285.916 55.0588C285.638 55.6578 285.534 56.0522 285.493 56.0443C285.468 56.0406 285.51 55.6318 285.752 55.0055C285.99 54.3805 286.465 53.5491 287.215 52.7745C287.968 52.0027 288.832 51.457 289.501 51.1486C290.171 50.8369 290.628 50.7319 290.636 50.753Z" fill="#17282F"/>
<path d="M271.091 81.4722L268.647 82.4457L267.598 82.0935L262.265 81.8037L258.924 82.4457L258.829 82.6115C258.829 84.1856 262.261 83.5643 263.309 83.8132C264.357 84.0616 263.404 86.0087 263.404 86.0087C263.404 86.0087 258.686 91.3529 257.864 92.6373C257.453 93.2793 257.587 93.6315 257.824 93.8233C258.066 94.0192 258.445 94.0184 258.716 93.8514L260.458 92.7795C260.458 92.7795 265.25 93.0221 265.579 92.8808C266.053 92.677 266.74 91.8089 266.74 91.8089C269.193 89.8151 271.715 88.1566 274.33 86.9425L271.091 81.4722Z" fill="#FAFAF9"/>
<path d="M271.09 81.472C271.092 81.4687 271.112 81.4976 271.151 81.5576C271.195 81.6278 271.25 81.7171 271.321 81.8283C271.477 82.0834 271.696 82.4397 271.974 82.8936C272.55 83.8477 273.375 85.2123 274.401 86.9101L274.438 86.9712L274.367 87.0043C272.083 88.0708 269.46 89.7128 266.816 91.8793L266.831 91.8636C266.513 92.239 266.203 92.6251 265.716 92.9268C265.657 92.9645 265.569 92.9897 265.477 93.0021L265.261 93.0174L264.837 93.0248C264.554 93.0269 264.27 93.0219 263.984 93.0166C262.839 92.9913 261.658 92.9426 260.45 92.8847L260.527 92.8657C260.154 93.0959 259.776 93.3282 259.396 93.5622L258.824 93.9153C258.622 94.0533 258.322 94.1224 258.053 94.0537C257.778 93.9892 257.563 93.7838 257.5 93.5461C257.439 93.3072 257.504 93.0753 257.597 92.8731C257.794 92.463 258.085 92.1294 258.352 91.7739C260.009 89.6971 261.713 87.7662 263.309 85.9456L263.295 85.968C263.425 85.6885 263.533 85.395 263.606 85.1044C263.672 84.8163 263.722 84.5124 263.641 84.2532C263.607 84.1201 263.515 84.0234 263.404 83.9568C263.285 83.9031 263.122 83.8754 262.959 83.8651C262.633 83.8378 262.298 83.8403 261.967 83.8386C261.306 83.8361 260.65 83.8345 260.013 83.72C259.701 83.6505 259.376 83.574 259.12 83.3777C258.857 83.1867 258.734 82.8907 258.725 82.6113L258.725 82.591L258.737 82.5716C258.77 82.5133 258.801 82.4596 258.832 82.4062L258.854 82.3682L258.901 82.3591C260.098 82.133 261.21 81.923 262.245 81.7275L262.257 81.725L262.269 81.7258C264.399 81.8515 266.188 81.9573 267.601 82.0408L267.611 82.0416L267.619 82.0445C268.03 82.1855 268.36 82.2992 268.665 82.4038L268.625 82.405C269.419 82.1007 270.034 81.8647 270.468 81.6981C270.664 81.6254 270.818 81.5675 270.936 81.5237C271.04 81.4856 271.092 81.4683 271.09 81.472C271.089 81.4757 271.034 81.5005 270.928 81.5464C270.81 81.5964 270.656 81.6613 270.46 81.7444C270.038 81.9189 269.439 82.1669 268.668 82.4864L268.648 82.4943L268.627 82.4873C268.321 82.3868 267.989 82.2781 267.576 82.1425L267.594 82.1458C266.179 82.076 264.389 81.9875 262.258 81.8817L262.284 81.88C261.251 82.0817 260.141 82.2983 258.946 82.5319L259.015 82.4852C258.984 82.5389 258.953 82.5931 258.919 82.651L258.931 82.6113C258.944 82.8515 259.04 83.0809 259.256 83.2388C259.467 83.4017 259.767 83.4744 260.059 83.5373C260.661 83.6435 261.308 83.6447 261.968 83.6439C262.299 83.6452 262.635 83.6406 262.982 83.6683C263.155 83.6815 263.334 83.7014 263.52 83.7849C263.692 83.8795 263.821 84.0362 263.863 84.1987C263.962 84.5236 263.902 84.8407 263.834 85.147C263.759 85.4545 263.65 85.7513 263.513 86.049L263.508 86.0597L263.497 86.0713C261.909 87.8923 260.206 89.8285 258.557 91.8946C258.294 92.2435 257.999 92.5891 257.827 92.9521C257.742 93.1335 257.696 93.3278 257.74 93.4965C257.785 93.6623 257.934 93.8049 258.12 93.8475C258.309 93.8933 258.516 93.8541 258.682 93.7408L259.255 93.3886C259.636 93.155 260.013 92.9231 260.387 92.6933L260.422 92.6722L260.464 92.6743C261.669 92.7334 262.85 92.7846 263.989 92.8123C264.274 92.8185 264.557 92.8243 264.836 92.8231L265.25 92.8165L265.448 92.8037C265.494 92.7958 265.539 92.7917 265.594 92.7574C266.011 92.504 266.346 92.1112 266.647 91.7533L266.656 91.7438L266.664 91.7375C269.329 89.5714 271.981 87.9336 274.291 86.8803L274.257 86.9745C273.273 85.2772 272.483 83.9134 271.929 82.9598C271.663 82.4931 271.453 82.1272 271.304 81.8647C271.238 81.7461 271.184 81.6514 271.142 81.5762C271.107 81.5104 271.089 81.4753 271.09 81.472Z" fill="#17282F"/>
<path d="M264.974 89.1728C265.016 89.2166 264.012 90.0285 262.77 91.0276C262.148 91.5261 261.58 91.9734 261.162 92.2913C260.745 92.6092 260.477 92.7969 260.457 92.7791C260.402 92.7316 261.356 91.868 262.603 90.8693C263.847 89.8681 264.928 89.1256 264.974 89.1728Z" fill="#17282F"/>
<path d="M266.424 90.2066C266.48 90.2454 265.89 90.9267 265.039 91.6613C264.194 92.4012 263.445 92.9423 263.399 92.8989C263.352 92.8555 264.022 92.2462 264.863 91.51C265.71 90.7787 266.373 90.1714 266.424 90.2066Z" fill="#17282F"/>
<path d="M42.1651 169.551C42.5643 168.207 41.5504 166.858 40.4137 165.882C39.277 164.907 37.9179 164.034 37.3264 162.744C36.3682 160.655 37.6563 157.949 36.0214 156.206C35.0595 155.181 33.335 154.837 32.4814 153.742C32.0337 153.167 31.889 152.461 31.7129 151.784C30.8154 148.331 28.8273 145.097 26.0235 142.53C25.8285 145.605 26.6087 148.722 28.2557 151.449C28.9178 152.545 29.7309 153.613 29.9503 154.836C30.3068 156.822 29.0311 158.869 29.5927 160.819C30.2345 163.049 33.1167 164.542 33.2533 166.838C33.3688 168.779 31.4227 170.483 31.5676 172.422C31.6294 173.248 32.0703 174.015 32.5613 174.724C34.288 177.219 36.8239 178.938 40.6686 178.882L45.3774 179.025L42.1651 169.551Z" fill="#F03D5F"/>
<path d="M45.3774 179.025L40.6686 178.882C40.6073 178.883 40.5469 178.883 40.4863 178.883C36.7438 178.883 34.2605 177.18 32.5612 174.724C32.0703 174.015 31.6294 173.248 31.5676 172.422C31.5626 172.354 31.5599 172.286 31.5599 172.219C31.5572 170.419 33.2566 168.811 33.258 167.008C33.2582 166.951 33.2566 166.894 33.2532 166.838C33.1167 164.542 30.2345 163.049 29.5927 160.819C29.4885 160.457 29.4474 160.092 29.4476 159.724C29.4481 158.363 30.0127 156.97 30.0142 155.596C30.0144 155.342 29.9954 155.088 29.9503 154.836C29.7309 153.613 28.9178 152.545 28.2557 151.449C26.7727 148.994 25.9925 146.222 25.9941 143.45C25.9943 143.143 26.004 142.836 26.0235 142.53C28.8273 145.097 30.8154 148.331 31.7128 151.784C31.8889 152.461 32.0337 153.167 32.4814 153.742C33.335 154.837 35.0595 155.181 36.0214 156.206C36.8484 157.088 36.9276 158.216 36.9278 159.386C36.9278 159.661 36.9235 159.939 36.9235 160.217C36.9237 161.09 36.9671 161.96 37.3264 162.744C37.9179 164.034 39.277 164.907 40.4137 165.882C41.3771 166.709 42.2526 167.805 42.2537 168.938C42.2541 169.142 42.2261 169.347 42.1651 169.551L45.3774 179.025Z" fill="#BA2C42"/>
<path d="M46.332 179.132C46.332 179.132 46.781 179.223 47.6286 179.108C48.0509 179.054 48.5702 178.957 49.1589 178.773C49.7439 178.587 50.4102 178.322 51.0484 177.873C51.3546 177.64 51.6609 177.353 51.8259 176.972C51.9881 176.594 52.0176 176.177 52.0475 175.75C52.0728 175.322 52.0732 174.877 52.1574 174.426C52.2368 173.975 52.4408 173.532 52.7328 173.11C53.2883 172.262 54.2099 171.459 54.5077 170.308C54.8301 169.176 54.599 167.951 54.3797 166.72C54.161 165.493 53.9493 164.154 54.4896 162.875C54.9946 161.595 56.0276 160.439 56.5436 158.996C57.0576 157.539 56.8184 155.971 56.9269 154.424C56.9763 153.648 57.149 152.872 57.5403 152.152C57.9213 151.427 58.4496 150.744 58.8624 149.981C59.698 148.439 59.8459 146.692 60.0742 144.979C60.1859 144.116 60.2982 143.245 60.4123 142.364C60.5245 141.479 60.6149 140.598 60.9354 139.746C61.2255 138.888 61.6454 138.059 62.0616 137.213C62.2656 136.787 62.481 136.362 62.608 135.89C62.7002 135.408 62.7269 134.956 62.7602 134.482C62.813 133.544 62.7683 132.593 62.6351 131.649C62.5067 130.704 62.3108 129.768 62.1938 128.821C62.1866 128.765 62.1795 128.709 62.1728 128.658L62.1486 128.469L61.9555 128.553C60.9473 128.992 60.0841 129.646 59.4207 130.413C58.7464 131.174 58.2556 132.034 57.8632 132.908C57.0767 134.666 56.7937 136.51 56.3971 138.268C56.01 140.026 55.4997 141.756 54.4625 143.218C53.9465 143.947 53.3221 144.612 52.7756 145.324C52.2306 146.03 51.7513 146.805 51.6072 147.657C51.3285 149.388 52.4261 150.909 52.1973 152.442C52.116 153.204 51.7674 153.916 51.3385 154.566C50.9109 155.22 50.4083 155.827 49.9317 156.436C49.4552 157.046 49.0015 157.664 48.6672 158.325C48.3277 158.983 48.1408 159.688 48.0889 160.377C47.9738 161.757 48.1997 163.067 48.0832 164.303C47.9876 165.541 47.4877 166.663 46.9215 167.667C46.3515 168.673 45.7182 169.584 45.1873 170.467C44.9204 170.908 44.6742 171.339 44.4736 171.772C44.261 172.203 44.1568 172.646 44.0603 173.066C43.9055 173.914 43.9205 174.705 44.0253 175.402C44.2302 176.804 44.8317 177.814 45.3725 178.381C45.4966 178.533 45.6404 178.64 45.7537 178.74C45.8638 178.843 45.9733 178.913 46.0628 178.968C46.2382 179.081 46.332 179.132 46.332 179.132C46.3528 179.111 45.9445 178.924 45.4202 178.348C44.9018 177.778 44.3264 176.776 44.1418 175.389C44.0474 174.7 44.0418 173.92 44.202 173.087C44.3012 172.675 44.4078 172.241 44.6185 171.823C44.8187 171.401 45.0676 170.972 45.3366 170.536C45.8716 169.661 46.5118 168.754 47.0938 167.74C47.6714 166.732 48.1907 165.587 48.2963 164.317C48.4199 163.055 48.2012 161.741 48.3215 160.393C48.3757 159.719 48.5574 159.047 48.8888 158.409C49.2151 157.77 49.6626 157.164 50.1386 156.559C50.6151 155.954 51.1235 155.345 51.5629 154.677C52.0033 154.014 52.3724 153.272 52.4618 152.466C52.6886 150.832 51.5996 149.302 51.8825 147.692C52.0185 146.896 52.4741 146.155 53.0115 145.461C53.5494 144.763 54.1767 144.097 54.7083 143.349C55.7784 141.846 56.2967 140.083 56.6876 138.317C57.0881 136.547 57.3715 134.724 58.1443 133.002C58.5286 132.146 59.0094 131.308 59.6609 130.572C60.302 129.831 61.1285 129.208 62.0891 128.79L61.8723 128.685C61.8785 128.737 61.8861 128.793 61.8932 128.85C62.0116 129.808 62.2085 130.746 62.3345 131.68C62.4672 132.613 62.511 133.545 62.4596 134.47C62.4287 134.926 62.3968 135.405 62.315 135.835C62.1999 136.266 61.9888 136.69 61.7862 137.112C61.3729 137.954 60.9468 138.796 60.6515 139.672C60.3243 140.544 60.2301 141.459 60.1212 142.333C60.009 143.214 59.8973 144.087 59.7874 144.95C59.5625 146.671 59.4146 148.39 58.6099 149.879C58.2123 150.62 57.6844 151.305 57.2926 152.053C56.8879 152.8 56.7081 153.62 56.6615 154.41C56.5588 155.99 56.7951 157.534 56.3034 158.933C55.8155 160.326 54.7882 161.487 54.2689 162.808C53.7135 164.143 53.9436 165.525 54.1681 166.749C54.3959 167.981 54.6242 169.181 54.3208 170.269C54.0483 171.369 53.1532 172.164 52.5868 173.035C52.2915 173.468 52.0804 173.937 52.0024 174.404C51.9201 174.87 51.9244 175.32 51.9034 175.744C51.8792 176.166 51.8516 176.579 51.7028 176.934C51.5549 177.287 51.2667 177.567 50.9723 177.795C50.3574 178.237 49.703 178.508 49.1276 178.7C48.5483 178.889 48.0357 178.994 47.6191 179.055C47.2019 179.121 46.8781 179.13 46.6614 179.136C46.4444 179.129 46.332 179.132 46.332 179.132Z" fill="#17282F"/>
<path d="M61.2099 130.912C61.2051 130.911 61.1894 130.953 61.1647 131.036C61.1371 131.134 61.1029 131.255 61.0606 131.404C60.9683 131.726 60.8575 132.213 60.6796 132.822C60.4951 133.428 60.0676 134.114 59.7023 134.959C59.3228 135.798 58.9376 136.77 58.5833 137.863C58.2243 138.954 57.9057 140.166 57.5732 141.465C57.2294 142.761 56.8875 144.151 56.0657 145.462C55.6795 146.127 55.2449 146.8 54.9001 147.536C54.5463 148.273 54.3551 149.077 54.2219 149.885C53.9955 151.506 53.6531 153.153 53.2066 154.837C52.2626 158.192 51.3633 161.386 50.5444 164.295C49.7059 167.194 48.9498 169.806 48.313 172.009C47.6929 174.191 47.1893 175.964 46.8339 177.215C46.6701 177.815 46.5408 178.289 46.4466 178.633C46.4087 178.783 46.3782 178.905 46.3533 179.004C46.334 179.088 46.3266 179.132 46.3316 179.132C46.3366 179.133 46.3543 179.092 46.3832 179.011C46.4158 178.914 46.456 178.794 46.5058 178.647C46.6132 178.305 46.7611 177.835 46.948 177.24C47.3258 175.994 47.8612 174.228 48.5199 172.055C49.1752 169.857 49.9523 167.249 50.8145 164.355C51.641 161.445 52.5489 158.249 53.5019 154.894C53.9485 153.212 54.2947 151.536 54.5153 149.922C54.6461 149.12 54.8283 148.344 55.1678 147.63C55.5007 146.913 55.9282 146.243 56.3149 145.571C57.1428 144.235 57.4881 142.803 57.8177 141.512C58.1401 140.21 58.4449 139.001 58.7893 137.912C59.1288 136.822 59.4974 135.852 59.8602 135.012C60.2069 134.169 60.6202 133.475 60.7933 132.848C60.9564 132.225 61.0463 131.743 61.12 131.415C61.1504 131.264 61.1752 131.141 61.1947 131.041C61.2099 130.957 61.2151 130.913 61.2099 130.912Z" fill="#17282F"/>
<path d="M47.1637 179.145C50.2395 177.556 51.1222 172.732 49.8391 169.829C48.5565 166.925 46.3102 164.273 45.9642 161.177C45.6979 158.798 46.5943 156.355 45.9569 154.03C45.0965 150.891 41.5711 148.46 41.6116 145.233C41.6343 143.423 42.8193 141.719 42.7251 139.911C42.6094 137.693 40.6505 135.932 39.4372 133.979C37.5801 130.987 37.458 127.451 36.8231 124.097C36.1881 120.743 34.7178 117.151 31.2981 115.503C30.793 118.35 29.9309 120.3 30.2019 124.158C30.2991 125.543 32.1504 128.195 32.4023 131.231C32.5528 133.046 32.6572 134.863 32.7848 136.679C32.9088 138.446 33.0406 140.246 33.7694 141.899C34.3277 143.166 35.2251 144.317 35.6395 145.625C36.4198 148.085 35.3949 150.751 36.0246 153.244C36.5585 155.356 38.2401 157.174 38.5838 159.316C39.0666 162.326 36.8261 165.452 37.9728 168.323C38.542 169.748 39.8899 170.891 40.2724 172.362C40.5693 173.503 40.2455 174.711 40.5143 175.857C40.9475 177.705 45.0001 179.139 47.1644 179.025" fill="#F03D5F"/>
<path d="M32.1448 118.329C32.1394 118.33 32.144 118.385 32.158 118.49C32.176 118.61 32.1986 118.764 32.2274 118.958C32.298 119.37 32.3771 119.973 32.5371 120.754C32.7091 121.539 33.1745 122.423 33.5464 123.489C33.9387 124.552 34.3292 125.778 34.6742 127.15C35.0253 128.522 35.3188 130.04 35.6272 131.674C35.9457 133.296 36.2716 135.088 37.204 136.79C37.6353 137.644 38.1192 138.499 38.4824 139.411C38.8549 140.319 39.0262 141.296 39.1313 142.299C39.2902 144.316 39.5993 146.414 40.0334 148.528C40.9754 152.746 41.8727 156.765 42.6891 160.423C43.5502 164.066 44.3256 167.348 44.9786 170.111C45.6379 172.854 46.1729 175.08 46.5476 176.639C46.7359 177.395 46.8838 177.988 46.9893 178.411C47.0399 178.601 47.0803 178.753 47.1113 178.87C47.1407 178.973 47.1584 179.026 47.1632 179.025C47.1684 179.024 47.1611 178.97 47.1418 178.865C47.1182 178.746 47.0874 178.593 47.049 178.4C46.957 177.976 46.8277 177.379 46.6631 176.619C46.3107 175.056 45.808 172.825 45.1883 170.075C44.5533 167.308 43.7995 164.022 42.9624 160.375C42.1534 156.718 41.2645 152.701 40.3316 148.483C39.8976 146.367 39.5904 144.3 39.4265 142.276C39.3189 141.266 39.1406 140.259 38.7555 139.329C38.3812 138.398 37.8906 137.539 37.4589 136.692C36.5319 135.015 36.2064 133.265 35.8744 131.638C35.556 130.006 35.2489 128.484 34.883 127.109C34.5229 125.734 34.1165 124.506 33.7071 123.443C33.3162 122.374 32.8367 121.498 32.6521 120.732C32.4771 119.966 32.377 119.356 32.2876 118.95C32.2464 118.758 32.2141 118.605 32.1886 118.486C32.1646 118.382 32.15 118.329 32.1448 118.329Z" fill="#17282F"/>
<path d="M207.888 60.6304H192.602V42.007H207.888V60.6304Z" fill="#33535F"/>
<path d="M207.888 44.1655H192.602V42.0068H207.888V44.1655Z" fill="#17282F"/>
<path d="M207.888 60.6304H192.602V58.4717H207.888V60.6304Z" fill="#17282F"/>
<path d="M204.871 49.7002H195.584V45.4936H204.871V49.7002Z" fill="#17282F"/>
<path d="M202.425 47.5966C202.401 47.5974 202.403 47.4279 202.31 47.1439C202.218 46.8653 201.994 46.4602 201.511 46.1506C201.043 45.8397 200.278 45.6686 199.54 45.9096C198.809 46.1307 198.179 46.8074 198.187 47.5966C198.179 48.3857 198.809 49.0629 199.54 49.284C200.278 49.5246 201.043 49.3535 201.511 49.043C201.995 48.7334 202.218 48.3279 202.31 48.0493C202.403 47.7653 202.401 47.5958 202.425 47.5966C202.434 47.5966 202.44 47.6383 202.443 47.719C202.448 47.7992 202.44 47.919 202.403 48.0695C202.336 48.3667 202.126 48.8119 201.617 49.1637C201.124 49.5163 200.287 49.7272 199.462 49.47C198.645 49.2365 197.93 48.4817 197.94 47.5966C197.93 46.7115 198.645 45.9567 199.462 45.7231C200.287 45.4664 201.124 45.6768 201.617 46.0295C202.126 46.3817 202.336 46.8265 202.403 47.1237C202.44 47.2742 202.448 47.394 202.443 47.4746C202.44 47.5553 202.434 47.5966 202.425 47.5966Z" fill="#33535F"/>
<path d="M196.653 51.3189C196.653 51.4917 196.491 51.6318 196.292 51.6318C196.093 51.6318 195.932 51.4917 195.932 51.3189C195.932 51.1457 196.093 51.0052 196.292 51.0052C196.491 51.0052 196.653 51.1457 196.653 51.3189Z" fill="#17282F"/>
<path d="M199.379 51.3189C199.379 51.4917 199.218 51.6318 199.019 51.6318C198.819 51.6318 198.658 51.4917 198.658 51.3189C198.658 51.1457 198.819 51.0052 199.019 51.0052C199.218 51.0052 199.379 51.1457 199.379 51.3189Z" fill="#17282F"/>
<path d="M202.106 51.3189C202.106 51.4917 201.945 51.6318 201.745 51.6318C201.546 51.6318 201.385 51.4917 201.385 51.3189C201.385 51.1457 201.546 51.0052 201.745 51.0052C201.945 51.0052 202.106 51.1457 202.106 51.3189Z" fill="#17282F"/>
<path d="M196.653 53.3268C196.653 53.5 196.491 53.6401 196.292 53.6401C196.093 53.6401 195.932 53.5 195.932 53.3268C195.932 53.154 196.093 53.0134 196.292 53.0134C196.491 53.0134 196.653 53.154 196.653 53.3268Z" fill="#17282F"/>
<path d="M199.379 53.3268C199.379 53.5 199.218 53.6401 199.019 53.6401C198.819 53.6401 198.658 53.5 198.658 53.3268C198.658 53.154 198.819 53.0134 199.019 53.0134C199.218 53.0134 199.379 53.154 199.379 53.3268Z" fill="#17282F"/>
<path d="M202.106 53.3268C202.106 53.5 201.945 53.6401 201.745 53.6401C201.546 53.6401 201.385 53.5 201.385 53.3268C201.385 53.154 201.546 53.0134 201.745 53.0134C201.945 53.0134 202.106 53.154 202.106 53.3268Z" fill="#17282F"/>
<path d="M196.653 55.3351C196.653 55.5083 196.491 55.6484 196.292 55.6484C196.093 55.6484 195.932 55.5083 195.932 55.3351C195.932 55.1619 196.093 55.0218 196.292 55.0218C196.491 55.0218 196.653 55.1619 196.653 55.3351Z" fill="#17282F"/>
<path d="M199.379 55.3351C199.379 55.5083 199.218 55.6484 199.019 55.6484C198.819 55.6484 198.658 55.5083 198.658 55.3351C198.658 55.1619 198.819 55.0218 199.019 55.0218C199.218 55.0218 199.379 55.1619 199.379 55.3351Z" fill="#17282F"/>
<path d="M202.106 55.3351C202.106 55.5083 201.945 55.6484 201.745 55.6484C201.546 55.6484 201.385 55.5083 201.385 55.3351C201.385 55.1619 201.546 55.0218 201.745 55.0218C201.945 55.0218 202.106 55.1619 202.106 55.3351Z" fill="#17282F"/>
<path d="M205.886 53.3268C205.886 53.9539 205.301 54.4624 204.58 54.4624C203.858 54.4624 203.273 53.9539 203.273 53.3268C203.273 52.6997 203.858 52.1913 204.58 52.1913C205.301 52.1913 205.886 52.6997 205.886 53.3268Z" fill="#F03D5F"/>
<path d="M186.079 179.027H177.232V0.137619H186.079V179.027Z" fill="#17282F"/>
<path d="M177.233 179.027H89.1523V7.68437H177.233V179.027Z" fill="#33535F"/>
<path d="M91.6195 179.027H83.4688V0.137619H91.6195V179.027Z" fill="#17282F"/>
<path d="M186.078 7.68408H83.4688V0.137351H186.078V7.68408Z" fill="#17282F"/>
<path d="M186.08 0.137489C186.091 0.14865 185.972 0.254466 185.749 0.436768C185.482 0.649247 185.164 0.902668 184.793 1.19741C183.934 1.87329 182.837 2.73561 181.624 3.6897C180.393 4.66942 179.296 5.57099 178.543 6.2568C178.167 6.59908 177.877 6.88804 177.702 7.10052C177.612 7.20676 177.558 7.29481 177.521 7.35517C177.499 7.41718 177.481 7.45312 177.473 7.45312C177.465 7.45312 177.464 7.41676 177.474 7.34152C177.497 7.27249 177.54 7.17163 177.62 7.05547C177.777 6.82108 178.051 6.5131 178.414 6.15387C179.141 5.43583 180.224 4.51315 181.456 3.53095C182.689 2.54958 183.836 1.69181 184.678 1.08248C185.099 0.778228 185.444 0.536412 185.686 0.373126C185.929 0.210253 186.069 0.125914 186.08 0.137489Z" fill="#33535F"/>
<path d="M91.6205 7.83913C91.5701 7.87964 89.7045 6.18807 87.4546 4.06121C85.2032 1.93394 83.4194 0.177478 83.4698 0.13738C83.5202 0.096868 85.3854 1.78843 87.6367 3.9157C89.8871 6.04215 91.6709 7.79903 91.6205 7.83913Z" fill="#33535F"/>
<path d="M97.0214 108.532H96.7689C95.2019 108.532 93.9316 107.427 93.9316 106.065V88.1147C93.9316 86.7522 95.2019 85.6481 96.7689 85.6481H97.0214C98.5889 85.6481 99.8586 86.7522 99.8586 88.1147V106.065C99.8586 107.427 98.5889 108.532 97.0214 108.532Z" fill="#17282F"/>
<path d="M98.0989 102.912C98.0989 102.433 97.6519 102.044 97.1003 102.044C96.5486 102.044 96.1016 102.433 96.1016 102.912C96.1016 103.251 96.3265 103.541 96.6518 103.684V104.692C96.6518 104.908 96.8525 105.082 97.1003 105.082C97.348 105.082 97.5487 104.908 97.5487 104.692V103.684C97.874 103.541 98.0989 103.251 98.0989 102.912Z" fill="#33535F"/>
<path d="M111.628 96.0923H98.325C97.4927 96.0923 96.8184 95.5057 96.8184 94.7823V94.6657C96.8184 93.9423 97.4927 93.3557 98.325 93.3557H111.628C112.46 93.3557 113.135 93.9423 113.135 94.6657V94.7823C113.135 95.5057 112.46 96.0923 111.628 96.0923Z" fill="#17282F"/>
<path d="M102.746 96.1707C102.745 96.1868 102.569 96.1934 102.25 96.2062C101.876 96.2207 101.426 96.2376 100.9 96.2575C100.329 96.2719 99.6425 96.2856 98.8826 96.1971C98.5059 96.1492 98.1021 96.0905 97.707 95.9396C97.3175 95.7916 96.9318 95.5506 96.6992 95.1889C96.4738 94.8272 96.441 94.3886 96.6355 94.0277C96.7287 93.8495 96.898 93.692 97.0859 93.6036C97.2694 93.5093 97.4573 93.4502 97.6408 93.3973C98.3818 93.1831 99.0885 93.198 99.6544 93.1906C100.228 93.1927 100.69 93.215 101.008 93.2319C101.327 93.2497 101.503 93.2654 101.503 93.2803C101.503 93.3154 100.794 93.3167 99.6577 93.3427C99.0899 93.3696 98.4098 93.3716 97.7127 93.5854C97.3669 93.6924 96.9993 93.8185 96.8547 94.1178C96.6997 94.4055 96.7263 94.7833 96.9161 95.0855C97.1115 95.3898 97.4497 95.6089 97.8059 95.7465C98.1625 95.8871 98.5482 95.9487 98.9154 96.0008C99.6506 96.0975 100.329 96.1004 100.898 96.1049C102.038 96.1004 102.748 96.1376 102.746 96.1707Z" fill="#33535F"/>
<path d="M130.764 46.0485C130.764 46.0485 130.76 46.0006 130.758 45.9113C130.756 45.8162 130.754 45.6864 130.751 45.5178C130.748 45.1652 130.744 44.6567 130.739 43.9965C130.731 42.6634 130.721 40.7238 130.709 38.2674C130.696 33.3523 130.676 26.369 130.653 18.0637L130.764 18.1596C122.998 18.1634 114.076 18.1671 104.629 18.1712H104.626L104.75 18.0637C104.742 28.4165 104.735 38.043 104.729 46.0485L104.626 45.9588C112.489 45.9783 119.01 45.994 123.574 46.0051C125.854 46.0151 127.645 46.0229 128.876 46.0283C129.483 46.0328 129.95 46.0361 130.276 46.0386C130.594 46.0419 130.764 46.0485 130.764 46.0485C130.764 46.0485 130.61 46.0552 130.299 46.0585C129.978 46.0609 129.517 46.0643 128.918 46.0684C127.693 46.0742 125.909 46.082 123.639 46.092C119.059 46.1031 112.516 46.1188 104.626 46.1383L104.523 46.1387V46.0485C104.517 38.043 104.51 28.4165 104.502 18.0637L104.502 17.9558H104.626H104.629C114.076 17.96 122.998 17.9641 130.764 17.9674H130.875V18.0637C130.852 26.3946 130.833 33.3994 130.819 38.3294C130.807 40.7767 130.797 42.7088 130.79 44.037C130.784 44.6889 130.78 45.1912 130.777 45.5397C130.774 45.7034 130.772 45.8299 130.77 45.9225C130.768 46.008 130.767 46.0502 130.764 46.0485Z" fill="#17282F"/>
<path d="M126.462 42.5848C126.46 42.5827 126.457 42.5468 126.455 42.4781C126.454 42.4013 126.451 42.302 126.449 42.1747C126.445 41.8994 126.441 41.5092 126.435 41.0061C126.428 39.9797 126.418 38.496 126.405 36.6213C126.392 32.8641 126.372 27.5447 126.35 21.2497L126.462 21.3472C121.041 21.3501 114.915 21.3534 108.454 21.3572C108.424 21.3799 108.687 21.1558 108.576 21.2538V21.2596V21.2712V21.2943V21.341V21.4344V21.6209V21.9929L108.576 22.7345C108.576 23.2277 108.576 23.7184 108.576 24.2062C108.575 25.1822 108.575 26.1474 108.574 27.1003C108.573 29.006 108.571 30.8621 108.57 32.657C108.564 36.2456 108.558 39.5874 108.553 42.5848L108.452 42.4967C113.89 42.5158 118.378 42.5315 121.52 42.5426C123.085 42.5521 124.313 42.56 125.163 42.565C125.576 42.5691 125.896 42.5728 126.125 42.5749C126.344 42.5782 126.462 42.5848 126.462 42.5848C126.462 42.5848 126.358 42.591 126.146 42.5943C125.922 42.5964 125.608 42.5997 125.203 42.6038C124.359 42.6092 123.138 42.617 121.583 42.6265C118.426 42.6377 113.917 42.6534 108.452 42.6724L108.351 42.6729L108.351 42.5848C108.346 39.5874 108.34 36.2456 108.334 32.657C108.333 30.8621 108.331 29.006 108.33 27.1003C108.329 26.1474 108.329 25.1822 108.329 24.2062C108.328 23.7184 108.328 23.2277 108.328 22.7345V21.9929V21.6209V21.4344V21.341V21.2943V21.2712V21.2596V21.2538C108.218 21.3481 108.478 21.1174 108.454 21.1422C114.915 21.1455 121.041 21.1488 126.462 21.1521H126.574L126.574 21.2497C126.551 27.5707 126.532 32.9124 126.518 36.6846C126.505 38.5502 126.495 40.0264 126.488 41.0478C126.483 41.5422 126.478 41.9263 126.475 42.197C126.472 42.3194 126.47 42.4153 126.468 42.4893C126.466 42.5542 126.464 42.5865 126.462 42.5848Z" fill="#17282F"/>
<path d="M130.764 105.119C130.764 105.119 130.759 105.029 130.757 104.859C130.755 104.685 130.753 104.434 130.75 104.106C130.746 103.439 130.741 102.463 130.735 101.197C130.727 98.6591 130.716 94.9672 130.702 90.3261C130.689 81.0498 130.669 67.984 130.646 52.7963L130.764 52.8988C122.641 52.9005 113.802 52.9021 104.63 52.9038H104.626L104.75 52.7963C104.736 73.1736 104.724 91.6506 104.715 105.119L104.626 105.042C112.686 105.06 119.209 105.074 123.725 105.084C125.983 105.092 127.737 105.098 128.934 105.103C129.528 105.107 129.982 105.11 130.294 105.111C130.602 105.114 130.764 105.119 130.764 105.119C130.764 105.119 130.614 105.125 130.312 105.127C130.003 105.129 129.555 105.132 128.968 105.136C127.776 105.14 126.028 105.146 123.779 105.155C119.251 105.165 112.709 105.179 104.626 105.196L104.537 105.197V105.119C104.528 91.6506 104.516 73.1736 104.502 52.7963L104.502 52.6888H104.626H104.63C113.802 52.6905 122.641 52.6921 130.764 52.6938H130.882V52.7963C130.859 68.0117 130.84 81.1023 130.826 90.3956C130.812 95.0267 130.801 98.7104 130.794 101.243C130.787 102.499 130.782 103.469 130.779 104.13C130.776 104.454 130.773 104.7 130.771 104.872C130.769 105.038 130.764 105.119 130.764 105.119Z" fill="#17282F"/>
<path d="M126.461 102.22C126.461 102.22 126.457 102.139 126.454 101.987C126.452 101.829 126.45 101.606 126.447 101.314C126.443 100.718 126.438 99.8475 126.431 98.7215C126.423 96.4615 126.412 93.1809 126.397 89.0694C126.384 80.8513 126.364 69.3162 126.342 56.0214L126.461 56.1252C120.787 56.1264 114.715 56.1277 108.455 56.1289H108.452L108.576 56.0214C108.559 74.4918 108.544 91.0681 108.534 102.22L108.452 102.148C114.082 102.165 118.573 102.179 121.666 102.188C123.211 102.195 124.404 102.201 125.22 102.205C125.621 102.208 125.928 102.211 126.143 102.213C126.351 102.215 126.461 102.22 126.461 102.22C126.461 102.22 126.362 102.224 126.159 102.227C125.947 102.229 125.645 102.231 125.251 102.234C124.439 102.239 123.251 102.245 121.715 102.252C118.611 102.261 114.103 102.274 108.452 102.291H108.37V102.22C108.36 91.0681 108.345 74.4918 108.328 56.0214V55.9135H108.452H108.455C114.715 55.9148 120.787 55.916 126.461 55.9172H126.581V56.0214C126.559 69.3448 126.54 80.905 126.526 89.1409C126.511 93.2425 126.5 96.5148 126.492 98.7694C126.485 99.8855 126.481 100.748 126.477 101.339C126.473 101.626 126.471 101.845 126.469 102C126.467 102.148 126.461 102.22 126.461 102.22Z" fill="#17282F"/>
<path d="M130.764 171.385C130.764 171.385 130.759 171.294 130.757 171.125C130.755 170.95 130.753 170.699 130.75 170.371C130.746 169.704 130.741 168.728 130.735 167.462C130.727 164.924 130.716 161.233 130.702 156.591C130.689 147.315 130.669 134.249 130.646 119.062L130.764 119.164C122.641 119.166 113.802 119.167 104.63 119.169H104.626L104.75 119.062C104.736 139.439 104.724 157.916 104.715 171.385L104.626 171.307C112.686 171.325 119.209 171.339 123.725 171.349C125.983 171.357 127.737 171.364 128.934 171.368C129.528 171.372 129.982 171.374 130.294 171.376C130.602 171.379 130.764 171.385 130.764 171.385C130.764 171.385 130.614 171.39 130.312 171.392C130.003 171.394 129.555 171.397 128.968 171.401C127.776 171.405 126.028 171.412 123.779 171.42C119.251 171.43 112.709 171.444 104.626 171.461H104.537V171.385C104.528 157.916 104.516 139.439 104.502 119.062L104.502 118.954H104.626H104.63C113.802 118.956 122.641 118.958 130.764 118.959H130.882V119.062C130.859 134.277 130.84 147.367 130.826 156.661C130.812 161.292 130.801 164.976 130.794 167.508C130.787 168.765 130.782 169.734 130.779 170.395C130.776 170.718 130.773 170.965 130.771 171.137C130.769 171.303 130.764 171.385 130.764 171.385Z" fill="#17282F"/>
<path d="M126.461 168.485C126.461 168.485 126.457 168.404 126.454 168.252C126.452 168.095 126.45 167.871 126.447 167.579C126.443 166.983 126.438 166.113 126.431 164.987C126.423 162.727 126.412 159.446 126.397 155.335C126.384 147.117 126.364 135.581 126.342 122.287L126.461 122.39C120.787 122.392 114.715 122.393 108.455 122.394H108.452L108.576 122.287C108.559 140.757 108.544 157.333 108.534 168.485L108.452 168.414C114.082 168.43 118.573 168.444 121.666 168.453C123.211 168.461 124.404 168.466 125.22 168.47C125.621 168.474 125.928 168.476 126.143 168.478C126.351 168.48 126.461 168.485 126.461 168.485C126.461 168.485 126.362 168.49 126.159 168.493C125.947 168.494 125.645 168.496 125.251 168.5C124.439 168.504 123.251 168.51 121.715 168.517C118.611 168.526 114.103 168.54 108.452 168.556L108.37 168.557V168.485C108.36 157.333 108.345 140.757 108.328 122.287V122.179H108.452H108.455C114.715 122.18 120.787 122.181 126.461 122.182H126.581V122.287C126.559 135.61 126.54 147.17 126.526 155.406C126.511 159.507 126.5 162.78 126.492 165.034C126.485 166.151 126.481 167.014 126.477 167.605C126.473 167.892 126.471 168.111 126.469 168.265C126.467 168.413 126.461 168.485 126.461 168.485Z" fill="#17282F"/>
<path d="M108.873 42.5753C108.917 42.6211 107.916 43.3917 106.639 44.2954C105.361 45.1994 104.291 45.8943 104.247 45.8484C104.204 45.8021 105.205 45.0324 106.483 44.1283C107.76 43.2247 108.83 42.5294 108.873 42.5753Z" fill="#17282F"/>
<path d="M130.912 45.6363C130.877 45.6842 129.809 45.1274 128.622 44.2837C127.432 43.4429 126.59 42.6451 126.637 42.6054C126.687 42.5611 127.599 43.2837 128.779 44.1171C129.955 44.953 130.952 45.5846 130.912 45.6363Z" fill="#17282F"/>
<path d="M130.376 18.7268C130.416 18.7747 129.533 19.3932 128.403 20.1071C127.273 20.821 126.325 21.3613 126.285 21.3129C126.245 21.265 127.128 20.6469 128.258 19.933C129.387 19.2187 130.335 18.6788 130.376 18.7268Z" fill="#17282F"/>
<path d="M108.527 20.8964C108.496 20.9468 107.494 20.5165 106.363 19.8373C105.229 19.1606 104.41 18.5012 104.453 18.4578C104.498 18.4103 105.381 18.9899 106.503 19.66C107.624 20.3325 108.562 20.8426 108.527 20.8964Z" fill="#17282F"/>
<path d="M108.357 56.0882C108.329 56.1345 107.209 55.5653 106.164 54.5322C105.111 53.505 104.598 52.4699 104.655 52.4508C104.722 52.419 105.321 53.3871 106.35 54.3896C107.369 55.3987 108.402 56.034 108.357 56.0882Z" fill="#17282F"/>
<path d="M130.439 52.7718C130.484 52.8164 129.654 53.5146 128.585 54.3311C127.516 55.1475 126.613 55.7734 126.568 55.7287C126.523 55.6841 127.353 54.9859 128.422 54.1694C129.491 53.3526 130.394 52.7271 130.439 52.7718Z" fill="#17282F"/>
<path d="M108.35 102.458C108.39 102.511 107.521 103.058 106.536 103.818C105.548 104.575 104.817 105.257 104.762 105.217C104.712 105.181 105.368 104.426 106.372 103.657C107.373 102.885 108.315 102.411 108.35 102.458Z" fill="#17282F"/>
<path d="M130.029 105.071C129.983 105.114 129.17 104.528 128.214 103.761C127.259 102.994 126.522 102.337 126.568 102.293C126.615 102.249 127.427 102.836 128.383 103.603C129.338 104.37 130.076 105.027 130.029 105.071Z" fill="#17282F"/>
<path d="M108.794 122.907C108.745 122.948 107.761 122.127 106.598 121.075C105.434 120.021 104.531 119.134 104.58 119.093C104.629 119.052 105.612 119.872 106.776 120.925C107.94 121.978 108.843 122.866 108.794 122.907Z" fill="#17282F"/>
<path d="M130.674 118.929C130.722 118.972 129.826 119.789 128.674 120.753C127.521 121.718 126.549 122.466 126.502 122.423C126.454 122.38 127.35 121.563 128.502 120.598C129.654 119.634 130.627 118.886 130.674 118.929Z" fill="#17282F"/>
<path d="M107.923 168.216C107.973 168.256 107.285 168.989 106.386 169.853C105.486 170.717 104.716 171.386 104.665 171.345C104.614 171.305 105.302 170.573 106.202 169.708C107.102 168.844 107.872 168.176 107.923 168.216Z" fill="#17282F"/>
<path d="M130.332 171.383C130.292 171.429 129.344 170.845 128.302 169.994C127.257 169.145 126.525 168.361 126.575 168.323C126.627 168.282 127.435 168.996 128.471 169.837C129.504 170.681 130.376 171.335 130.332 171.383Z" fill="#17282F"/>
<path d="M165.553 46.0485C165.553 46.0485 165.549 46.0006 165.547 45.9113C165.545 45.8162 165.543 45.6864 165.54 45.5178C165.537 45.1652 165.533 44.6567 165.527 43.9965C165.52 42.6634 165.51 40.7238 165.498 38.2674C165.484 33.3523 165.465 26.369 165.442 18.0637L165.553 18.1596C157.787 18.1634 148.865 18.1671 139.418 18.1712H139.415L139.539 18.0637C139.531 28.4165 139.524 38.043 139.518 46.0485L139.415 45.9588C147.277 45.9783 153.798 45.994 158.363 46.0051C160.643 46.0151 162.434 46.0229 163.664 46.0283C164.272 46.0328 164.739 46.0361 165.065 46.0386C165.383 46.0419 165.553 46.0485 165.553 46.0485C165.553 46.0485 165.398 46.0552 165.088 46.0585C164.766 46.0609 164.305 46.0643 163.706 46.0684C162.481 46.0742 160.698 46.082 158.428 46.092C153.847 46.1031 147.304 46.1188 139.415 46.1383L139.311 46.1387V46.0485C139.306 38.043 139.299 28.4165 139.291 18.0637V17.9558H139.415H139.418C148.865 17.96 157.787 17.9641 165.553 17.9674H165.664L165.664 18.0637C165.641 26.3946 165.622 33.3994 165.608 38.3294C165.596 40.7767 165.586 42.7088 165.579 44.037C165.573 44.6889 165.568 45.1912 165.566 45.5397C165.563 45.7034 165.561 45.8299 165.559 45.9225C165.557 46.008 165.555 46.0502 165.553 46.0485Z" fill="#17282F"/>
<path d="M161.249 42.5848C161.246 42.5827 161.245 42.5468 161.243 42.4781C161.241 42.4013 161.239 42.302 161.236 42.1747C161.233 41.8994 161.228 41.5092 161.223 41.0061C161.215 39.9797 161.205 38.496 161.193 36.6213C161.179 32.8641 161.16 27.5447 161.137 21.2497L161.249 21.3472C155.827 21.3501 149.703 21.3534 143.241 21.3572C143.211 21.3799 143.474 21.1558 143.363 21.2538V21.2596V21.2712V21.2943V21.341V21.4344V21.6209V21.9929V22.7345C143.363 23.2277 143.363 23.7184 143.363 24.2062C143.362 25.1822 143.362 26.1474 143.362 27.1003C143.36 29.006 143.358 30.8621 143.357 32.657C143.351 36.2456 143.345 39.5874 143.34 42.5848L143.239 42.4967C148.678 42.5158 153.166 42.5315 156.307 42.5426C157.872 42.5521 159.1 42.56 159.95 42.565C160.363 42.5691 160.683 42.5728 160.912 42.5749C161.131 42.5782 161.249 42.5848 161.249 42.5848C161.249 42.5848 161.146 42.591 160.934 42.5943C160.709 42.5964 160.395 42.5997 159.991 42.6038C159.146 42.6092 157.925 42.617 156.37 42.6265C153.214 42.6377 148.704 42.6534 143.239 42.6724L143.138 42.6729V42.5848C143.133 39.5874 143.127 36.2456 143.122 32.657C143.12 30.8621 143.118 29.006 143.117 27.1003C143.116 26.1474 143.116 25.1822 143.115 24.2062C143.115 23.7184 143.115 23.2277 143.115 22.7345V21.9929V21.6209V21.4344V21.341V21.2943V21.2712V21.2596V21.2538C143.005 21.3481 143.265 21.1174 143.241 21.1422C149.703 21.1455 155.827 21.1488 161.249 21.1521H161.361V21.2497C161.339 27.5707 161.319 32.9124 161.306 36.6846C161.292 38.5502 161.282 40.0264 161.275 41.0478C161.27 41.5422 161.265 41.9263 161.262 42.197C161.259 42.3194 161.257 42.4153 161.255 42.4893C161.253 42.5542 161.251 42.5865 161.249 42.5848Z" fill="#17282F"/>
<path d="M165.553 105.119C165.553 105.119 165.548 105.029 165.546 104.859C165.544 104.685 165.542 104.434 165.539 104.106C165.535 103.439 165.53 102.463 165.524 101.197C165.516 98.6591 165.505 94.9672 165.491 90.3261C165.477 81.0498 165.458 67.984 165.435 52.7963L165.553 52.8988C157.429 52.9005 148.591 52.9021 139.419 52.9038H139.415L139.539 52.7963C139.525 73.1736 139.512 91.6506 139.503 105.119L139.415 105.042C147.475 105.06 153.998 105.074 158.513 105.084C160.771 105.092 162.526 105.098 163.723 105.103C164.317 105.107 164.77 105.11 165.083 105.111C165.391 105.114 165.553 105.119 165.553 105.119C165.553 105.119 165.403 105.125 165.101 105.127C164.792 105.129 164.343 105.132 163.757 105.136C162.564 105.14 160.817 105.146 158.567 105.155C154.039 105.165 147.498 105.179 139.415 105.196L139.326 105.197V105.119C139.317 91.6506 139.304 73.1736 139.291 52.7963V52.6888H139.415H139.419C148.591 52.6905 157.429 52.6921 165.553 52.6938H165.671V52.7963C165.648 68.0117 165.628 81.1023 165.615 90.3956C165.601 95.0267 165.59 98.7104 165.582 101.243C165.576 102.499 165.571 103.469 165.567 104.13C165.565 104.454 165.562 104.7 165.56 104.872C165.558 105.038 165.553 105.119 165.553 105.119Z" fill="#17282F"/>
<path d="M161.251 102.22C161.251 102.22 161.246 102.139 161.243 101.987C161.242 101.829 161.239 101.606 161.236 101.314C161.232 100.718 161.227 99.8475 161.22 98.7215C161.212 96.4615 161.201 93.1809 161.187 89.0694C161.173 80.8513 161.153 69.3162 161.131 56.0214L161.251 56.1252C155.577 56.1264 149.505 56.1277 143.245 56.1289H143.241L143.364 56.0214C143.348 74.4918 143.333 91.0681 143.323 102.22L143.241 102.148C148.871 102.165 153.362 102.179 156.455 102.188C158 102.195 159.193 102.201 160.009 102.205C160.41 102.208 160.717 102.211 160.932 102.213C161.14 102.215 161.251 102.22 161.251 102.22C161.251 102.22 161.151 102.224 160.948 102.227C160.737 102.229 160.435 102.231 160.04 102.234C159.228 102.239 158.041 102.245 156.504 102.252C153.4 102.261 148.892 102.274 143.241 102.291H143.159V102.22C143.149 91.0681 143.134 74.4918 143.117 56.0214V55.9135H143.241H143.245C149.505 55.9148 155.577 55.916 161.251 55.9172H161.37V56.0214C161.348 69.3448 161.329 80.905 161.315 89.1409C161.301 93.2425 161.289 96.5148 161.281 98.7694C161.275 99.8855 161.269 100.748 161.266 101.339C161.263 101.626 161.26 101.845 161.259 102C161.256 102.148 161.251 102.22 161.251 102.22Z" fill="#17282F"/>
<path d="M165.553 171.385C165.553 171.385 165.548 171.294 165.546 171.125C165.544 170.95 165.542 170.699 165.539 170.371C165.535 169.704 165.53 168.728 165.524 167.462C165.516 164.924 165.505 161.233 165.491 156.591C165.477 147.315 165.458 134.249 165.435 119.062L165.553 119.164C157.429 119.166 148.591 119.167 139.419 119.169H139.415L139.539 119.062C139.525 139.439 139.512 157.916 139.503 171.385L139.415 171.307C147.475 171.325 153.998 171.339 158.513 171.349C160.771 171.357 162.526 171.364 163.723 171.368C164.317 171.372 164.77 171.374 165.083 171.376C165.391 171.379 165.553 171.385 165.553 171.385C165.553 171.385 165.403 171.39 165.101 171.392C164.792 171.394 164.343 171.397 163.757 171.401C162.564 171.405 160.817 171.412 158.567 171.42C154.039 171.43 147.498 171.444 139.415 171.461H139.326V171.385C139.317 157.916 139.304 139.439 139.291 119.062V118.954H139.415H139.419C148.591 118.956 157.429 118.958 165.553 118.959H165.671V119.062C165.648 134.277 165.628 147.367 165.615 156.661C165.601 161.292 165.59 164.976 165.582 167.508C165.576 168.765 165.571 169.734 165.567 170.395C165.565 170.718 165.562 170.965 165.56 171.137C165.558 171.303 165.553 171.385 165.553 171.385Z" fill="#17282F"/>
<path d="M161.251 168.485C161.251 168.485 161.246 168.404 161.243 168.252C161.242 168.095 161.239 167.871 161.236 167.579C161.232 166.983 161.227 166.113 161.22 164.987C161.212 162.727 161.201 159.446 161.187 155.335C161.173 147.117 161.153 135.581 161.131 122.287L161.251 122.39C155.577 122.392 149.505 122.393 143.245 122.394H143.241L143.364 122.287C143.348 140.757 143.333 157.333 143.323 168.485L143.241 168.414C148.871 168.43 153.362 168.444 156.455 168.453C158 168.461 159.193 168.466 160.009 168.47C160.41 168.474 160.717 168.476 160.932 168.478C161.14 168.48 161.251 168.485 161.251 168.485C161.251 168.485 161.151 168.49 160.948 168.493C160.737 168.494 160.435 168.496 160.04 168.5C159.228 168.504 158.041 168.51 156.504 168.517C153.4 168.526 148.892 168.54 143.241 168.556L143.159 168.557V168.485C143.149 157.333 143.134 140.757 143.117 122.287V122.179H143.241H143.245C149.505 122.18 155.577 122.181 161.251 122.182H161.37V122.287C161.348 135.61 161.329 147.17 161.315 155.406C161.301 159.507 161.289 162.78 161.281 165.034C161.275 166.151 161.269 167.014 161.266 167.605C161.263 167.892 161.26 168.111 161.259 168.265C161.256 168.413 161.251 168.485 161.251 168.485Z" fill="#17282F"/>
<path d="M143.66 42.5753C143.704 42.6211 142.703 43.3917 141.426 44.2954C140.148 45.1994 139.078 45.8943 139.035 45.8484C138.992 45.8021 139.992 45.0324 141.27 44.1283C142.547 43.2247 143.618 42.5294 143.66 42.5753Z" fill="#17282F"/>
<path d="M165.702 45.6363C165.666 45.6842 164.598 45.1274 163.411 44.2837C162.221 43.4429 161.379 42.6451 161.426 42.6054C161.476 42.5611 162.388 43.2837 163.567 44.1171C164.744 44.953 165.742 45.5846 165.702 45.6363Z" fill="#17282F"/>
<path d="M165.163 18.7268C165.203 18.7747 164.319 19.3932 163.19 20.1071C162.06 20.821 161.112 21.3613 161.072 21.3129C161.031 21.265 161.914 20.6469 163.044 19.933C164.174 19.2187 165.123 18.6788 165.163 18.7268Z" fill="#17282F"/>
<path d="M143.316 20.8964C143.285 20.9468 142.283 20.5165 141.152 19.8373C140.018 19.1606 139.199 18.5012 139.242 18.4578C139.287 18.4103 140.17 18.9899 141.292 19.66C142.413 20.3325 143.351 20.8426 143.316 20.8964Z" fill="#17282F"/>
<path d="M143.146 56.0882C143.117 56.1345 141.998 55.5653 140.953 54.5322C139.9 53.505 139.387 52.4699 139.444 52.4508C139.511 52.419 140.11 53.3871 141.139 54.3896C142.158 55.3987 143.191 56.034 143.146 56.0882Z" fill="#17282F"/>
<path d="M165.226 52.7718C165.271 52.8164 164.441 53.5146 163.373 54.3311C162.304 55.1475 161.401 55.7734 161.355 55.7287C161.31 55.6841 162.14 54.9859 163.209 54.1694C164.278 53.3526 165.181 52.7271 165.226 52.7718Z" fill="#17282F"/>
<path d="M143.136 102.458C143.177 102.511 142.308 103.058 141.323 103.818C140.335 104.575 139.605 105.257 139.55 105.217C139.499 105.181 140.155 104.426 141.159 103.657C142.16 102.885 143.103 102.411 143.136 102.458Z" fill="#17282F"/>
<path d="M164.818 105.071C164.772 105.114 163.959 104.528 163.004 103.761C162.048 102.994 161.311 102.337 161.358 102.293C161.404 102.249 162.216 102.836 163.172 103.603C164.127 104.37 164.865 105.027 164.818 105.071Z" fill="#17282F"/>
<path d="M143.581 122.907C143.532 122.948 142.548 122.127 141.385 121.075C140.221 120.021 139.318 119.134 139.367 119.093C139.416 119.052 140.4 119.872 141.563 120.925C142.727 121.978 143.63 122.866 143.581 122.907Z" fill="#17282F"/>
<path d="M165.464 118.929C165.511 118.972 164.616 119.789 163.463 120.753C162.311 121.718 161.338 122.466 161.291 122.423C161.243 122.38 162.139 121.563 163.291 120.598C164.443 119.634 165.416 118.886 165.464 118.929Z" fill="#17282F"/>
<path d="M142.71 168.216C142.76 168.256 142.072 168.989 141.173 169.853C140.273 170.717 139.503 171.386 139.452 171.345C139.401 171.305 140.09 170.573 140.989 169.708C141.889 168.844 142.66 168.176 142.71 168.216Z" fill="#17282F"/>
<path d="M165.119 171.383C165.079 171.429 164.131 170.845 163.089 169.994C162.044 169.145 161.312 168.361 161.362 168.323C161.415 168.282 162.222 168.996 163.258 169.837C164.292 170.681 165.163 171.335 165.119 171.383Z" fill="#17282F"/>
<path d="M158.514 179.027H216.846V142.574H158.514V179.027Z" fill="#F03D5F"/>
<path d="M174.158 142.574C174.241 142.574 174.158 150.271 174.158 150.271H169.84V142.574H174.158Z" fill="#17282F"/>
<path d="M187.68 179.027H216.846V142.574H187.68V179.027Z" fill="#9C2438"/>
<path d="M168.1 176.694H160.291V171.89H168.1V176.694Z" fill="#FAFAF9"/>
<path d="M160.303 176.683H168.088V171.901H160.303V176.683ZM168.112 176.705H160.279V171.88H168.112V176.705Z" fill="#17282F"/>
<path d="M173.445 176.694H169.541V171.89H173.445V176.694Z" fill="#FAFAF9"/>
<path d="M169.553 176.683H173.433V171.901H169.553V176.683ZM173.457 176.705H169.529V171.88H173.457V176.705Z" fill="#17282F"/>
</svg>
