<svg width="241" height="216" viewBox="0 0 241 216" fill="none" xmlns="http://www.w3.org/2000/svg">
<path d="M65.8584 112.827C66.6931 114.615 66.4384 116.76 65.6304 118.56C64.8211 120.359 63.5131 121.882 62.2064 123.359C60.8851 124.851 59.4531 126.636 59.7998 128.599C59.8864 129.088 60.0824 129.592 59.9291 130.063C59.6491 130.926 58.3944 131.147 58.1024 132.004C57.8251 132.819 58.5771 133.775 58.1691 134.532C57.7864 135.243 56.6198 135.107 56.1331 134.462C55.6451 133.816 55.6585 132.932 55.7491 132.128C56.0545 129.447 56.9998 126.839 58.4851 124.586C59.5918 122.907 61.0144 121.376 61.5984 119.452C62.1051 117.787 61.9291 116.004 62.0118 114.266C62.1798 110.726 64.0651 108.986 65.8584 112.827Z" fill="#CA0007"/>
<path fill-rule="evenodd" clip-rule="evenodd" d="M56.104 155.642C41.9 155.642 30.3826 167.158 30.3826 181.363C30.3826 195.568 41.9 207.084 56.104 207.084C70.3093 207.084 81.8253 195.568 81.8253 181.363C81.8253 167.158 70.3093 155.642 56.104 155.642ZM56.104 146.751C75.22 146.751 90.7159 162.247 90.7159 181.363C90.7159 200.479 75.22 215.975 56.104 215.975C36.9893 215.975 21.4919 200.479 21.4919 181.363C21.4919 162.247 36.9893 146.751 56.104 146.751Z" fill="#000044"/>
<path fill-rule="evenodd" clip-rule="evenodd" d="M56.1039 165.328C47.2479 165.328 40.0693 172.507 40.0693 181.363C40.0693 190.22 47.2479 197.399 56.1039 197.399C64.9613 197.399 72.1399 190.22 72.1399 181.363C72.1399 172.507 64.9613 165.328 56.1039 165.328ZM56.1039 155.642C70.3093 155.642 81.8252 167.158 81.8252 181.363C81.8252 195.568 70.3093 207.084 56.1039 207.084C41.8999 207.084 30.3826 195.568 30.3826 181.363C30.3826 167.158 41.8999 155.642 56.1039 155.642Z" fill="#A9C2C2"/>
<path d="M56.1039 157.802C43.0919 157.802 32.5439 168.35 32.5439 181.363C32.5439 194.376 43.0919 204.924 56.1039 204.924C69.1173 204.924 79.6653 194.376 79.6653 181.363C79.6653 168.35 69.1173 157.802 56.1039 157.802ZM56.1039 199.56C46.0559 199.56 37.9079 191.411 37.9079 181.363C37.9079 171.315 46.0559 163.167 56.1039 163.167C66.1533 163.167 74.2999 171.315 74.2999 181.363C74.2999 191.411 66.1533 199.56 56.1039 199.56Z" fill="#7E9191"/>
<path fill-rule="evenodd" clip-rule="evenodd" d="M52.9668 175.659C53.3895 175.426 53.8348 175.243 54.2895 175.111L55.1521 163.898H56.1041H57.0575L57.9201 175.111C58.3761 175.243 58.8201 175.426 59.2428 175.659L67.7815 168.34L68.4548 169.012L69.1281 169.687L61.8095 178.227C62.0428 178.648 62.2255 179.094 62.3575 179.548L73.5708 180.41V181.363V182.316L62.3561 183.179C62.2255 183.634 62.0428 184.078 61.8095 184.502L69.1281 193.04L68.4548 193.714L67.7815 194.387L59.2415 187.067C58.8188 187.3 58.3761 187.483 57.9201 187.615L57.0575 198.83H56.1041H55.1521L54.2895 187.616C53.8348 187.484 53.3895 187.3 52.9668 187.068L44.4295 194.387L43.7548 193.714L43.0815 193.04L50.4001 184.502C50.1668 184.079 49.9841 183.634 49.8521 183.179L38.6401 182.316V181.363V180.41L49.8521 179.548C49.9841 179.094 50.1668 178.648 50.4001 178.227L43.0815 169.687L43.7548 169.012L44.4295 168.34L52.9668 175.659Z" fill="#A9C2C2"/>
<path fill-rule="evenodd" clip-rule="evenodd" d="M205.729 189.179C210.033 189.179 213.545 185.669 213.545 181.363C213.545 177.059 210.033 173.549 205.729 173.549C201.424 173.549 197.912 177.059 197.912 181.363C197.912 185.669 201.424 189.179 205.729 189.179Z" fill="#A9C2C2"/>
<path fill-rule="evenodd" clip-rule="evenodd" d="M211.256 175.838C214.308 178.89 214.308 183.838 211.256 186.891C208.204 189.943 203.255 189.943 200.203 186.891C197.151 183.838 197.151 178.89 200.203 175.838C203.255 172.786 208.204 172.786 211.256 175.838Z" fill="#A9C2C2"/>
<path fill-rule="evenodd" clip-rule="evenodd" d="M213.547 181.363C213.547 185.681 210.045 189.179 205.729 189.179C201.412 189.179 197.913 185.681 197.913 181.363C197.913 177.047 201.412 173.549 205.729 173.549C210.045 173.549 213.547 177.047 213.547 181.363Z" fill="#A9C2C2"/>
<path fill-rule="evenodd" clip-rule="evenodd" d="M211.256 186.891C208.204 189.943 203.255 189.943 200.203 186.891C197.151 183.839 197.151 178.89 200.203 175.838C203.255 172.786 208.204 172.786 211.256 175.838C214.308 178.89 214.308 183.839 211.256 186.891Z" fill="#A9C2C2"/>
<path fill-rule="evenodd" clip-rule="evenodd" d="M205.729 189.179C201.412 189.179 197.912 185.681 197.912 181.365C197.912 177.047 201.412 173.549 205.729 173.549C210.045 173.549 213.545 177.047 213.545 181.365C213.545 185.681 210.045 189.179 205.729 189.179Z" fill="#A9C2C2"/>
<path fill-rule="evenodd" clip-rule="evenodd" d="M200.203 186.891C197.151 183.839 197.151 178.89 200.203 175.838C203.255 172.786 208.203 172.786 211.256 175.838C214.308 178.89 214.308 183.839 211.256 186.891C208.203 189.943 203.255 189.943 200.203 186.891Z" fill="#A9C2C2"/>
<path fill-rule="evenodd" clip-rule="evenodd" d="M197.912 181.363C197.912 177.047 201.412 173.549 205.728 173.549C210.045 173.549 213.545 177.047 213.545 181.363C213.545 185.681 210.045 189.179 205.728 189.179C201.412 189.179 197.912 185.681 197.912 181.363Z" fill="#A9C2C2"/>
<path fill-rule="evenodd" clip-rule="evenodd" d="M205.729 155.642C191.523 155.642 180.008 167.158 180.008 181.363C180.008 195.568 191.523 207.084 205.729 207.084C219.935 207.084 231.449 195.568 231.449 181.363C231.449 167.158 219.935 155.642 205.729 155.642ZM205.729 146.751C224.844 146.751 240.341 162.247 240.341 181.363C240.341 200.479 224.844 215.975 205.729 215.975C186.613 215.975 171.117 200.479 171.117 181.363C171.117 162.247 186.613 146.751 205.729 146.751Z" fill="#000044"/>
<path fill-rule="evenodd" clip-rule="evenodd" d="M205.729 165.328C196.873 165.328 189.693 172.507 189.693 181.363C189.693 190.22 196.873 197.399 205.729 197.399C214.585 197.399 221.764 190.22 221.764 181.363C221.764 172.507 214.585 165.328 205.729 165.328ZM205.729 155.642C219.935 155.642 231.449 167.158 231.449 181.363C231.449 195.568 219.935 207.084 205.729 207.084C191.523 207.084 180.008 195.568 180.008 181.363C180.008 167.158 191.523 155.642 205.729 155.642Z" fill="#A9C2C2"/>
<path d="M205.729 157.802C192.716 157.802 182.168 168.35 182.168 181.363C182.168 194.376 192.716 204.924 205.729 204.924C218.741 204.924 229.289 194.376 229.289 181.363C229.289 168.35 218.741 157.802 205.729 157.802ZM205.729 199.56C195.681 199.56 187.532 191.411 187.532 181.363C187.532 171.315 195.681 163.167 205.729 163.167C215.776 163.167 223.925 171.315 223.925 181.363C223.925 191.411 215.776 199.56 205.729 199.56Z" fill="#7E9191"/>
<path fill-rule="evenodd" clip-rule="evenodd" d="M202.591 175.659C203.015 175.426 203.459 175.243 203.913 175.111L204.776 163.898H205.729H206.681L207.544 175.111C208 175.243 208.443 175.426 208.867 175.659L217.405 168.34L218.079 169.012L218.753 169.687L211.433 178.227C211.667 178.648 211.849 179.094 211.981 179.548L223.195 180.41V181.363V182.316L211.981 183.179C211.849 183.634 211.667 184.078 211.433 184.502L218.753 193.04L218.079 193.714L217.404 194.387L208.867 187.067C208.443 187.3 207.999 187.483 207.544 187.615L206.681 198.83H205.729H204.776L203.913 187.616C203.459 187.484 203.015 187.3 202.591 187.068L194.052 194.387L193.38 193.714L192.705 193.04L200.024 184.502C199.791 184.079 199.608 183.634 199.476 183.179L188.264 182.316V181.363V180.41L199.476 179.548C199.608 179.094 199.791 178.648 200.024 178.227L192.705 169.687L193.38 169.012L194.052 168.34L202.591 175.659Z" fill="#A9C2C2"/>
<path fill-rule="evenodd" clip-rule="evenodd" d="M176.176 137.64L182.449 134.018L208.607 179.928C209.593 181.66 208.689 183.468 207.281 184.878C205.873 186.286 203.32 185.283 202.333 183.552L176.176 137.64Z" fill="black"/>
<path fill-rule="evenodd" clip-rule="evenodd" d="M205.729 137.107C209.761 137.107 213.667 137.648 217.38 138.659C218.5 138.963 219.311 139.78 219.608 140.902C219.908 142.026 219.608 143.136 218.787 143.959L168.324 194.422C167.503 195.243 166.391 195.543 165.269 195.244C164.145 194.947 163.329 194.134 163.023 193.012C162.013 189.302 161.473 185.396 161.473 181.363C161.473 156.922 181.288 137.107 205.729 137.107Z" fill="#4B8107"/>
<path fill-rule="evenodd" clip-rule="evenodd" d="M54.7801 128.464L123.441 127.458C110.479 152.916 109.907 171.323 123.441 186.676H91.9867L89.7614 184.478H13.988C12.068 184.478 10.416 183.73 9.15071 182.284C7.88671 180.84 7.36271 179.102 7.61604 177.199C11.0694 151.342 26.8627 132.151 51.9867 130.818C54.9827 130.658 55.3521 129.136 54.7801 128.464Z" fill="#4B8107"/>
<path fill-rule="evenodd" clip-rule="evenodd" d="M113.019 183.219H116.491C105.936 166.779 109.756 148.551 117.873 130.999L115.157 131.039C112.773 131.073 110.759 132.466 109.881 134.681C103.877 149.861 101.467 165.295 107.731 179.747C108.664 181.901 110.671 183.219 113.019 183.219Z" fill="#9AD41E"/>
<path fill-rule="evenodd" clip-rule="evenodd" d="M91.3266 185.152H121.939C131.677 185.152 144.763 186.551 150.883 176.388L177.745 131.782C181.161 126.107 181.199 121.775 179.348 114.056L173.208 88.4618C172.663 86.1871 172.412 84.3964 174.592 84.3964H177.408C180.1 84.3964 182.372 86.1817 183.008 88.7991L188.443 111.155C189.541 115.675 193.269 130.62 190.889 134.618L158.019 189.767H155.989H143.34H90.6946C90.9839 188.254 91.1946 186.715 91.3266 185.152Z" fill="#9AD41E"/>
<path fill-rule="evenodd" clip-rule="evenodd" d="M157.301 189.386H90.1533C89.7066 189.386 89.3413 189.75 89.3413 190.198V193.198C89.3413 193.644 89.7066 194.01 90.1533 194.01H157.301C157.748 194.01 158.113 193.644 158.113 193.198V190.198C158.113 189.75 157.748 189.386 157.301 189.386Z" fill="#4B8107"/>
<path fill-rule="evenodd" clip-rule="evenodd" d="M56.0134 135.642C80.7708 135.642 101.227 154.066 104.416 177.952C104.644 179.658 104.173 181.214 103.04 182.51C101.905 183.806 100.423 184.478 98.7014 184.478H13.3241C11.6027 184.478 10.1201 183.806 8.98541 182.51C7.85207 181.215 7.38143 179.656 7.60943 177.952C10.8001 154.066 31.2548 135.642 56.0134 135.642Z" fill="#9AD41E"/>
<path fill-rule="evenodd" clip-rule="evenodd" d="M56.0134 140.362C77.0321 140.362 94.3988 156.004 97.1068 176.282C97.3001 177.73 96.9014 179.054 95.9388 180.154C95.8134 180.294 95.6828 180.43 95.5481 180.554C90.2414 163.775 74.5481 151.61 56.0134 151.61C37.4774 151.61 21.7854 163.775 16.4774 180.554C16.3428 180.43 16.2134 180.294 16.0881 180.154C15.1254 179.054 14.7267 177.73 14.9187 176.282C17.6281 156.004 34.9934 140.362 56.0134 140.362Z" fill="#4B8107"/>
<path fill-rule="evenodd" clip-rule="evenodd" d="M53.5666 115.787H123.719C124.557 115.787 125.244 116.474 125.244 117.312V126.94C125.244 127.779 124.557 128.464 123.719 128.464H53.5666C52.7279 128.464 52.0413 127.779 52.0413 126.94V117.312C52.0413 116.474 52.7279 115.787 53.5666 115.787Z" fill="black"/>
<path fill-rule="evenodd" clip-rule="evenodd" d="M2.85866 38.9898H83.6866C85.26 38.9898 86.5467 40.2765 86.5467 41.8498V112.766C86.5467 114.339 85.26 115.625 83.6866 115.625H2.85866C1.28533 115.625 0 114.339 0 112.766V41.8498C0 40.2765 1.28533 38.9898 2.85866 38.9898Z" fill="#9AD41E"/>
<path fill-rule="evenodd" clip-rule="evenodd" d="M7.48805 43.3789H79.0574C80.4507 43.3789 81.5907 44.5176 81.5907 45.9109V71.9696C56.0454 82.3283 22.8761 58.1803 4.95605 92.1763V45.9109C4.95605 44.5176 6.09472 43.3789 7.48805 43.3789Z" fill="#4B8107"/>
<path fill-rule="evenodd" clip-rule="evenodd" d="M60.528 88.8873C56.7973 94.4353 50.4627 98.0859 43.2733 98.0859C32.5667 98.0859 23.752 89.9886 22.6187 79.5833L35.6827 82.1766L30.46 87.1526L60.528 88.8873ZM43.2733 56.5286C54.748 56.5286 64.052 65.8326 64.052 77.3073C64.052 77.7886 64.0347 78.2673 64.0027 78.7406L53.7133 74.5566L57.992 70.4806L31.9427 59.8886C35.2013 57.7646 39.0933 56.5286 43.2733 56.5286Z" fill="white"/>
<path fill-rule="evenodd" clip-rule="evenodd" d="M26.1613 61.2709L12.7026 74.0896L42.896 80.0816L38.6159 84.159L73.02 86.1416L47.4506 75.7443L51.7306 71.6683L26.1613 61.2709Z" fill="white"/>
<path fill-rule="evenodd" clip-rule="evenodd" d="M193.356 93.9803C195.104 93.8336 196.837 97.451 197.228 102.062C197.619 106.671 196.519 110.528 194.769 110.676C193.023 110.824 191.289 107.207 190.899 102.598C190.509 97.9869 191.609 94.1283 193.356 93.9803Z" fill="#F1CF00"/>
<path fill-rule="evenodd" clip-rule="evenodd" d="M192.653 92.879L192.696 92.875C193.325 92.8057 193.896 93.2604 193.968 93.8897L195.86 110.444C195.932 111.072 195.479 111.644 194.849 111.72L194.807 111.724C188.923 112.396 183.671 108.724 183.076 103.519C182.481 98.3151 186.769 93.5524 192.653 92.879Z" fill="#3F670D"/>
<path fill-rule="evenodd" clip-rule="evenodd" d="M190.796 93.2391L193.213 111.802C193.739 111.81 194.269 111.786 194.807 111.724L194.849 111.72C195.479 111.644 195.932 111.072 195.86 110.444L193.968 93.8898C193.896 93.2604 193.325 92.8057 192.696 92.8751L192.653 92.8791C192.013 92.9524 191.393 93.0737 190.796 93.2391Z" fill="#9DC6C6"/>
<path fill-rule="evenodd" clip-rule="evenodd" d="M176.232 86.4082L163.492 83.1362C162.831 82.9668 162.153 83.3682 161.983 84.0269L161.652 85.3215C161.481 85.9802 161.883 86.6602 162.543 86.8295L175.283 90.1028C175.943 90.2722 176.623 89.8708 176.792 89.2108L177.124 87.9175C177.293 87.2575 176.892 86.5788 176.232 86.4082Z" fill="black"/>
<path d="M178.231 84.2552L178.156 84.3379L178.231 84.2552Z" fill="#EDB38C"/>
<path d="M123.92 175.9C123.376 177.084 122.785 178.263 122.516 179.538C122.245 180.811 122.332 182.222 123.063 183.299C124.451 185.347 127.392 185.406 129.86 185.246C131.075 185.168 132.289 185.09 133.503 185.011C135.059 184.911 136.868 184.66 137.643 183.307C138.332 182.104 137.859 180.602 137.461 179.274C136.56 176.268 136.12 173.124 136.159 169.988C136.171 169.058 136.219 168.092 135.872 167.23C135.385 166.02 134.187 165.218 132.931 164.876C130.096 164.106 127.94 164.172 127.169 166.896C126.297 169.982 125.265 172.984 123.92 175.9Z" fill="#191213"/>
<path d="M133.585 133.71C134.217 134.4 134.868 135.135 135.096 136.044C135.307 136.884 135.128 137.773 134.881 138.603C133.796 142.266 131.405 145.582 131.191 149.396C131.128 150.543 131.265 151.706 131.049 152.835C130.807 154.102 130.136 155.239 129.477 156.347C128.611 157.803 127.745 159.259 126.88 160.715C126.343 161.619 125.785 162.596 125.852 163.647C125.976 165.626 128.128 166.755 130.008 167.383C131.099 167.746 132.46 168.014 133.261 167.19C133.589 166.852 133.749 166.391 133.9 165.944C137.163 156.259 140.427 146.574 143.691 136.89C144.507 134.467 145.324 131.807 144.421 129.415C143.429 126.783 140.687 125.314 138.161 124.075C135.815 122.926 133.468 121.775 131.123 120.623C129.068 119.618 126.276 118.734 124.769 120.455C122.668 122.859 124.7 124.823 126.409 126.106C129.063 128.098 131.344 131.263 133.585 133.71Z" fill="#2E4C5E"/>
<path d="M128.763 176.778C127.944 178.831 127.109 180.989 127.348 183.185C127.399 183.665 127.517 184.169 127.861 184.503C128.156 184.789 128.568 184.909 128.964 185.014C135.819 186.838 143.079 187.119 150.053 185.834C151.064 185.649 152.105 185.411 152.913 184.781C153.723 184.147 154.224 183.006 153.815 182.063C153.309 180.903 151.821 180.63 150.564 180.489C148.316 180.233 146.019 179.873 144.047 178.763C142.075 177.653 140.469 175.634 140.451 173.371C140.436 171.653 141.192 169.577 139.897 168.447C139.28 167.91 138.4 167.831 137.583 167.777C134.871 167.601 133.456 167.014 131.809 169.003C130.357 170.754 129.585 174.635 128.763 176.778Z" fill="#281B1C"/>
<path d="M94.2239 63.5203C88.3973 74.4777 85.4493 86.6963 82.5586 98.7657C82.3039 99.831 82.048 100.952 82.34 102.008C82.632 103.066 83.6773 104 84.7466 103.768C84.764 104.806 84.7786 105.846 84.7946 106.886C86.2519 108.988 88.8519 110.068 91.4013 110.286C93.9506 110.503 96.4986 109.97 99.0013 109.44C104.417 108.294 109.833 107.148 115.249 106.003C116.34 105.772 117.521 105.488 118.215 104.616C118.908 103.742 118.653 102.11 117.555 101.92C121.397 101.23 123.012 96.7083 123.907 92.907C124.804 89.0923 125.703 85.279 126.601 81.463C128.028 75.4044 129.461 69.287 129.545 63.0617C129.605 58.4604 129.157 53.199 132.42 49.9523C133.44 48.9363 134.804 48.1523 135.311 46.807C136.085 44.743 134.476 42.6137 132.98 40.9937C131.032 38.8844 129.085 36.775 127.137 34.6657C126.824 34.3243 126.461 33.9604 125.999 33.9297C125.459 33.895 125.013 34.327 124.645 34.7243C121.804 37.7977 119.985 39.0163 116.303 40.8163C113.035 42.415 110.008 44.4803 107.253 46.8523C102.237 51.1723 96.7186 57.2843 94.2239 63.5203Z" fill="#4B8107"/>
<path d="M104.624 71.7163C103.84 78.5856 105.515 86.1042 110.608 90.7789C114.033 93.9216 118.667 95.4909 123.288 95.9976C127.908 96.5042 132.575 96.0323 137.199 95.5603C137.487 95.0309 137.775 94.5042 138.063 93.9762C139.167 94.3616 140.272 94.7469 141.377 95.1322C141.777 94.6536 142.177 94.1736 142.577 93.6923C142.969 94.8669 144.363 95.6029 145.553 95.2629C145.923 92.0749 146.861 88.9536 148.311 86.0923C139.911 84.4336 131.397 82.7376 123.724 78.9389C122.507 78.3362 121.153 77.6616 119.851 78.0469C120.864 72.4563 121.14 66.7322 120.668 61.0709C120.444 58.3776 119.987 55.5442 118.253 53.4709C110.113 43.7242 105.136 67.2296 104.624 71.7163Z" fill="#3F670D"/>
<path d="M121.108 57.5605C120.889 56.2498 120.643 54.9245 120.064 53.7272C119.464 52.4832 118.152 51.3018 116.839 51.7365C115.245 52.2658 115.205 54.4792 115.477 56.1365C116.269 60.9778 117.061 65.8192 117.853 70.6605C118.417 74.0978 118.968 77.7018 117.849 81.0032C118.589 80.9285 119.329 80.8552 120.071 80.7818C120.12 81.5978 120.171 82.4152 120.22 83.2312C125.94 84.8965 131.827 85.9885 137.764 86.4858C137.637 84.2938 134.936 83.4258 132.797 82.9325C130.24 82.3418 127.593 81.5512 125.244 80.3632C122.323 78.8859 122.699 78.3525 122.659 75.0125C122.589 69.1672 122.071 63.3272 121.108 57.5605Z" fill="#9AD41E"/>
<path d="M129.835 49.4966C131.104 48.5779 132.263 47.5099 133.284 46.3232C132.255 45.0366 131.225 43.7512 130.196 42.4659C130.039 42.2699 129.875 42.0672 129.648 41.9592C129.224 41.7579 128.708 41.9499 128.352 42.2566C127.411 43.0659 127.3 44.5432 127.756 45.6992C128.213 46.8552 129.119 47.7659 130.001 48.6432" fill="#CA0007"/>
<path d="M117.871 101.187C116.82 102.122 115.256 102.111 113.851 102.043C113.164 102.009 112.444 101.966 111.861 101.602C111.28 101.237 110.911 100.435 111.253 99.8405C111.581 99.2752 112.337 99.1645 112.989 99.1312C113.925 99.0832 114.881 99.0645 115.763 98.7459C116.644 98.4272 117.456 97.7432 117.647 96.8259C118.379 96.4179 119.381 96.9525 119.647 97.7472C119.913 98.5419 119.581 99.4406 119.021 100.063C118.463 100.689 117.707 101.095 116.965 101.489" fill="#CA0007"/>
<path d="M91.7173 117.406C95.3399 119.49 99.6226 120.012 103.773 120.494C108.401 121.028 113.028 121.566 117.657 122.103C124.059 122.844 131.18 123.978 135.092 129.099C135.496 129.628 135.913 130.231 136.56 130.391C137.267 130.566 137.964 130.143 138.664 129.942C139.364 129.738 140.355 129.95 140.428 130.674C139.672 131.359 139.252 132.399 139.319 133.418C139.845 133.328 140.372 133.238 140.899 133.148C141.208 134.416 140.38 135.648 139.679 136.75C137.483 140.186 136.129 144.155 135.767 148.216C135.508 151.102 135.695 154.195 134.189 156.671C133.508 157.792 132.519 158.702 131.817 159.814C131.179 160.828 130.792 162.003 130.705 163.199C130.412 167.183 134.085 171.084 138.067 170.754C142.147 170.414 144.892 166.53 146.863 162.94C152.889 151.964 157.295 139.987 158.725 127.547C158.963 125.483 159.112 123.347 158.484 121.367C157.065 116.894 152.264 114.558 147.9 112.828C140.501 109.898 132.985 107.264 125.373 104.94C123.301 104.306 121.201 103.691 119.039 103.55C117.113 103.424 115.185 103.674 113.272 103.924C105.92 104.89 98.568 105.854 91.2146 106.816C87.8026 107.263 85.0506 106.714 86.2653 110.896C87.064 113.65 89.2746 116.002 91.7173 117.406Z" fill="#3D5E77"/>
<path d="M139.243 149.281C141.435 150.127 143.688 151.009 145.399 152.621C149.504 156.487 149.152 163.142 147.395 168.502C145.636 173.859 142.762 179.043 142.804 184.682C143.639 185.423 144.83 184.306 145.348 183.319C149.162 176.075 151.635 168.127 152.607 159.999C152.864 157.858 152.978 155.531 151.835 153.702C150.848 152.126 149.107 151.211 147.435 150.397C138.911 146.239 128.111 140.394 118.606 139.37C118.362 143.605 135.688 147.911 139.243 149.281Z" fill="#4A6D82"/>
<path d="M153.013 94.0884C153.86 94.1138 154.719 94.1364 155.544 93.9431C158.687 93.2018 160.463 89.5938 163.563 88.6871C163.753 88.6311 163.955 88.5858 164.149 88.6244C164.428 88.6778 164.647 88.8911 164.836 89.1031C165.339 89.6631 165.777 90.2911 166.383 90.7364C166.988 91.1831 167.829 91.4151 168.497 91.0671C169.164 90.7204 169.401 89.6498 168.796 89.2044C169.081 89.8698 169.967 90.1991 170.617 89.8818C171.269 89.5631 171.555 88.6631 171.207 88.0284C171.515 88.5404 172.169 88.8191 172.752 88.6858C173.336 88.5538 173.804 88.0191 173.861 87.4231C173.944 86.5471 173.245 85.8191 172.659 85.1631C171.801 84.2031 171.083 83.1204 170.187 82.1951C169.292 81.2698 168.165 80.4858 166.884 80.3418C165.869 80.2298 164.856 80.5284 163.889 80.8618C161.717 81.6124 159.613 82.5524 157.607 83.6711C156.012 84.5591 154.473 85.5604 152.792 86.2684C151.109 86.9738 149.233 87.3711 147.451 86.9804C146.349 86.7391 144.757 92.6844 145.256 93.5244C145.685 94.2498 147.705 93.9324 148.529 93.9551C150.024 94.0004 151.519 94.0444 153.013 94.0884Z" fill="#EDB38C"/>
<path d="M159.479 25.0246C160.285 26.326 162.113 26.7846 162.751 28.1766C160.533 29.0286 158.727 30.8913 157.943 33.1353C157.009 35.8073 157.387 39.0673 155.464 41.1446C153.739 43.0073 150.804 43.1166 148.34 42.5113C145.873 41.9073 143.541 40.7313 141.017 40.4659C137.873 40.1353 134.607 41.3406 132.431 43.6326C131.923 44.1673 131.323 44.8153 130.595 44.6859C130.095 44.5966 129.741 44.1579 129.437 43.7486C128.224 42.1179 127.009 40.4846 125.796 38.8526C127.527 36.9579 128.5 34.3873 128.457 31.8193C128.424 29.8246 127.805 27.882 127.668 25.8913C127.168 18.63 133.449 12.1753 140.521 10.4593C146.044 9.11929 155.315 9.66861 160.095 13.1793C164.884 16.6966 156.975 20.986 159.479 25.0246Z" fill="#EDB38C"/>
<path d="M154.827 17.2496C155.165 18.119 153.943 18.7669 153.009 18.7656C151.195 18.7616 149.452 18.0523 147.643 17.8976C145.835 17.7443 143.703 18.4016 143.104 20.115C142.703 21.2616 143.109 22.5123 143.259 23.719C143.409 24.9243 143.121 26.411 141.987 26.8483C140.991 25.5723 141.339 23.5083 140.125 22.4376C139.095 21.5283 137.485 21.8336 136.231 22.3923C135.183 22.8563 134.147 23.5123 133.632 24.5363C132.425 26.9403 134.629 29.9243 133.737 32.4616C133.44 33.311 132.825 34.003 132.211 34.6563C131.456 35.459 130.648 36.2603 129.631 36.683C128.612 37.107 127.328 37.0683 126.525 36.3123C125.172 35.0336 125.916 32.787 125.572 30.9576C125.207 29.0216 123.559 27.5136 123.204 25.5763C123.008 24.507 123.227 23.4083 123.465 22.347C124.076 19.6256 124.837 16.8923 126.289 14.5096C128.673 10.6016 132.796 7.94431 137.208 6.72965C141.621 5.51498 146.313 5.64162 150.825 6.40562C152.793 6.73896 154.776 7.20564 156.491 8.22831C158.501 9.42831 160.344 11.439 162.676 11.2283C162.049 11.7963 161.297 12.2243 160.491 12.475C161.572 12.9776 162.553 13.6976 163.359 14.579C163.048 15.1003 162.456 15.3843 161.867 15.423C162.491 16.4803 162.079 18.2003 160.681 18.351C159.691 18.4576 158.583 17.3776 157.573 17.2283C157.823 17.3603 158.095 17.6936 158.349 17.859C157.708 18.0683 155.176 18.147 154.827 17.2496Z" fill="#9E5E32"/>
<path d="M138.833 28.4365C138.844 28.5578 138.667 28.6192 138.564 28.5552L138.389 28.2432C138.271 27.7952 138.16 27.3125 138.321 26.8765C138.481 26.4405 139.029 26.1205 139.423 26.3658C139.744 25.6098 139.507 24.6565 138.871 24.1405C138.235 23.6218 137.252 23.5859 136.579 24.0552C136.039 24.4299 135.731 25.0552 135.5 25.6725C135.312 26.1765 135.159 26.7219 135.272 27.2485C135.365 27.6872 135.635 28.0645 135.897 28.4285C136.203 28.8499 136.507 29.2725 136.811 29.6939C137.105 30.1019 137.473 30.5512 137.976 30.5632C138.481 30.5765 138.897 30.1072 138.992 29.6112C139.087 29.1165 138.937 28.6085 138.767 28.1338" fill="#C19272"/>
<path d="M157.933 26.6591C158.752 26.2818 159.623 25.8537 160.512 26.0031C161.852 26.2257 162.663 27.7311 162.595 29.0884C162.524 30.4458 161.811 31.6737 161.117 32.8417C159.932 34.8337 158.747 36.8257 157.536 38.8017C156.72 40.1311 155.845 41.5017 154.515 42.3137C152.856 43.3244 150.727 43.2924 148.883 42.6844C147.037 42.0764 145.415 40.9551 143.82 39.8471C143.889 38.8071 144.925 38.1578 145.639 37.3964C147.02 35.9258 147.304 33.7204 147.1 31.7097C146.78 28.5631 148.603 29.3257 151.129 28.8431C153.475 28.3951 155.767 27.6618 157.933 26.6591Z" fill="#CEEAE8"/>
<path d="M141.12 25.4554C143.473 27.1914 145.929 28.7633 148.491 30.1767C148.896 30.4007 149.26 29.7794 148.853 29.554C146.293 28.1407 143.837 26.5687 141.484 24.834C141.111 24.558 140.751 25.1834 141.12 25.4554Z" fill="#CEEAE8"/>
<path d="M133.492 31.947C137.393 34.579 141.224 37.3083 144.985 40.135C145.356 40.415 145.716 39.7897 145.349 39.5137C141.588 36.6857 137.757 33.9564 133.856 31.3244C133.471 31.0644 133.109 31.6884 133.492 31.947Z" fill="#CEEAE8"/>
<path d="M149.111 33.7216C149.163 33.0056 149.141 32.2309 149.556 31.6443C150.029 30.9749 150.912 30.7709 151.704 30.5576C153.125 30.1736 154.496 29.6016 155.769 28.8616C155.993 28.7296 156.229 28.5896 156.492 28.5789C157.089 28.5536 157.505 29.2376 157.467 29.8363C157.429 30.4323 157.095 30.9616 156.843 31.5056L156.781 31.8229C156.815 31.9456 156.933 32.0203 157.029 32.1029C157.497 32.5069 157.477 33.2936 157.099 33.7829C156.72 34.2723 156.084 34.4989 155.468 34.5456C155.063 34.5763 154.571 34.5869 154.375 34.9429C154.28 35.1109 154.287 35.3136 154.281 35.5069C154.233 37.3656 152.796 39.0989 150.979 39.4909C151.107 39.8709 151.164 40.2776 151.147 40.6789C151.139 40.8309 151.115 40.9963 151 41.0963C150.813 41.2589 150.524 41.1469 150.307 41.0296C148.96 40.2989 147.025 39.9043 147.489 38.1789C147.909 36.6083 149.111 35.5069 149.111 33.7216Z" fill="#B7CECC"/>
<path d="M136.329 30.8031C136.941 30.7564 137.575 30.6964 138.107 30.3604C138.611 30.0418 138.968 29.5071 139.263 28.9564C140.699 26.2764 141.039 22.8471 143.083 20.6991C145.579 18.0764 149.493 18.4191 152.947 18.4151C155.701 18.4124 158.456 18.0778 161.143 17.4178C161.639 17.2964 162.147 17.1564 162.559 16.8298C163.291 16.2458 163.572 15.1818 163.603 14.1884C163.723 10.4658 161.101 7.3191 158.303 5.22177C153.408 1.55244 147.407 -0.298244 141.489 0.0390892C135.573 0.377756 129.777 2.90176 125.256 7.11109C122.853 9.34309 120.744 12.1791 120.08 15.5591C119.668 17.6524 119.833 19.8284 120.105 21.9498C120.347 23.8204 120.681 25.7124 121.499 27.3738C124.311 33.0818 131.489 31.1738 136.329 30.8031Z" fill="#4B8107"/>
<path d="M132.184 2.83625C128.487 4.11892 124.96 6.22428 122.663 9.39361C120.364 12.5616 119.477 16.9042 121.029 20.4989C121.492 21.5669 122.22 22.6043 123.305 23.0256C124.76 23.5896 126.441 22.8723 127.544 21.7696C129.744 19.5683 130.915 16.5309 133.152 14.2843C134.977 12.4509 137.271 11.6056 139.192 9.99361C140.849 8.60561 141.484 6.24827 140.333 4.2536C138.661 1.35894 134.812 1.92292 132.184 2.83625Z" fill="#9AD41E"/>
<path d="M137.987 40.1484L138.023 40.4884L137.795 40.6844C137.371 40.8991 136.925 41.0711 136.465 41.1978C135.383 38.0058 134.655 34.6911 134.304 31.3378C134.267 30.9831 134.236 30.6138 134.368 30.2818C134.596 29.7124 135.977 28.9124 136.501 29.4258C136.821 29.7378 136.452 32.4884 136.483 33.0244C136.623 35.4564 137.128 37.8671 137.987 40.1484Z" fill="#681616"/>
<path d="M152.395 21.9991C153.837 21.2884 155.031 21.0911 156.628 21.1218C157.331 21.1351 158.085 20.9218 158.101 20.0911L158.041 20.0138C157.567 19.9405 157.105 20.0951 156.628 20.0938C156.016 20.0925 155.463 20.0484 154.853 20.1671C153.861 20.3578 152.656 20.8018 152.089 21.6938C151.961 21.8951 152.208 22.0911 152.395 21.9991Z" fill="#9AD41E"/>
<path d="M152.76 24.146C153.689 23.5913 154.675 23.5953 155.713 23.4367C156.239 23.3553 156.856 23.2753 157.127 22.778C157.185 22.67 157.089 22.5367 156.967 22.5687C156.62 22.662 156.336 22.8673 155.992 22.9753C155.616 23.0913 155.223 23.138 154.841 23.23C154.109 23.41 153.373 23.7007 152.747 24.122L152.76 24.146Z" fill="#9AD41E"/>
<path d="M155.193 23.3191C155.116 23.6365 154.912 24.4391 155.425 24.5285C155.991 24.6258 156.003 23.7685 155.931 23.4245L155.729 23.2231L155.671 23.2111L155.441 23.3045L155.375 23.5778L155.431 23.7711L155.427 24.0325L155.491 23.9005L155.472 23.7391C155.449 23.5991 155.413 23.4591 155.389 23.3191H155.193Z" fill="#9AD41E"/>
<path d="M154.02 24.5322C154.405 24.7402 154.825 24.8442 155.264 24.8136C155.592 24.7896 156.08 24.7176 156.239 24.3936L156.175 24.2816C155.889 24.2762 155.637 24.4656 155.355 24.5189C154.932 24.6002 154.512 24.5376 154.123 24.3576L154.02 24.5322Z" fill="#9AD41E"/>
<path d="M154.907 25.3162C155.103 25.3216 155.299 25.3202 155.464 25.2069L155.415 25.0296C155.244 25.0243 155.08 25.0722 154.907 25.0736C154.751 25.0736 154.751 25.3122 154.907 25.3162Z" fill="#9AD41E"/>
</svg>
